<?xml version="1.0" ?><svg height="24" version="1.1" width="24" xmlns="http://www.w3.org/2000/svg" xmlns:cc="http://creativecommons.org/ns#" xmlns:dc="http://purl.org/dc/elements/1.1/" xmlns:rdf="http://www.w3.org/1999/02/22-rdf-syntax-ns#"><g transform="translate(0 -1028.4)"><path d="m3 1043.4v2.9 0.4 0.1c-0.0039 0 0 0 0 0.1 0 2.4 4.0294 4.5 9 4.5 4.971 0 9-2.1 9-4.5v-0.2-0.3-3h-18z" fill="#95a5a6"/><path d="m21 5a9 4 0 1 1 -18 0 9 4 0 1 1 18 0z" fill="#bdc3c7" transform="translate(0 1038.4)"/><path d="m3.0625 1046.9c-0.046 0.1-0.0625 0.3-0.0625 0.5 0 2.2 4.0294 4 9 4 4.971 0 9-1.8 9-4 0-0.2-0.017-0.4-0.062-0.5-0.554 1.9-4.349 3.5-8.938 3.5-4.5894 0-8.3837-1.6-8.9375-3.5z" fill="#7f8c8d"/><path d="m3 1038.4v2.9 0.4 0.1c-0.0039 0 0 0 0 0.1 0 2.4 4.0294 4.5 9 4.5 4.971 0 9-2.1 9-4.5v-0.2-0.3-3h-18z" fill="#95a5a6"/><path d="m21 5a9 4 0 1 1 -18 0 9 4 0 1 1 18 0z" fill="#bdc3c7" transform="translate(0 1033.4)"/><path d="m3.0625 1041.9c-0.046 0.1-0.0625 0.3-0.0625 0.5 0 2.2 4.0294 4 9 4 4.971 0 9-1.8 9-4 0-0.2-0.017-0.4-0.062-0.5-0.554 1.9-4.349 3.5-8.938 3.5-4.5894 0-8.3837-1.6-8.9375-3.5z" fill="#7f8c8d"/><path d="m3 1033.4v2.9 0.4 0.1c-0.0039 0 0 0 0 0.1 0 2.4 4.0294 4.5 9 4.5 4.971 0 9-2.1 9-4.5v-0.2-0.3-3h-18z" fill="#95a5a6"/><path d="m3.0625 1036.9c-0.046 0.1-0.0625 0.3-0.0625 0.5 0 2.2 4.0294 4 9 4 4.971 0 9-1.8 9-4 0-0.2-0.017-0.4-0.062-0.5-0.554 1.9-4.349 3.5-8.938 3.5-4.5894 0-8.3837-1.6-8.9375-3.5z" fill="#7f8c8d"/><path d="m12 1043.4v8c4.971 0 9-2.1 9-4.5v-0.2-0.3-3h-9z" fill="#bdc3c7"/><g transform="translate(0,5)"><path d="m12 6v8c4.971 0 9-1.791 9-4 0-2.2091-4.029-4-9-4z" fill="#ecf0f1" transform="translate(0 1028.4)"/><path d="m12 5v8c4.971 0 9-2.015 9-4.5v-0.1875-0.3125-3h-9z" fill="#bdc3c7" transform="translate(0 1028.4)"/><path d="m20.938 8.5c-0.554 1.973-4.349 3.5-8.938 3.5v1c4.971 0 9-1.791 9-4 0-0.1694-0.017-0.3362-0.062-0.5z" fill="#95a5a6" transform="translate(0 1028.4)"/></g><path d="m12 6v8c4.971 0 9-1.791 9-4 0-2.2091-4.029-4-9-4z" fill="#ecf0f1" transform="translate(0 1028.4)"/><path d="m12 5v8c4.971 0 9-2.015 9-4.5v-0.1875-0.3125-3h-9z" fill="#bdc3c7" transform="translate(0 1028.4)"/><path d="m20.938 8.5c-0.554 1.973-4.349 3.5-8.938 3.5v1c4.971 0 9-1.791 9-4 0-0.1694-0.017-0.3362-0.062-0.5z" fill="#95a5a6" transform="translate(0 1028.4)"/><path d="m20.938 1046.9c-0.554 1.9-4.349 3.5-8.938 3.5v1c4.971 0 9-1.8 9-4 0-0.2-0.017-0.4-0.062-0.5z" fill="#95a5a6"/><path d="m21 5a9 4 0 1 1 -18 0 9 4 0 1 1 18 0z" fill="#bdc3c7" transform="translate(0 1028.4)"/></g></svg>