<?xml version="1.0" ?><svg height="32" id="svg17515" version="1.1" viewBox="0 0 32 32.000001" width="32" xmlns="http://www.w3.org/2000/svg" xmlns:cc="http://creativecommons.org/ns#" xmlns:dc="http://purl.org/dc/elements/1.1/" xmlns:inkscape="http://www.inkscape.org/namespaces/inkscape" xmlns:rdf="http://www.w3.org/1999/02/22-rdf-syntax-ns#" xmlns:sodipodi="http://sodipodi.sourceforge.net/DTD/sodipodi-0.dtd" xmlns:svg="http://www.w3.org/2000/svg"><defs id="defs17517"><clipPath clipPathUnits="userSpaceOnUse" id="clipPath32617-9-8-8-9"><circle cx="-64.623535" cy="50.047192" id="path32619-2-3-5-1" r="38.553814" style="fill:#4bb7c0;fill-opacity:1;stroke:none" transform="matrix(9.3443438,0,0,9.3443438,-627.91229,-5859.5225)"/></clipPath><clipPath clipPathUnits="userSpaceOnUse" id="clipPath19550"><circle cx="-64.623535" cy="50.047192" id="circle19552" r="38.553814" style="fill:#4bb7c0;fill-opacity:1;stroke:none" transform="matrix(9.3443438,0,0,9.3443438,-627.91229,-5859.5225)"/></clipPath></defs><g id="layer1" transform="translate(0,-1020.3622)"><g id="g41012" style="display:inline" transform="translate(771.91739,120.01351)"><path d="m -748.16739,916.09845 c 0,6.4893 -4.71244,9.5 -7.75,9.5 -3.03756,0 -7.75,-3.0107 -7.75,-9.5 0,-6.4893 7.75,-14 7.75,-14 0,0 7.75,7.5107 7.75,14 z" id="path24016" style="opacity:1;fill:#88b03c;fill-opacity:1;stroke:none;stroke-width:1;stroke-linecap:round;stroke-linejoin:round;stroke-miterlimit:4;stroke-dasharray:none;stroke-opacity:1"/><g id="g40993" transform="translate(0.13258252,0)"><path d="m -756.36719,-114.06055 a 0.50005,0.50005 0 0 0 -0.49219,0.50782 l 0,5.03515 -1.89062,-1.89062 a 0.50004997,0.50004997 0 0 0 -0.35938,-0.15235 0.50004997,0.50004997 0 0 0 -0.34765,0.85938 l 2.59765,2.59765 0,2.83594 -2.39062,-2.39062 a 0.50005,0.50005 0 0 0 -0.35938,-0.15235 0.50005,0.50005 0 0 0 -0.34765,0.85938 l 3.09765,3.09765 0,2.83594 -2.64062,-2.64062 a 0.50004994,0.50004994 0 0 0 -0.35938,-0.15235 0.50004994,0.50004994 0 0 0 -0.34765,0.85938 l 3.34765,3.347654 0,3.742188 c 0.32495,0.05865 0.64277,0.09766 0.94141,0.09766 0.0189,0 0.0395,-0.0037 0.0586,-0.0039 l 0,-3.835938 3.34961,-3.347654 a 0.50004994,0.50004994 0 1 0 -0.70703,-0.70703 l -2.64258,2.64062 0,-2.83594 3.09961,-3.09765 a 0.50005,0.50005 0 1 0 -0.70703,-0.70703 l -2.39258,2.39062 0,-2.83594 2.59961,-2.59765 a 0.50004997,0.50004997 0 1 0 -0.70703,-0.70703 l -1.89258,1.89062 0,-5.03515 a 0.50005,0.50005 0 0 0 -0.50781,-0.50782 z" id="path40983" style="color:#000000;font-style:normal;font-variant:normal;font-weight:normal;font-stretch:normal;font-size:medium;line-height:normal;font-family:sans-serif;text-indent:0;text-align:start;text-decoration:none;text-decoration-line:none;text-decoration-style:solid;text-decoration-color:#000000;letter-spacing:normal;word-spacing:normal;text-transform:none;direction:ltr;writing-mode:lr-tb;baseline-shift:baseline;text-anchor:start;white-space:normal;clip-rule:nonzero;display:inline;overflow:visible;visibility:visible;opacity:1;isolation:auto;mix-blend-mode:normal;color-interpolation:sRGB;color-interpolation-filters:linearRGB;solid-color:#000000;solid-opacity:1;fill:#81a53c;fill-opacity:1;fill-rule:evenodd;stroke:none;stroke-width:1px;stroke-linecap:round;stroke-linejoin:round;stroke-miterlimit:4;stroke-dasharray:none;stroke-dashoffset:0;stroke-opacity:1;color-rendering:auto;image-rendering:auto;shape-rendering:auto;text-rendering:auto;enable-background:accumulate" transform="translate(-0.13258252,1020.3622)"/></g><path d="m -755.92578,906.09766 a 0.50005,0.50005 0 0 0 -0.49219,0.50781 l 0,23.48633 a 0.50005,0.50005 0 1 0 1,0 l 0,-23.48633 a 0.50005,0.50005 0 0 0 -0.50781,-0.50781 z" id="path24019" style="color:#000000;font-style:normal;font-variant:normal;font-weight:normal;font-stretch:normal;font-size:medium;line-height:normal;font-family:sans-serif;text-indent:0;text-align:start;text-decoration:none;text-decoration-line:none;text-decoration-style:solid;text-decoration-color:#000000;letter-spacing:normal;word-spacing:normal;text-transform:none;direction:ltr;writing-mode:lr-tb;baseline-shift:baseline;text-anchor:start;white-space:normal;clip-rule:nonzero;display:inline;overflow:visible;visibility:visible;opacity:1;isolation:auto;mix-blend-mode:normal;color-interpolation:sRGB;color-interpolation-filters:linearRGB;solid-color:#000000;solid-opacity:1;fill:#94b84f;fill-opacity:1;fill-rule:evenodd;stroke:none;stroke-width:1px;stroke-linecap:round;stroke-linejoin:round;stroke-miterlimit:4;stroke-dasharray:none;stroke-dashoffset:0;stroke-opacity:1;color-rendering:auto;image-rendering:auto;shape-rendering:auto;text-rendering:auto;enable-background:accumulate"/><path d="m -758.66797,909.59766 a 0.50004997,0.50004997 0 0 0 -0.34765,0.85937 l 2.74414,2.74414 a 0.50004997,0.50004997 0 0 0 0.70703,0 l 2.74609,-2.74414 a 0.50004997,0.50004997 0 1 0 -0.70703,-0.70703 l -2.39258,2.39062 -2.39062,-2.39062 a 0.50004997,0.50004997 0 0 0 -0.35938,-0.15234 z" id="path24021" style="color:#000000;font-style:normal;font-variant:normal;font-weight:normal;font-stretch:normal;font-size:medium;line-height:normal;font-family:sans-serif;text-indent:0;text-align:start;text-decoration:none;text-decoration-line:none;text-decoration-style:solid;text-decoration-color:#000000;letter-spacing:normal;word-spacing:normal;text-transform:none;direction:ltr;writing-mode:lr-tb;baseline-shift:baseline;text-anchor:start;white-space:normal;clip-rule:nonzero;display:inline;overflow:visible;visibility:visible;opacity:1;isolation:auto;mix-blend-mode:normal;color-interpolation:sRGB;color-interpolation-filters:linearRGB;solid-color:#000000;solid-opacity:1;fill:#94b84f;fill-opacity:1;fill-rule:evenodd;stroke:none;stroke-width:0.99999994px;stroke-linecap:round;stroke-linejoin:round;stroke-miterlimit:4;stroke-dasharray:none;stroke-dashoffset:0;stroke-opacity:1;color-rendering:auto;image-rendering:auto;shape-rendering:auto;text-rendering:auto;enable-background:accumulate"/><path d="m -759.16797,913.34766 a 0.50005,0.50005 0 0 0 -0.34765,0.85937 l 3.24414,3.24414 a 0.50005,0.50005 0 0 0 0.70703,0 l 3.24609,-3.24414 A 0.50005,0.50005 0 1 0 -753.02539,913.5 l -2.89258,2.89062 -2.89062,-2.89062 a 0.50005,0.50005 0 0 0 -0.35938,-0.15234 z" id="path24025" style="color:#000000;font-style:normal;font-variant:normal;font-weight:normal;font-stretch:normal;font-size:medium;line-height:normal;font-family:sans-serif;text-indent:0;text-align:start;text-decoration:none;text-decoration-line:none;text-decoration-style:solid;text-decoration-color:#000000;letter-spacing:normal;word-spacing:normal;text-transform:none;direction:ltr;writing-mode:lr-tb;baseline-shift:baseline;text-anchor:start;white-space:normal;clip-rule:nonzero;display:inline;overflow:visible;visibility:visible;opacity:1;isolation:auto;mix-blend-mode:normal;color-interpolation:sRGB;color-interpolation-filters:linearRGB;solid-color:#000000;solid-opacity:1;fill:#94b84f;fill-opacity:1;fill-rule:evenodd;stroke:none;stroke-width:1px;stroke-linecap:round;stroke-linejoin:round;stroke-miterlimit:4;stroke-dasharray:none;stroke-dashoffset:0;stroke-opacity:1;color-rendering:auto;image-rendering:auto;shape-rendering:auto;text-rendering:auto;enable-background:accumulate"/><path d="m -759.41797,917.34766 a 0.50004994,0.50004994 0 0 0 -0.34765,0.85937 l 3.49414,3.49414 a 0.50004994,0.50004994 0 0 0 0.70703,0 l 3.49609,-3.49414 A 0.50004994,0.50004994 0 1 0 -752.77539,917.5 l -3.14258,3.14062 -3.14062,-3.14062 a 0.50004994,0.50004994 0 0 0 -0.35938,-0.15234 z" id="path24033" style="color:#000000;font-style:normal;font-variant:normal;font-weight:normal;font-stretch:normal;font-size:medium;line-height:normal;font-family:sans-serif;text-indent:0;text-align:start;text-decoration:none;text-decoration-line:none;text-decoration-style:solid;text-decoration-color:#000000;letter-spacing:normal;word-spacing:normal;text-transform:none;direction:ltr;writing-mode:lr-tb;baseline-shift:baseline;text-anchor:start;white-space:normal;clip-rule:nonzero;display:inline;overflow:visible;visibility:visible;opacity:1;isolation:auto;mix-blend-mode:normal;color-interpolation:sRGB;color-interpolation-filters:linearRGB;solid-color:#000000;solid-opacity:1;fill:#94b84f;fill-opacity:1;fill-rule:evenodd;stroke:none;stroke-width:0.99999988px;stroke-linecap:round;stroke-linejoin:round;stroke-miterlimit:4;stroke-dasharray:none;stroke-dashoffset:0;stroke-opacity:1;color-rendering:auto;image-rendering:auto;shape-rendering:auto;text-rendering:auto;enable-background:accumulate"/></g></g></svg>