<svg xmlns="http://www.w3.org/2000/svg" viewBox="0 0 512 512"><path d="M360.699 84.66C255.997-19.74 66.994-.54 26.495 5.16c-4.2.599-6.901 1.199-7.8 1.199-3.001.3-6 2.1-8.101 4.2s-3.9 5.099-4.2 8.101c0 .899-.599 3.6-1.199 7.798-5.7 40.802-25.201 229.505 79.502 334.205 70.801 70.502 179.402 84.601 255.302 84.601 36.902 0 66.001-3.3 79.201-5.099 4.2-.601 6.601-1.201 7.5-1.201 3.001-.599 6-2.1 8.101-4.199 2.1-2.1 3.6-5.101 4.2-8.101 0-.901.599-3.3 1.199-7.5 5.4-40.199 25.202-229.502-79.501-334.504z" fill="#7bcc29"/><path d="M434.801 434.768c-2.1 2.098-5.099 3.6-8.101 4.199-.899 0-3.3.601-7.5 1.201-13.2 1.8-42.3 5.099-79.201 5.099-75.9 0-184.502-14.099-255.302-84.601C-20.007 255.964-.507 67.262 5.193 26.459c.601-4.199 1.199-6.899 1.199-7.798.3-3.001 2.1-6 4.2-8.101l424.209 424.208z" fill="#6eb825"/><path d="M359.499 194.463v150.002c0 4.2-1.8 7.8-4.2 10.8-2.999 2.401-6.599 4.2-10.8 4.2H194.496c-8.401 0-15-6.601-15-15 0-8.401 6.599-15 15-15h135.002V194.463c0-8.401 6.599-15 15-15s15.001 6.599 15.001 15z" fill="#66bd21"/><path d="M355.299 355.266c-2.999 2.401-6.599 4.2-10.8 4.2H194.496c-8.401 0-15-6.601-15-15 0-8.401 6.599-15 15-15h135.002l25.801 25.8z" fill="#5dad1d"/><path d="M269.497 102.362v152.102c0 4.2-1.8 7.8-4.2 10.8-2.999 2.401-6.599 4.2-10.8 4.2H102.395c-8.101 0-15-6.601-15-15 0-8.401 6.899-15 15-15h137.102V102.362c0-8.101 6.599-15 15-15 8.401-.001 15 6.899 15 15z" fill="#66bd21"/><path d="M265.297 265.264c-2.999 2.401-6.599 4.2-10.8 4.2H102.395c-8.101 0-15-6.601-15-15 0-8.401 6.899-15 15-15h137.102l25.8 25.8z" fill="#5dad1d"/><path d="M179.496 78.96v85.502c0 4.2-1.8 7.8-4.2 10.8-2.999 2.401-6.599 4.2-10.8 4.2h-85.5c-8.401 0-15-6.601-15-15 0-8.401 6.599-15 15-15h70.5V78.96c0-8.399 6.599-15 15-15s15 6.601 15 15z" fill="#66bd21"/><path d="M175.296 175.263c-2.999 2.401-6.599 4.2-10.8 4.2h-85.5c-8.401 0-15-6.601-15-15 0-8.401 6.599-15 15-15h70.5l25.8 25.8z" fill="#5dad1d"/><path d="M507.5 507.469c-5.7 6-15.298 6-20.999 0-86.101-86.101-9.1-9.1-481.308-481.009 0-.599 1.199-7.2 1.199-7.798.3-3.001 1.8-6 4.2-8.101 2.1-2.401 5.099-3.9 8.101-4.2.599 0 7.2-1.199 7.8-1.199C498.1 477.37 421.698 400.668 507.499 486.47c6.001 5.698 6.001 15.299.001 20.999z" fill="#66bd21"/><path d="M507.5 507.469c-5.7 6-15.298 6-20.999 0-86.101-86.101-9.1-9.1-481.308-481.009 0-.599 1.199-7.2 1.199-7.798.3-3.001 1.8-6 4.2-8.101L507.5 507.469z" fill="#5dad1d"/></svg>