<?xml version="1.0" standalone="no"?>
<!DOCTYPE svg PUBLIC "-//W3C//DTD SVG 20010904//EN"
 "http://www.w3.org/TR/2001/REC-SVG-20010904/DTD/svg10.dtd">
<svg version="1.0" xmlns="http://www.w3.org/2000/svg"
 width="700.000000pt" height="700.000000pt" viewBox="0 0 700.000000 700.000000"
 preserveAspectRatio="xMidYMid meet">
<metadata>
Created by potrace 1.14, written by Peter Selinger 2001-2017
</metadata>
<g transform="translate(0.000000,700.000000) scale(0.100000,-0.100000)"
fill="#000000" stroke="none">
<path d="M1088 6995 c-2 -2 -61 -6 -133 -10 -71 -3 -143 -8 -160 -10 -16 -2
-66 -7 -110 -10 -44 -4 -93 -8 -110 -10 -16 -2 -50 -6 -75 -9 -289 -33 -318
-41 -371 -105 -36 -44 -44 -72 -64 -231 -23 -185 -23 -188 -30 -280 -4 -47 -8
-96 -10 -109 -27 -170 -26 -1119 0 -1326 2 -16 6 -59 10 -95 8 -97 35 -308 45
-365 5 -27 12 -70 15 -95 4 -24 8 -47 10 -50 1 -3 6 -26 9 -51 3 -25 20 -108
36 -185 212 -971 642 -1721 1273 -2222 603 -478 1440 -781 2437 -881 63 -7
133 -14 155 -16 244 -26 1011 -26 1285 0 19 2 73 6 120 10 47 3 92 8 100 10 8
2 47 6 85 10 39 3 82 8 97 11 25 5 66 -33 489 -456 254 -253 477 -472 495
-486 47 -37 135 -44 190 -16 106 55 151 168 105 267 -13 27 -172 193 -490 510
l-472 470 6 57 c3 31 7 64 9 75 2 10 7 54 11 98 4 44 9 98 11 120 19 205 28
426 28 735 0 265 -9 546 -19 608 -2 13 -7 60 -10 105 -3 45 -8 99 -10 120 -17
136 -22 173 -34 257 -29 193 -58 346 -98 510 -14 58 -26 110 -27 115 -15 61
-69 244 -101 340 -122 364 -285 699 -474 975 -36 52 -69 100 -73 105 -5 6 -27
35 -50 65 -413 541 -1048 954 -1828 1189 -212 63 -538 139 -715 165 -22 4 -65
11 -95 16 -30 5 -80 12 -110 15 -30 4 -70 9 -88 11 -18 2 -56 6 -85 9 -28 3
-68 7 -87 10 -31 3 -91 9 -255 21 -62 5 -833 13 -837 9z"/>
</g>
</svg>
