<svg xmlns="http://www.w3.org/2000/svg" width="1440" height="998" viewBox="0 0 1440 998">
    <g fill="none" fill-rule="evenodd" stroke="#979797" opacity=".06">
        <path d="M1087.77 102.125C914.927 152.38 790.92 262.896 715.745 433.67 602.985 689.833 378.618 770.826 265.85 780.258c-112.768 9.433-535.598 120.267-668.67 272.941-88.715 101.783-151.124 182.837-187.229 243.16"/>
        <path d="M1106.995 96.612C934.152 146.868 810.144 257.383 734.97 428.158 622.21 684.32 397.843 765.313 285.075 774.746c-112.769 9.432-535.599 120.266-668.67 272.94-88.716 101.784-151.125 182.837-187.23 243.161"/>
        <path d="M1126.22 91.1c-172.843 50.255-296.85 160.77-372.024 331.545C641.436 678.807 417.068 759.8 304.3 769.233c-112.769 9.432-535.598 120.266-668.67 272.94-88.715 101.784-151.125 182.837-187.23 243.161"/>
        <path d="M1145.446 85.586C972.603 135.842 848.594 246.358 773.42 417.132 660.66 673.294 436.294 754.288 323.525 763.72c-112.768 9.432-535.598 120.266-668.67 272.941-88.715 101.783-151.125 182.837-187.23 243.16"/>
        <path d="M1164.671 80.074C991.828 130.33 867.82 240.845 792.646 411.62 679.886 667.782 455.519 748.775 342.75 758.207c-112.768 9.433-535.598 120.267-668.67 272.941-88.715 101.783-151.124 182.837-187.229 243.16"/>
        <path d="M1183.896 74.56c-172.843 50.257-296.851 160.772-372.025 331.547-112.76 256.162-337.127 337.155-449.895 346.588-112.769 9.432-535.599 120.266-668.67 272.94-88.716 101.784-151.125 182.837-187.23 243.161"/>
        <path d="M1203.122 69.048C1030.278 119.304 906.27 229.82 831.096 400.594 718.336 656.756 493.97 737.75 381.201 747.182c-112.769 9.432-535.599 120.266-668.67 272.94-88.715 101.784-151.125 182.837-187.23 243.161"/>
        <path d="M1222.347 63.535c-172.843 50.256-296.852 160.772-372.025 331.546-112.76 256.162-337.127 337.156-449.896 346.588-112.769 9.433-535.598 120.266-668.67 272.941-88.715 101.783-151.125 182.837-187.23 243.16"/>
        <path d="M1241.572 58.023C1068.73 108.279 944.72 218.794 869.547 389.569 756.787 645.73 532.42 726.724 419.65 736.156c-112.768 9.433-535.598 120.267-668.67 272.941-88.715 101.783-151.125 182.837-187.229 243.16"/>
        <path d="M1260.797 52.51c-172.843 50.256-296.851 160.771-372.025 331.546-112.76 256.162-337.127 337.155-449.896 346.588-112.768 9.432-535.598 120.266-668.67 272.94-88.715 101.784-151.124 182.837-187.229 243.161"/>
        <path d="M1280.023 46.997C1107.179 97.253 983.17 207.77 907.997 378.543 795.237 634.705 570.87 715.698 458.102 725.131c-112.769 9.432-535.599 120.266-668.67 272.94-88.715 101.784-151.125 182.837-187.23 243.161"/>
        <path d="M1299.248 41.484C1126.405 91.74 1002.396 202.256 927.223 373.03c-112.76 256.162-337.128 337.156-449.896 346.588-112.769 9.433-535.598 120.266-668.67 272.941-88.715 101.783-151.125 182.837-187.23 243.16"/>
        <path d="M1318.473 35.972c-172.843 50.256-296.852 160.771-372.025 331.546C833.688 623.68 609.32 704.673 496.552 714.105c-112.768 9.433-535.598 120.267-668.67 272.941-88.715 101.783-151.125 182.837-187.23 243.16"/>
        <path d="M1337.698 30.459c-172.843 50.256-296.851 160.771-372.025 331.546-112.76 256.162-337.127 337.155-449.896 346.588-112.768 9.432-535.598 120.266-668.67 272.94-88.715 101.784-151.124 182.837-187.229 243.161"/>
        <path d="M1356.923 24.946c-172.843 50.256-296.851 160.772-372.025 331.546-112.76 256.162-337.127 337.155-449.895 346.588-112.769 9.432-535.599 120.266-668.67 272.94-88.716 101.784-151.125 182.837-187.23 243.161"/>
        <path d="M1376.149 19.433c-172.843 50.256-296.852 160.772-372.025 331.546-112.76 256.162-337.128 337.156-449.896 346.588C441.459 707 18.63 817.833-114.442 970.508c-88.715 101.783-151.125 182.837-187.23 243.16"/>
        <path d="M1395.374 13.92c-172.843 50.257-296.852 160.772-372.025 331.547-112.76 256.162-337.127 337.155-449.896 346.587-112.768 9.433-535.598 120.267-668.67 272.941-88.715 101.783-151.125 182.837-187.23 243.16"/>
        <path d="M1414.6 8.408c-172.844 50.256-296.852 160.771-372.026 331.546-112.76 256.162-337.127 337.155-449.896 346.588-112.768 9.432-535.598 120.266-668.67 272.94-88.715 101.784-151.124 182.837-187.229 243.161"/>
        <path d="M1433.824 2.895c-172.843 50.256-296.851 160.772-372.025 331.546C949.04 590.603 724.672 671.596 611.904 681.03c-112.769 9.432-535.599 120.266-668.67 272.94-88.716 101.784-151.125 182.837-187.23 243.161"/>
        <path d="M1453.05-2.618c-172.844 50.256-296.852 160.772-372.025 331.546-112.76 256.162-337.128 337.156-449.896 346.588C518.36 684.95 95.53 795.782-37.541 948.457c-88.715 101.783-151.125 182.837-187.23 243.16"/>
        <path d="M1472.275-8.13c-172.843 50.256-296.852 160.771-372.025 331.546C987.49 579.578 763.123 660.57 650.354 670.003c-112.768 9.433-535.598 120.267-668.67 272.941-88.715 101.784-151.125 182.837-187.23 243.16"/>
        <path d="M1491.5-13.643c-172.843 50.256-296.851 160.771-372.025 331.546-112.76 256.162-337.127 337.155-449.896 346.588C556.811 673.923 133.981 784.757.91 937.43c-88.715 101.784-151.125 182.837-187.229 243.161"/>
        <path d="M1510.725-19.156C1337.882 31.1 1213.874 141.616 1138.7 312.39c-112.76 256.162-337.127 337.155-449.895 346.588-112.769 9.432-535.599 120.266-668.67 272.94-88.716 101.784-151.125 182.837-187.23 243.161"/>
        <path d="M1529.95-24.669c-172.843 50.256-296.851 160.772-372.025 331.546-112.76 256.162-337.127 337.156-449.895 346.588C595.26 662.898 172.43 773.731 39.36 926.406c-88.715 101.783-151.125 182.837-187.23 243.16"/>
        <path d="M1549.176-30.181c-172.843 50.256-296.852 160.771-372.025 331.546-112.76 256.162-337.128 337.155-449.896 346.587-112.769 9.433-535.598 120.267-668.67 272.941-88.715 101.784-151.125 182.837-187.23 243.16"/>
        <path d="M1568.401-35.694c-172.843 50.256-296.852 160.771-372.025 331.546-112.76 256.162-337.127 337.155-449.896 346.588-112.768 9.432-535.598 120.266-668.67 272.94-88.715 101.784-151.125 182.837-187.229 243.161"/>
        <path d="M1587.626-41.207C1414.783 9.05 1290.775 119.565 1215.601 290.34c-112.76 256.162-337.127 337.155-449.896 346.588-112.768 9.432-535.598 120.266-668.67 272.94C8.32 1011.652-54.089 1092.705-90.194 1153.029"/>
        <path d="M1606.852-46.72C1434.008 3.536 1310 114.052 1234.826 284.826 1122.066 540.988 897.7 621.982 784.931 631.414c-112.769 9.433-535.599 120.266-668.67 272.941-88.715 101.783-151.125 182.837-187.23 243.16"/>
        <path d="M1626.077-52.232c-172.843 50.256-296.852 160.771-372.025 331.546-112.76 256.162-337.128 337.155-449.896 346.587-112.769 9.433-535.598 120.267-668.67 272.941-88.715 101.784-151.125 182.837-187.23 243.16"/>
        <path d="M1645.302-57.745C1472.459-7.49 1348.45 103.026 1273.277 273.8 1160.517 529.963 936.15 610.956 823.38 620.389c-112.768 9.432-535.598 120.266-668.67 272.94C65.996 995.114 3.586 1076.167-32.52 1136.49"/>
        <path d="M1664.527-63.258c-172.843 50.256-296.851 160.772-372.025 331.546-112.76 256.162-337.127 337.155-449.896 346.588-112.768 9.432-535.598 120.266-668.67 272.94C85.221 989.6 22.812 1070.655-13.293 1130.978"/>
        <path d="M1683.752-68.77C1510.91-18.516 1386.901 92 1311.727 262.774 1198.967 518.937 974.6 599.931 861.832 609.363c-112.769 9.433-535.599 120.266-668.67 272.941-88.716 101.783-151.125 182.837-187.23 243.16"/>
        <path d="M1702.978-74.283c-172.844 50.256-296.852 160.771-372.025 331.546-112.76 256.162-337.128 337.155-449.896 346.587-112.769 9.433-535.598 120.267-668.67 272.941-88.715 101.784-151.125 182.837-187.23 243.16"/>
        <path d="M1722.203-79.796C1549.36-29.54 1425.35 80.975 1350.178 251.75c-112.76 256.162-337.127 337.155-449.896 346.588-112.768 9.432-535.598 120.266-668.67 272.94-88.715 101.784-151.125 182.837-187.23 243.161"/>
        <path d="M1741.428-85.309c-172.843 50.256-296.851 160.772-372.025 331.546-112.76 256.162-337.127 337.155-449.896 346.588-112.768 9.432-535.598 120.266-668.67 272.94-88.715 101.784-151.124 182.838-187.229 243.161"/>
        <path d="M1760.653-90.822C1587.81-40.566 1463.802 69.95 1388.628 240.724c-112.76 256.162-337.127 337.156-449.895 346.588-112.769 9.433-535.599 120.266-668.67 272.941-88.716 101.783-151.125 182.837-187.23 243.16"/>
        <path d="M1779.879-96.334c-172.844 50.256-296.852 160.771-372.026 331.546-112.76 256.162-337.127 337.155-449.895 346.587-112.769 9.433-535.598 120.267-668.67 272.941-88.715 101.784-151.125 182.837-187.23 243.16"/>
        <path d="M1799.104-101.847c-172.843 50.256-296.852 160.771-372.025 331.546-112.76 256.162-337.127 337.155-449.896 346.588-112.769 9.432-535.598 120.266-668.67 272.94-88.715 101.784-151.125 182.837-187.23 243.161"/>
        <path d="M1818.33-107.36c-172.844 50.256-296.852 160.772-372.026 331.546-112.76 256.162-337.127 337.155-449.896 346.588-112.768 9.432-535.598 120.266-668.67 272.94-88.715 101.784-151.125 182.838-187.229 243.161"/>
        <path d="M1837.554-112.873C1664.711-62.616 1540.703 47.9 1465.53 218.674c-112.76 256.161-337.127 337.155-449.896 346.587-112.768 9.433-535.598 120.266-668.67 272.941-88.715 101.783-151.124 182.837-187.229 243.16"/>
        <path d="M1856.78-118.385C1683.936-68.13 1559.928 42.386 1484.754 213.16c-112.76 256.162-337.127 337.155-449.895 346.587-112.769 9.433-535.599 120.267-668.67 272.941-88.715 101.784-151.125 182.837-187.23 243.16"/>
        <path d="M1876.005-123.898c-172.843 50.256-296.852 160.771-372.025 331.546-112.76 256.162-337.128 337.155-449.896 346.588-112.769 9.432-535.598 120.266-668.67 272.94-88.715 101.784-151.125 182.837-187.23 243.161"/>
        <path d="M1895.23-129.41c-172.843 50.255-296.852 160.77-372.025 331.545-112.76 256.162-337.127 337.155-449.896 346.588-112.768 9.432-535.598 120.266-668.67 272.94-88.715 101.784-151.125 182.838-187.23 243.161"/>
        <path d="M1914.455-134.924c-172.843 50.257-296.851 160.772-372.025 331.547-112.76 256.161-337.127 337.155-449.896 346.587-112.768 9.433-535.598 120.266-668.67 272.941-88.715 101.783-151.124 182.837-187.229 243.16"/>
        <path d="M1933.68-140.436C1760.838-90.18 1636.83 20.335 1561.656 191.11c-112.76 256.162-337.127 337.155-449.895 346.587C998.99 547.13 576.16 657.964 443.09 810.638c-88.716 101.784-151.125 182.837-187.23 243.16"/>
        <path d="M1952.906-145.949c-172.843 50.256-296.852 160.771-372.025 331.546-112.76 256.162-337.128 337.155-449.896 346.588-112.769 9.432-535.598 120.266-668.67 272.94C373.6 906.91 311.19 987.963 275.084 1048.287"/>
        <path d="M1972.131-151.462c-172.843 50.256-296.852 160.772-372.025 331.546-112.76 256.162-337.127 337.155-449.896 346.588-112.768 9.432-535.598 120.266-668.67 272.94-88.715 101.784-151.125 182.838-187.23 243.161"/>
        <path d="M1991.356-156.975c-172.843 50.257-296.851 160.772-372.025 331.547-112.76 256.162-337.127 337.155-449.896 346.587-112.768 9.433-535.598 120.266-668.67 272.941-88.715 101.783-151.124 182.837-187.229 243.16"/>
        <path d="M2010.581-162.487c-172.843 50.256-296.851 160.771-372.025 331.546-112.76 256.162-337.127 337.155-449.895 346.587-112.769 9.433-535.599 120.267-668.67 272.941-88.716 101.784-151.125 182.837-187.23 243.16"/>
        <path d="M2029.807-168c-172.844 50.256-296.852 160.771-372.025 331.546-112.76 256.162-337.128 337.155-449.896 346.588-112.769 9.432-535.598 120.266-668.67 272.94-88.715 101.784-151.125 182.837-187.23 243.161"/>
    </g>
</svg>
