<svg xmlns="http://www.w3.org/2000/svg" width="58" height="66" viewBox="0 0 58 66">
    <g fill="none" fill-rule="nonzero">
        <path fill="#00599C" d="M57.262 48.952c.455-.789.738-1.677.738-2.474V18.79c0-.797-.282-1.685-.738-2.474L29 32.634l28.262 16.318z"/>
        <path fill="#004482" d="M31.511 64.67L55.49 50.829c.69-.4 1.318-1.088 1.773-1.876L29 32.634.738 48.952c.455.788 1.083 1.477 1.773 1.876L26.49 64.67c1.38.797 3.641.797 5.022 0z"/>
        <path fill="#659AD2" d="M57.262 16.317c-.455-.788-1.083-1.477-1.773-1.876L31.51.598c-1.38-.797-3.641-.797-5.022 0L2.51 14.441C1.131 15.24 0 17.196 0 18.791v27.687c0 .797.283 1.685.738 2.474L29 32.634l28.262-16.317z"/>
        <path fill="#FFF" d="M29 51.968c-10.66 0-19.333-8.673-19.333-19.334 0-10.66 8.673-19.333 19.333-19.333 6.879 0 13.294 3.702 16.742 9.66l-8.366 4.842A9.708 9.708 0 0 0 29 22.968c-5.33 0-9.667 4.336-9.667 9.666S23.67 42.301 29 42.301c3.44 0 6.65-1.853 8.376-4.836l8.367 4.841c-3.448 5.96-9.864 9.662-16.743 9.662z"/>
        <path fill="#FFF" d="M48.333 31.56h-2.148v-2.148h-2.148v2.148H41.89v2.148h2.148v2.149h2.148v-2.149h2.148zM56.389 31.56H54.24v-2.148h-2.148v2.148h-2.149v2.148h2.149v2.149h2.148v-2.149h2.148z"/>
    </g>
</svg>
