<svg xmlns="http://www.w3.org/2000/svg" xmlns:xlink="http://www.w3.org/1999/xlink" width="86" height="87" viewBox="0 0 86 87">
    <defs>
        <path id="a" d="M.841.473h15.423v15.365H.841z"/>
        <path id="c" d="M1.26.484h11.02v10.983H1.26z"/>
        <path id="e" d="M0 88.393h85.903V2.866H0z"/>
    </defs>
    <g fill="none" fill-rule="evenodd" transform="translate(0 -2)">
        <path fill="#F16623" d="M42.953 31.386c-7.892 0-14.314 6.39-14.314 14.242 0 7.854 6.422 14.244 14.314 14.244s14.31-6.39 14.31-14.244c0-7.852-6.418-14.242-14.31-14.242m0 30.696c-9.113 0-16.524-7.381-16.524-16.454 0-9.07 7.41-16.452 16.524-16.452 9.11 0 16.523 7.381 16.523 16.452 0 9.073-7.413 16.454-16.523 16.454"/>
        <g transform="translate(34.4 2.393)">
            <mask id="b" fill="#fff">
                <use xlink:href="#a"/>
            </mask>
            <path fill="#F16623" d="M8.553 2.683c-3.036 0-5.504 2.454-5.504 5.47 0 3.018 2.468 5.472 5.504 5.472 3.035 0 5.5-2.454 5.5-5.472 0-3.016-2.465-5.47-5.5-5.47m0 13.155C4.3 15.838.84 12.392.84 8.153c0-4.235 3.46-7.68 7.712-7.68 4.251 0 7.711 3.445 7.711 7.68 0 4.24-3.46 7.685-7.711 7.685" mask="url(#b)"/>
        </g>
        <path fill="#F16623" d="M5.51 13.844a3.292 3.292 0 0 0-3.297 3.283 3.292 3.292 0 0 0 3.297 3.28c1.82 0 3.3-1.474 3.3-3.28 0-1.81-1.48-3.283-3.3-3.283m0 8.772c-3.039 0-5.51-2.462-5.51-5.49 0-3.027 2.471-5.492 5.51-5.492 3.041 0 5.512 2.465 5.512 5.493 0 3.027-2.47 5.49-5.512 5.49M12.12 35.77c-3.037 0-5.505 2.454-5.505 5.472 0 3.019 2.468 5.473 5.504 5.473 3.033 0 5.501-2.454 5.501-5.473 0-3.018-2.468-5.472-5.5-5.472m0 13.155c-4.252 0-7.712-3.446-7.712-7.683 0-4.234 3.46-7.682 7.711-7.682s7.709 3.448 7.709 7.682c0 4.237-3.458 7.683-7.709 7.683M75.986 52.393c-4.245 0-7.705 3.437-7.705 7.666 0 4.225 3.46 7.665 7.705 7.665 4.249 0 7.706-3.44 7.706-7.665 0-4.229-3.457-7.666-7.706-7.666m0 17.541c-5.463 0-9.912-4.432-9.912-9.875 0-5.447 4.449-9.876 9.912-9.876 5.467 0 9.916 4.429 9.916 9.876 0 5.443-4.449 9.875-9.916 9.875M78.19 18.231c-3.036 0-5.501 2.454-5.501 5.473 0 3.015 2.465 5.47 5.5 5.47 3.037 0 5.505-2.455 5.505-5.47 0-3.019-2.468-5.473-5.504-5.473m0 13.155c-4.251 0-7.712-3.445-7.712-7.682s3.46-7.683 7.712-7.683c4.251 0 7.711 3.446 7.711 7.683s-3.46 7.682-7.711 7.682M9.365 78.523a3.295 3.295 0 0 0-3.297 3.286c0 1.803 1.476 3.276 3.297 3.276 1.82 0 3.3-1.473 3.3-3.276a3.297 3.297 0 0 0-3.3-3.286m0 8.775c-3.04 0-5.51-2.468-5.51-5.49 0-3.03 2.47-5.495 5.51-5.495 3.041 0 5.51 2.466 5.51 5.496 0 3.021-2.469 5.49-5.51 5.49M34.143 68.658c-3.036 0-5.504 2.454-5.504 5.473 0 3.018 2.468 5.472 5.504 5.472 3.036 0 5.501-2.454 5.501-5.472 0-3.019-2.465-5.473-5.501-5.473m0 13.155c-4.251 0-7.711-3.445-7.711-7.682 0-4.234 3.46-7.683 7.71-7.683 4.252 0 7.712 3.449 7.712 7.683 0 4.237-3.46 7.682-7.711 7.682"/>
        <g transform="translate(51.6 76.927)">
            <mask id="d" fill="#fff">
                <use xlink:href="#c"/>
            </mask>
            <path fill="#F16623" d="M6.77 2.694c-1.821 0-3.3 1.47-3.3 3.285 0 1.803 1.479 3.274 3.3 3.274 1.82 0 3.296-1.47 3.296-3.274a3.291 3.291 0 0 0-3.297-3.285m0 8.775c-3.038 0-5.51-2.468-5.51-5.49C1.26 2.946 3.732.484 6.77.484c3.039 0 5.51 2.462 5.51 5.495 0 3.022-2.471 5.49-5.51 5.49" mask="url(#d)"/>
        </g>
        <path fill="#F16623" d="M31.313 35.8L8.695 20.227l1.252-1.817L32.565 33.98z"/>
        <mask id="f" fill="#fff">
            <use xlink:href="#e"/>
        </mask>
        <path fill="#F16623" d="M41.69 30.728h2.21V17.466h-2.21zM56.71 38.684l-1.087-1.926 17.11-9.632 1.087 1.926zM67.224 57.816l-10.32-6.052 1.121-1.906 10.32 6.051zM55.147 79.531l-7.955-19.049 2.041-.848 7.952 19.046zM36.293 67.897l-2.099-.685 2.449-7.497 2.1.688zM12.95 79.834l-1.665-1.454 19.82-22.74 1.669 1.45zM27.595 44.535l-9.116-.82.2-2.201 9.114.82zM42.12 55.189c.578.06 1.086.06 1.665 0l.37-1.669a.997.997 0 0 1 .705-.745 6.945 6.945 0 0 0 1.493-.62c.324-.18.72-.168 1.032.032l1.436.915c.425-.356.82-.751 1.176-1.178l-.918-1.437a1.01 1.01 0 0 1-.025-1.029c.258-.461.467-.966.616-1.496.1-.353.387-.625.745-.705l1.669-.37a7.687 7.687 0 0 0 0-1.663l-1.669-.37a.996.996 0 0 1-.745-.705 6.984 6.984 0 0 0-.616-1.499c-.181-.321-.17-.717.025-1.026l.918-1.436a9.708 9.708 0 0 0-1.176-1.179l-1.436.915c-.312.2-.708.209-1.029.031a6.877 6.877 0 0 0-1.496-.616c-.356-.1-.625-.39-.706-.748l-.37-1.669a7.703 7.703 0 0 0-1.665 0l-.37 1.669c-.077.358-.35.648-.702.748a6.784 6.784 0 0 0-1.5.616 1 1 0 0 1-1.026-.031l-1.436-.912a9.313 9.313 0 0 0-1.178 1.176l.914 1.436c.198.31.21.705.032 1.026-.26.464-.467.969-.62 1.5a.996.996 0 0 1-.747.704l-1.669.37c-.026.29-.043.565-.043.832 0 .266.017.541.043.83l1.669.37c.36.081.647.353.748.706a7.03 7.03 0 0 0 .619 1.496c.178.324.166.717-.032 1.03l-.914 1.436c.355.427.751.82 1.178 1.178l1.436-.915a.993.993 0 0 1 1.027-.031c.464.26.969.467 1.499.619.353.1.625.384.702.745l.37 1.669zm.833 2.05c-.501 0-1.015-.04-1.568-.121a1.36 1.36 0 0 1-1.124-1.05l-.344-1.553a8.899 8.899 0 0 1-.802-.33l-1.342.855a1.366 1.366 0 0 1-1.545-.06 11.11 11.11 0 0 1-2.199-2.202 1.356 1.356 0 0 1-.06-1.542l.854-1.342a8.622 8.622 0 0 1-.33-.805l-1.556-.344a1.36 1.36 0 0 1-1.05-1.121c-.08-.56-.12-1.07-.12-1.568 0-.496.04-1.01.12-1.566a1.367 1.367 0 0 1 1.053-1.126l1.554-.344c.097-.273.206-.542.33-.803l-.855-1.341a1.356 1.356 0 0 1 .06-1.543 11.11 11.11 0 0 1 2.2-2.201 1.366 1.366 0 0 1 1.544-.06l1.342.854c.26-.12.53-.232.802-.33l.344-1.554a1.36 1.36 0 0 1 1.124-1.049c1.112-.16 2.021-.16 3.133 0 .55.083 1.004.502 1.124 1.05l.344 1.553c.275.098.545.21.806.33l1.336-.855a1.37 1.37 0 0 1 1.548.06c.834.628 1.57 1.368 2.201 2.202.336.447.361 1.067.06 1.543l-.854 1.341c.12.261.232.53.33.803l1.554.344c.544.12.966.576 1.046 1.126.083.557.12 1.07.12 1.566s-.037 1.006-.12 1.568c-.078.55-.502 1-1.046 1.12l-1.554.345a9.48 9.48 0 0 1-.33.805l.854 1.342a1.366 1.366 0 0 1-.06 1.542 11.202 11.202 0 0 1-2.201 2.202c-.45.338-1.07.36-1.546.06l-1.338-.855c-.261.124-.53.233-.806.33l-.344 1.557a1.36 1.36 0 0 1-1.124 1.046c-.556.08-1.066.12-1.565.12z" mask="url(#f)"/>
    </g>
</svg>
