<svg xmlns="http://www.w3.org/2000/svg" width="56" height="76" viewBox="0 0 56 76">
    <g fill="none" fill-rule="nonzero">
        <path fill="#5382A1" d="M18.059 58.51s-2.887 1.679 2.054 2.247c5.987.683 9.047.585 15.645-.664 0 0 1.734 1.088 4.157 2.03-14.79 6.339-33.473-.367-21.856-3.613M16.251 50.238s-3.238 2.397 1.708 2.908c6.395.66 11.446.714 20.185-.969 0 0 1.209 1.226 3.11 1.896-17.882 5.229-37.8.412-25.003-3.835"/>
        <path fill="#E76F00" d="M31.487 36.206c3.645 4.196-.957 7.972-.957 7.972s9.253-4.777 5.004-10.759c-3.97-5.578-7.013-8.35 9.464-17.907 0 0-25.864 6.46-13.51 20.694"/>
        <path fill="#5382A1" d="M51.048 64.628s2.137 1.76-2.353 3.122c-8.537 2.586-35.532 3.367-43.03.103-2.697-1.172 2.359-2.8 3.949-3.141 1.658-.36 2.606-.293 2.606-.293-2.998-2.112-19.377 4.147-8.32 5.94 30.155 4.89 54.97-2.203 47.148-5.731M19.447 41.667s-13.731 3.262-4.863 4.446c3.745.502 11.21.388 18.163-.194 5.683-.48 11.39-1.499 11.39-1.499s-2.005.858-3.454 1.848C26.739 49.935-.2 48.229 7.556 44.478c6.559-3.17 11.891-2.81 11.891-2.81M44.08 55.436c14.174-7.366 7.62-14.444 3.046-13.49-1.121.233-1.621.435-1.621.435s.416-.652 1.211-.934c9.05-3.182 16.01 9.384-2.921 14.36 0 0 .219-.196.285-.37"/>
        <path fill="#E76F00" d="M35.534.081s7.85 7.853-7.446 19.929c-12.266 9.686-2.797 15.21-.005 21.52-7.16-6.46-12.414-12.147-8.89-17.44 5.175-7.768 19.508-11.535 16.34-24.009"/>
        <path fill="#5382A1" d="M20.84 75.396c13.606.87 34.5-.484 34.994-6.922 0 0-.95 2.44-11.244 4.38-11.613 2.185-25.936 1.93-34.431.529 0 0 1.739 1.44 10.68 2.013"/>
    </g>
</svg>
