<svg xmlns="http://www.w3.org/2000/svg" width="1440" height="519" viewBox="0 0 1440 519">
    <g fill="none" fill-rule="evenodd" stroke="#979797" opacity=".104">
        <path d="M186.834 10.225c177.381-30.6 337.277 14.316 479.687 134.75 213.615 180.65 450.777 155.08 556.27 114.139 105.494-40.94 534.119-126.673 720.637-47.865 124.346 52.54 215.963 97.987 274.852 136.344"/>
        <path d="M167.138 13.698c177.381-30.6 337.277 14.316 479.687 134.75 213.615 180.65 450.777 155.08 556.27 114.139 105.494-40.941 534.119-126.673 720.637-47.865 124.346 52.54 215.963 97.987 274.852 136.344"/>
        <path d="M147.442 17.17c177.381-30.6 337.277 14.317 479.687 134.751 213.615 180.65 450.777 155.08 556.27 114.139 105.494-40.941 534.118-126.673 720.637-47.865 124.346 52.54 215.963 97.987 274.852 136.344"/>
        <path d="M127.746 20.644c177.38-30.6 337.276 14.316 479.686 134.75 213.615 180.65 450.778 155.08 556.271 114.139 105.494-40.941 534.118-126.673 720.637-47.865 124.346 52.54 215.963 97.987 274.851 136.344"/>
        <path d="M108.05 24.117c177.38-30.6 337.276 14.316 479.686 134.75 213.615 180.65 450.778 155.08 556.271 114.139 105.494-40.941 534.118-126.673 720.637-47.865 124.346 52.54 215.963 97.987 274.851 136.344"/>
        <path d="M88.353 27.59C265.735-3.01 425.63 41.906 568.04 162.34c213.615 180.65 450.778 155.08 556.271 114.139 105.494-40.941 534.118-126.673 720.637-47.865 124.345 52.54 215.963 97.987 274.851 136.344"/>
        <path d="M68.657 31.063c177.381-30.6 337.277 14.316 479.687 134.75 213.615 180.65 450.778 155.08 556.271 114.139 105.493-40.941 534.118-126.673 720.636-47.865 124.346 52.54 215.963 97.987 274.852 136.344"/>
        <path d="M48.961 34.536c177.381-30.6 337.277 14.316 479.687 134.75 213.615 180.65 450.777 155.08 556.27 114.139 105.494-40.941 534.119-126.674 720.637-47.865 124.346 52.54 215.963 97.987 274.852 136.344"/>
        <path d="M29.265 38.008c177.381-30.6 337.277 14.317 479.687 134.75 213.615 180.652 450.777 155.08 556.27 114.14 105.494-40.941 534.119-126.674 720.637-47.865 124.346 52.54 215.963 97.987 274.852 136.344"/>
        <path d="M9.569 41.481c177.381-30.6 337.277 14.317 479.687 134.75 213.614 180.652 450.777 155.08 556.27 114.14 105.494-40.941 534.118-126.674 720.637-47.865 124.346 52.54 215.963 97.987 274.851 136.344"/>
        <path d="M-10.127 44.954c177.38-30.6 337.276 14.317 479.686 134.75 213.615 180.651 450.778 155.08 556.271 114.14 105.494-40.941 534.118-126.674 720.637-47.865 124.346 52.54 215.963 97.987 274.851 136.344"/>
        <path d="M-29.823 48.427c177.38-30.6 337.276 14.317 479.686 134.75 213.615 180.651 450.778 155.08 556.271 114.14 105.494-40.941 534.118-126.674 720.637-47.865 124.345 52.54 215.963 97.987 274.851 136.344"/>
        <path d="M-49.52 51.9c177.382-30.6 337.277 14.317 479.687 134.75 213.615 180.651 450.778 155.08 556.271 114.14 105.493-40.941 534.118-126.674 720.637-47.865 124.345 52.54 215.962 97.987 274.851 136.344"/>
        <path d="M-69.216 55.373c177.381-30.6 337.277 14.317 479.687 134.75 213.615 180.651 450.777 155.08 556.27 114.14 105.494-40.941 534.119-126.674 720.637-47.865 124.346 52.539 215.963 97.987 274.852 136.344"/>
        <path d="M-88.912 58.846c177.381-30.6 337.277 14.317 479.687 134.75 213.615 180.651 450.777 155.08 556.27 114.14 105.494-40.941 534.119-126.674 720.637-47.865 124.346 52.539 215.963 97.987 274.852 136.344"/>
        <path d="M-108.608 62.32c177.381-30.6 337.277 14.316 479.687 134.75 213.615 180.65 450.777 155.079 556.27 114.138 105.494-40.94 534.118-126.673 720.637-47.864 124.346 52.539 215.963 97.987 274.852 136.344"/>
        <path d="M-128.304 65.792c177.38-30.6 337.276 14.317 479.686 134.75 213.615 180.651 450.778 155.08 556.271 114.14 105.494-40.942 534.118-126.674 720.637-47.865 124.346 52.539 215.963 97.987 274.851 136.344"/>
        <path d="M-148 69.265c177.38-30.6 337.276 14.317 479.686 134.75 213.615 180.651 450.778 155.08 556.271 114.14 105.494-40.942 534.118-126.674 720.637-47.865 124.346 52.539 215.963 97.987 274.851 136.344"/>
        <path d="M-167.697 72.738C9.685 42.138 169.58 87.055 311.99 207.488c213.615 180.651 450.778 155.08 556.271 114.14 105.493-40.942 534.118-126.674 720.637-47.865 124.345 52.539 215.963 97.987 274.851 136.344"/>
        <path d="M-187.393 76.211c177.381-30.6 337.277 14.317 479.687 134.75 213.615 180.651 450.778 155.08 556.27 114.14 105.494-40.942 534.119-126.674 720.637-47.865 124.346 52.539 215.963 97.987 274.852 136.344"/>
        <path d="M-207.089 79.684c177.381-30.6 337.277 14.317 479.687 134.75 213.615 180.651 450.777 155.08 556.27 114.14 105.494-40.942 534.119-126.674 720.637-47.865 124.346 52.539 215.963 97.987 274.852 136.344"/>
        <path d="M-226.785 83.157c177.381-30.6 337.277 14.317 479.687 134.75 213.615 180.651 450.777 155.08 556.27 114.139 105.494-40.94 534.119-126.673 720.637-47.864 124.346 52.539 215.963 97.987 274.852 136.344"/>
        <path d="M-246.481 86.63C-69.1 56.03 90.796 100.947 233.206 221.38 446.82 402.031 683.983 376.46 789.476 335.52c105.494-40.94 534.118-126.673 720.637-47.864 124.346 52.539 215.963 97.987 274.851 136.344"/>
        <path d="M-266.177 90.103c177.38-30.6 337.276 14.317 479.686 134.75 213.615 180.651 450.778 155.08 556.271 114.139 105.494-40.94 534.118-126.673 720.637-47.864 124.346 52.539 215.963 97.987 274.851 136.343"/>
        <path d="M-285.873 93.576c177.38-30.6 337.276 14.317 479.686 134.75 213.615 180.651 450.778 155.08 556.271 114.139 105.494-40.94 534.118-126.673 720.637-47.864 124.345 52.539 215.963 97.987 274.851 136.343"/>
        <path d="M-305.57 97.049c177.382-30.6 337.277 14.317 479.687 134.75 213.615 180.65 450.778 155.08 556.271 114.139 105.493-40.94 534.118-126.673 720.637-47.865 124.345 52.54 215.962 97.988 274.851 136.344"/>
        <path d="M-325.266 100.522c177.381-30.6 337.277 14.316 479.687 134.75 213.615 180.65 450.777 155.08 556.27 114.139 105.494-40.94 534.119-126.673 720.637-47.865 124.346 52.54 215.963 97.988 274.852 136.344"/>
        <path d="M-344.962 103.995c177.381-30.6 337.277 14.316 479.687 134.75 213.615 180.65 450.777 155.08 556.27 114.139 105.494-40.94 534.119-126.673 720.637-47.865 124.346 52.54 215.963 97.987 274.852 136.344"/>
        <path d="M-364.658 107.468c177.381-30.6 337.277 14.316 479.687 134.75 213.615 180.65 450.777 155.08 556.27 114.139 105.494-40.941 534.118-126.673 720.637-47.865 124.346 52.54 215.963 97.987 274.852 136.344"/>
        <path d="M-384.354 110.94c177.38-30.6 337.276 14.317 479.686 134.751 213.615 180.65 450.778 155.08 556.271 114.139 105.494-40.941 534.118-126.673 720.637-47.865 124.346 52.54 215.963 97.987 274.851 136.344"/>
        <path d="M-404.05 114.414c177.38-30.6 337.276 14.316 479.686 134.75 213.615 180.65 450.778 155.08 556.271 114.139 105.494-40.941 534.118-126.673 720.637-47.865 124.345 52.54 215.963 97.987 274.851 136.344"/>
        <path d="M-423.747 117.887c177.382-30.6 337.277 14.316 479.687 134.75 213.615 180.65 450.778 155.08 556.271 114.139 105.493-40.941 534.118-126.673 720.637-47.865 124.345 52.54 215.963 97.987 274.851 136.344"/>
        <path d="M-443.443 121.36c177.381-30.6 337.277 14.316 479.687 134.75 213.615 180.65 450.778 155.08 556.27 114.139 105.494-40.941 534.119-126.673 720.637-47.865 124.346 52.54 215.963 97.987 274.852 136.344"/>
        <path d="M-463.139 124.833c177.381-30.6 337.277 14.316 479.687 134.75 213.615 180.65 450.777 155.08 556.27 114.139 105.494-40.941 534.119-126.673 720.637-47.865 124.346 52.54 215.963 97.987 274.852 136.344"/>
        <path d="M-482.835 128.306c177.381-30.6 337.277 14.316 479.687 134.75 213.615 180.65 450.777 155.08 556.27 114.139 105.494-40.941 534.119-126.674 720.637-47.865 124.346 52.54 215.963 97.987 274.852 136.344"/>
        <path d="M-502.531 131.778c177.381-30.6 337.277 14.317 479.686 134.75 213.615 180.652 450.778 155.08 556.271 114.14 105.494-40.941 534.118-126.674 720.637-47.865 124.346 52.54 215.963 97.987 274.851 136.344"/>
        <path d="M-522.227 135.251c177.38-30.6 337.276 14.317 479.686 134.75 213.615 180.652 450.778 155.08 556.271 114.14 105.494-40.941 534.118-126.674 720.637-47.865 124.346 52.54 215.963 97.987 274.851 136.344"/>
        <path d="M-541.924 138.724c177.382-30.6 337.277 14.317 479.687 134.75 213.615 180.651 450.778 155.08 556.271 114.14 105.494-40.941 534.118-126.674 720.637-47.865 124.345 52.54 215.963 97.987 274.851 136.344"/>
        <path d="M-561.62 142.197c177.381-30.6 337.277 14.317 479.687 134.75 213.615 180.651 450.778 155.08 556.271 114.14 105.493-40.941 534.118-126.674 720.637-47.865 124.345 52.54 215.962 97.987 274.851 136.344"/>
        <path d="M-581.316 145.67c177.381-30.6 337.277 14.317 479.687 134.75C111.986 461.072 349.148 435.5 454.64 394.56c105.494-40.941 534.119-126.674 720.637-47.865 124.346 52.54 215.963 97.987 274.852 136.344"/>
        <path d="M-601.012 149.143c177.381-30.6 337.277 14.317 479.687 134.75 213.615 180.651 450.777 155.08 556.27 114.14 105.494-40.941 534.119-126.674 720.637-47.865 124.346 52.54 215.963 97.987 274.852 136.344"/>
        <path d="M-620.708 152.616c177.381-30.6 337.277 14.317 479.687 134.75 213.615 180.651 450.777 155.08 556.27 114.14 105.494-40.941 534.118-126.674 720.637-47.865 124.346 52.539 215.963 97.987 274.852 136.344"/>
        <path d="M-640.404 156.09c177.38-30.6 337.276 14.316 479.686 134.75C52.897 471.49 290.06 445.919 395.553 404.978c105.494-40.94 534.118-126.673 720.637-47.864 124.346 52.539 215.963 97.987 274.851 136.344"/>
        <path d="M-660.1 159.562c177.38-30.6 337.276 14.317 479.686 134.75 213.615 180.651 450.778 155.08 556.271 114.14 105.494-40.941 534.118-126.674 720.637-47.865 124.345 52.539 215.963 97.987 274.851 136.344"/>
        <path d="M-679.797 163.035c177.382-30.6 337.277 14.317 479.687 134.75 213.615 180.651 450.778 155.08 556.271 114.14 105.493-40.942 534.118-126.674 720.637-47.865 124.345 52.539 215.962 97.987 274.851 136.344"/>
        <path d="M-699.493 166.508c177.381-30.6 337.277 14.317 479.687 134.75 213.615 180.651 450.778 155.08 556.27 114.14 105.494-40.942 534.119-126.674 720.637-47.865 124.346 52.539 215.963 97.987 274.852 136.344"/>
        <path d="M-719.189 169.981c177.381-30.6 337.277 14.317 479.687 134.75 213.615 180.651 450.777 155.08 556.27 114.14 105.494-40.942 534.119-126.674 720.637-47.865 124.346 52.539 215.963 97.987 274.852 136.344"/>
        <path d="M-738.885 173.454c177.381-30.6 337.277 14.317 479.687 134.75 213.615 180.651 450.777 155.08 556.27 114.14 105.494-40.942 534.119-126.674 720.637-47.865 124.346 52.539 215.963 97.987 274.852 136.344"/>
        <path d="M-758.581 176.927c177.38-30.6 337.277 14.317 479.686 134.75 213.615 180.651 450.778 155.08 556.271 114.139 105.494-40.94 534.118-126.673 720.637-47.864 124.346 52.539 215.963 97.987 274.851 136.344"/>
        <path d="M-778.277 180.4c177.38-30.6 337.276 14.317 479.686 134.75C-84.976 495.801 152.187 470.23 257.68 429.29c105.494-40.94 534.118-126.673 720.637-47.864 124.346 52.539 215.963 97.987 274.851 136.344"/>
    </g>
</svg>
