<?xml version="1.0" encoding="UTF-8" standalone="no"?>
<svg
   xmlns:dc="http://purl.org/dc/elements/1.1/"
   xmlns:cc="http://creativecommons.org/ns#"
   xmlns:rdf="http://www.w3.org/1999/02/22-rdf-syntax-ns#"
   xmlns:svg="http://www.w3.org/2000/svg"
   xmlns="http://www.w3.org/2000/svg"
   xmlns:xlink="http://www.w3.org/1999/xlink"
   xmlns:sodipodi="http://sodipodi.sourceforge.net/DTD/sodipodi-0.dtd"
   xmlns:inkscape="http://www.inkscape.org/namespaces/inkscape"
   width="177.42053"
   height="229.022"
   viewBox="0 0 177.42053 229.022"
   version="1.1"
   id="svg24"
   sodipodi:docname="piece-of-paper-with-folded-top-right-corner.svg"
   inkscape:version="0.92.1 r15371">
  <metadata
     id="metadata28">
    <rdf:RDF>
      <cc:Work
         rdf:about="">
        <dc:format>image/svg+xml</dc:format>
        <dc:type
           rdf:resource="http://purl.org/dc/dcmitype/StillImage" />
        <dc:title></dc:title>
      </cc:Work>
    </rdf:RDF>
  </metadata>
  <sodipodi:namedview
     pagecolor="#ffffff"
     bordercolor="#666666"
     borderopacity="1"
     objecttolerance="10"
     gridtolerance="10"
     guidetolerance="10"
     inkscape:pageopacity="0"
     inkscape:pageshadow="2"
     inkscape:window-width="2482"
     inkscape:window-height="1057"
     id="namedview26"
     showgrid="false"
     fit-margin-top="0"
     fit-margin-left="0"
     fit-margin-right="0"
     fit-margin-bottom="0"
     inkscape:zoom="1.026087"
     inkscape:cx="89"
     inkscape:cy="114.946"
     inkscape:window-x="-8"
     inkscape:window-y="-8"
     inkscape:window-maximized="1"
     inkscape:current-layer="svg24" />
  <defs
     id="defs4">
    <path
       id="a"
       d="M 0,6.37 H 177.418 V 235.385 H 0 Z"
       inkscape:connector-curvature="0" />
    <path
       id="c"
       d="m 1.588,6.374 h 65.06 V 71.43 H 1.588 Z"
       inkscape:connector-curvature="0" />
  </defs>
  <g
     id="g22"
     style="fill:none;fill-rule:evenodd"
     transform="translate(0,-0.92398933)">
    <g
       transform="translate(0,-5.446)"
       id="g11">
      <mask
         id="b"
         fill="#fff">
        <use
           xlink:href="#a"
           id="use6"
           x="0"
           y="0"
           width="100%"
           height="100%" />
      </mask>
      <path
         d="m 7.027,11.692 c -0.942,0 -1.703,0.762 -1.703,1.703 v 214.962 c 0,0.942 0.761,1.703 1.703,1.703 h 163.37 c 0.935,0 1.704,-0.761 1.704,-1.703 V 69.867 L 113.919,11.692 Z m 163.37,223.699 H 7.028 C 3.15,235.39 0,232.227 0,228.357 V 13.395 C 0,9.532 3.15,6.37 7.027,6.37 h 108 a 2.64,2.64 0 0 1 1.883,0.782 l 59.732,59.732 c 0.492,0.499 0.776,1.184 0.776,1.883 v 159.591 c 0,3.87 -3.15,7.034 -7.02,7.034 z"
         mask="url(#b)"
         id="path9"
         inkscape:connector-curvature="0"
         style="fill:#ffffff" />
    </g>
    <g
       transform="translate(110.77,-5.446)"
       id="g18">
      <mask
         id="d"
         fill="#fff">
        <use
           xlink:href="#c"
           id="use13"
           x="0"
           y="0"
           width="100%"
           height="100%" />
      </mask>
      <path
         d="m 6.919,15.458 v 48.94 c 0,0.94 0.761,1.702 1.703,1.702 h 48.94 L 6.918,15.458 Z M 63.986,71.43 H 8.622 c -3.87,0 -7.034,-3.157 -7.034,-7.034 V 9.033 c 0,-1.08 0.65,-2.049 1.648,-2.457 A 2.68,2.68 0 0 1 6.144,7.15 l 59.732,59.732 c 0.754,0.762 0.983,1.904 0.574,2.915 a 2.69,2.69 0 0 1 -2.464,1.634 z"
         mask="url(#d)"
         id="path16"
         inkscape:connector-curvature="0"
         style="fill:#ffffff" />
    </g>
    <path
       d="M 88.71,46.81 H 33.978 a 2.671,2.671 0 0 1 -2.665,-2.665 2.671,2.671 0 0 1 2.665,-2.665 h 54.734 a 2.671,2.671 0 0 1 2.665,2.665 2.671,2.671 0 0 1 -2.665,2.666 m 11.702,30.674 h -66.44 a 2.6655,2.6655 0 0 1 0,-5.331 h 66.44 a 2.671,2.671 0 0 1 2.666,2.665 2.671,2.671 0 0 1 -2.666,2.666 m 44.473,30.667 H 33.972 a 2.67,2.67 0 0 1 -2.658,-2.666 2.67,2.67 0 0 1 2.658,-2.665 h 110.915 a 2.667,2.667 0 0 1 0,5.33 m 0,61.335 H 33.972 a 2.67,2.67 0 0 1 -2.658,-2.665 2.67,2.67 0 0 1 2.658,-2.666 h 110.915 a 2.667,2.667 0 0 1 0,5.331 m 0,-30.667 H 33.972 a 2.67,2.67 0 0 1 -2.658,-2.665 2.67,2.67 0 0 1 2.658,-2.666 h 110.915 a 2.667,2.667 0 0 1 0,5.331 m 0,61.334 H 89.433 a 2.671,2.671 0 0 1 -2.665,-2.665 2.671,2.671 0 0 1 2.665,-2.665 h 55.454 a 2.667,2.667 0 0 1 0,5.33"
       id="path20"
       inkscape:connector-curvature="0"
       style="fill:#ffffff" />
  </g>
</svg>
