<?xml version="1.0" encoding="UTF-8"?>
<svg width="18px" height="19px" viewBox="0 0 18 19" version="1.1" xmlns="http://www.w3.org/2000/svg" xmlns:xlink="http://www.w3.org/1999/xlink">
    <!-- Generator: sketchtool 53.2 (72643) - https://sketchapp.com -->
    <title>76A07A59-5A01-45B5-86ED-1007B13A770C</title>
    <desc>Created with sketchtool.</desc>
    <g id="Page-1" stroke="none" stroke-width="1" fill="none" fill-rule="evenodd">
        <g id="Article-320" transform="translate(-248.000000, -22.000000)" fill="#333" fill-rule="nonzero">
            <g id="screen">
                <g id="GitHub-icon" transform="translate(248.000000, 19.000000)">
                    <path d="M6.6146307,16.2292614 C2.96147085,16.2292614 0,13.2677905 0,9.6146307 C0,5.96147085 2.96147085,3 6.6146307,3 C10.2677905,3 13.2292614,5.96147085 13.2292614,9.6146307 C13.2292614,11.4412106 12.4888937,13.0948683 11.291881,14.291881 L17.8421457,20.9358099 C18.0561908,21.149855 18.0509881,21.4930606 17.8360963,21.7079524 C17.6197064,21.9243423 17.2755046,21.9255525 17.0639538,21.7140017 L10.4488725,15.0052562 C9.36728942,15.7759493 8.04389847,16.2292614 6.6146307,16.2292614 Z M6.6146307,15.4510695 C9.83800701,15.4510695 12.4510695,12.838007 12.4510695,9.6146307 C12.4510695,6.39125437 9.83800701,3.77819185 6.6146307,3.77819185 C3.39125439,3.77819185 0.778191847,6.39125437 0.778191847,9.6146307 C0.778191847,12.838007 3.39125439,15.4510695 6.6146307,15.4510695 L6.6146307,15.4510695 Z" id="Search"></path>
                </g>
            </g>
        </g>
    </g>
</svg>