<svg xmlns="http://www.w3.org/2000/svg" width="18" height="8" viewBox="0 0 18 8">
    <g fill="currentColor" fill-rule="nonzero">
        <path d="M.562 1.241l.876-.482A8.577 8.577 0 0 0 8.96 5.193 8.55 8.55 0 0 0 16.481.76l.878.48A9.55 9.55 0 0 1 8.96 6.193 9.577 9.577 0 0 1 .562 1.241z"/>
        <path d="M1.59 4.936c-.155.21-.427.32-.65.157-.222-.163-.198-.456-.043-.667l1.137-1.545c.155-.21.427-.32.65-.157.222.164.198.457.043.667L1.59 4.936zM3.792 6.545c-.136.223-.398.356-.633.212-.236-.144-.237-.439-.1-.661l1-1.637c.136-.223.399-.356.634-.212.236.144.237.439.1.66l-1 1.638zM5.862 7.834c-.254-.106-.3-.397-.2-.637l.741-1.77c.101-.242.34-.413.594-.306.255.107.3.397.2.637l-.74 1.77c-.102.242-.34.413-.595.306zM16.484 5.229l-1.137-1.546c-.155-.21-.179-.503.044-.667.223-.162.494-.053.65.158l1.136 1.545c.155.21.18.503-.043.667-.223.163-.495.053-.65-.157zM14.282 6.838l-1-1.637c-.138-.223-.137-.517.099-.661.236-.144.497-.011.634.212l1 1.636c.137.223.136.518-.1.661-.235.144-.497.012-.633-.211zM11.575 7.574l-.74-1.77c-.101-.24-.056-.53.2-.638.254-.106.492.064.594.306l.74 1.77c.1.24.055.53-.2.637-.254.107-.493-.063-.594-.305z"/>
    </g>
</svg>
