<svg xmlns="http://www.w3.org/2000/svg" width="18" height="12" viewBox="0 0 18 12">
    <g fill="currentColor" fill-rule="evenodd" transform="translate(1 1)">
        <path fill-rule="nonzero" d="M16.428 5.418a9.567 9.567 0 0 1-8.402 4.95A9.566 9.566 0 0 1-.375 5.418a1.008 1.008 0 0 1 0-.97C1.295 1.405 4.505-.533 8.03-.5c2.576.025 4.734 1.039 6.439 2.694 1.219 1.183 2.214 2.756 1.96 3.224zm-1.29-.838a9.278 9.278 0 0 0-1.366-1.669C12.241 1.425 10.32.523 8.021.501 4.869.47 1.997 2.204.5 4.93a8.557 8.557 0 0 0 7.525 4.437c3.1 0 5.905-1.642 7.419-4.241a5.366 5.366 0 0 0-.307-.546z"/>
        <path fill-rule="nonzero" d="M8 9.517a4.5 4.5 0 1 1 0-9 4.5 4.5 0 0 1 0 9zm0-1a3.5 3.5 0 1 0 0-7 3.5 3.5 0 0 0 0 7z"/>
        <circle cx="8" cy="5" r="2"/>
    </g>
</svg>
