<svg id='queries-icon' xmlns="http://www.w3.org/2000/svg" viewBox="0 0 18 15"><path fill="currentColor" d="M5.809 8.288a.489.489 0 0 0-.19-.415c-.128-.096-.356-.197-.686-.304a4.86 4.86 0 0 1-.784-.316c-.525-.284-.787-.666-.787-1.146 0-.25.07-.472.21-.668.142-.196.344-.349.607-.459.264-.11.56-.165.887-.165.33 0 .624.06.882.18.259.12.46.288.602.506.143.218.214.465.214.743h-.952c0-.212-.067-.376-.2-.494-.133-.117-.32-.176-.562-.176-.232 0-.413.05-.542.148a.466.466 0 0 0-.194.388c0 .15.076.276.227.378.151.102.374.197.668.286.542.163.936.365 1.184.606.247.241.371.542.371.901 0 .4-.151.714-.454.941-.302.228-.71.341-1.222.341a2.36 2.36 0 0 1-.97-.195 1.537 1.537 0 0 1-.669-.535 1.37 1.37 0 0 1-.23-.787h.955c0 .51.305.765.914.765.227 0 .403-.046.53-.138a.45.45 0 0 0 .19-.385zm5.389-.994c0 .432-.07.807-.21 1.125a1.94 1.94 0 0 1-.58.767l.768.603-.606.536-.984-.79a2.083 2.083 0 0 1-.35.028c-.382 0-.724-.092-1.025-.276a1.834 1.834 0 0 1-.698-.788 2.71 2.71 0 0 1-.25-1.18v-.228c0-.455.081-.855.245-1.201.164-.346.396-.612.695-.797.3-.185.642-.278 1.027-.278.385 0 .728.093 1.027.278.3.185.531.45.695.797.164.346.246.745.246 1.198v.206zm-.965-.21c0-.484-.087-.852-.26-1.104-.174-.252-.421-.377-.743-.377-.32 0-.566.124-.74.372-.173.25-.26.614-.263 1.094v.225c0 .472.087.838.26 1.098.174.26.424.39.75.39.32 0 .565-.125.736-.375.171-.251.258-.617.26-1.097v-.225zm2.615 1.651h2.022V9.5h-2.974V4.879h.952v3.856zM16.364 0H1.636C.736 0 0 .72 0 1.6v11.2c0 .88.736 1.6 1.636 1.6h14.728c.9 0 1.636-.72 1.636-1.6V1.6c0-.88-.736-1.6-1.636-1.6zM1.636 1.592h14.728v11.216H1.636V1.592z"/></svg>