<svg xmlns="http://www.w3.org/2000/svg" width="57" height="57" viewBox="0 0 57 57">
    <g fill="none" fill-rule="nonzero">
        <path fill="#672572" d="M.118.118h56.763v56.763H.118z"/>
        <g fill="#FFF">
            <path d="M36.649 21.809c.29-.258.436-.58.436-.967 0-.353-.117-.644-.348-.872-.177-.18-.47-.357-.876-.526-.361-.153-.6-.286-.714-.394-.126-.118-.19-.28-.19-.49 0-.196.075-.355.228-.48.15-.122.352-.184.605-.184.406 0 .765.113 1.078.34v-.766a2.25 2.25 0 0 0-1.016-.221c-.492 0-.893.13-1.206.392-.31.262-.468.59-.468.983 0 .352.1.638.301.858.167.186.45.364.848.539.386.169.645.315.778.437.133.12.2.273.2.459 0 .441-.302.663-.903.663-.45 0-.86-.153-1.235-.455v.817c.335.19.727.286 1.177.286.55-.002.985-.14 1.305-.42zM43.8 22.112h.76v-4.105h1.113v-.643H44.56v-.732c0-.67.264-1.007.796-1.007.189 0 .355.042.506.124v-.687c-.133-.056-.317-.082-.55-.082-.406 0-.748.128-1.025.383-.326.295-.486.706-.486 1.227v.77h-.807v.643h.807v4.11H43.8zM19.564 16.157c.14 0 .257-.048.355-.144a.474.474 0 0 0 .146-.352.472.472 0 0 0-.146-.35.483.483 0 0 0-.355-.143.484.484 0 0 0-.35.142.479.479 0 0 0-.145.35c0 .147.05.265.145.358a.49.49 0 0 0 .35.14zM23.372 22.226c.501 0 .936-.111 1.3-.335v-.723a1.908 1.908 0 0 1-1.169.408c-.492 0-.88-.16-1.175-.482-.293-.323-.44-.758-.44-1.313 0-.574.162-1.035.48-1.38.303-.336.698-.505 1.182-.505.401 0 .778.122 1.13.373v-.78a2.423 2.423 0 0 0-1.097-.243c-.754 0-1.355.24-1.801.719-.448.479-.67 1.109-.67 1.885 0 .694.204 1.26.612 1.697.417.455.967.679 1.648.679zM50.402 17.743h.148c.105 0 .2.096.289.29l.175.387h.275l-.21-.428c-.09-.178-.178-.275-.267-.298v-.006a.548.548 0 0 0 .302-.158.394.394 0 0 0 .108-.281.386.386 0 0 0-.133-.304c-.104-.091-.255-.136-.457-.136h-.452v1.61h.226v-.676h-.004zm0-.74h.2c.14 0 .237.024.297.07.05.045.077.11.077.202 0 .184-.11.275-.332.275h-.242v-.548zM46.902 20.817c0 .934.415 1.402 1.244 1.402.295 0 .535-.051.714-.153v-.648a.808.808 0 0 1-.492.153c-.253 0-.433-.066-.543-.204-.11-.133-.162-.36-.162-.678v-2.682h1.195v-.643h-1.195v-1.406c-.267.086-.52.17-.761.246v1.16h-.816v.643h.816v2.81z"/>
            <path d="M50.668 18.881c.36 0 .66-.122.905-.362.246-.24.368-.538.368-.893 0-.362-.122-.664-.37-.9a1.242 1.242 0 0 0-.894-.349c-.362 0-.663.122-.907.364a1.213 1.213 0 0 0-.364.894c0 .361.12.658.36.893.237.233.538.353.902.353zm-.796-2.045c.213-.213.479-.32.8-.32.31 0 .577.107.792.32.215.213.324.48.324.796 0 .32-.109.588-.326.799a1.075 1.075 0 0 1-.79.324 1.08 1.08 0 0 1-.79-.32 1.084 1.084 0 0 1-.327-.803c0-.317.106-.58.317-.796zM19.176 17.364h1v4.749h-1zM30.949 22.226c.723 0 1.297-.229 1.725-.686.426-.457.639-1.062.639-1.82 0-.77-.2-1.376-.595-1.815-.399-.437-.951-.659-1.659-.659-.72 0-1.293.211-1.723.63-.463.453-.696 1.09-.696 1.917 0 .723.204 1.306.612 1.747.417.457.985.686 1.697.686zM29.87 18.36c.284-.309.663-.464 1.135-.464.48 0 .852.153 1.118.46.273.319.41.782.41 1.39 0 .581-.128 1.03-.386 1.346-.261.324-.645.486-1.144.486-.483 0-.867-.16-1.153-.481-.289-.32-.43-.766-.43-1.333 0-.606.15-1.072.45-1.404zM41.87 21.54c.425-.457.64-1.062.64-1.82 0-.77-.201-1.376-.596-1.815-.397-.437-.95-.659-1.66-.659-.72 0-1.297.211-1.725.63-.461.453-.694 1.09-.694 1.917 0 .723.204 1.306.612 1.747.417.457.983.686 1.697.686.723 0 1.3-.229 1.725-.686zm-3.254-1.776c0-.606.148-1.074.448-1.404.286-.309.665-.464 1.135-.464.48 0 .852.153 1.118.46.275.319.413.782.413 1.39 0 .581-.129 1.03-.386 1.346-.262.324-.643.486-1.145.486-.48 0-.867-.16-1.155-.481-.286-.318-.428-.763-.428-1.333zM30.691 33.799h6.3V31.95h-6.3v-5.8h6.798v-1.847h-8.838v17.435h9.24V39.89h-7.2zM39.81 26.151h5.031V41.74h2.043V26.15h5.021v-1.847H39.81zM6.396 39.272c-.372 0-.687.133-.947.402a1.34 1.34 0 0 0-.388.973c0 .373.129.695.388.965.26.27.577.408.947.408.382 0 .706-.137.974-.408a1.33 1.33 0 0 0 .402-.965c0-.372-.134-.696-.402-.967a1.305 1.305 0 0 0-.974-.408zM27.116 17.54c-.23.188-.404.454-.515.802h-.02v-.98h-.758v4.748h.759v-2.422c0-.55.117-.98.357-1.293.21-.277.47-.417.778-.417.255 0 .446.05.581.153v-.787a1.244 1.244 0 0 0-.454-.064c-.269 0-.513.088-.728.26zM11.467 16.357h.015l2.47 5.755h.382l2.467-5.755h.017l-.064 5.755h.778v-6.649h-.975l-2.402 5.432h-.034l-2.342-5.432H10.75v6.65h.752zM22.758 39.028l-9.36-14.724h-2.652v17.435h2.042V26.783L22.31 41.74h2.48V24.304h-2.032z"/>
        </g>
    </g>
</svg>
