<svg xmlns="http://www.w3.org/2000/svg" xmlns:xlink="http://www.w3.org/1999/xlink" width="86" height="74" viewBox="0 0 86 74">
    <defs>
        <path id="a" d="M.022 1.27h85.154v72.867H.022z"/>
    </defs>
    <g fill="none" fill-rule="evenodd">
        <path fill="#F16623" d="M46.604 43.541a4.004 4.004 0 0 1-4.006 4.004 3.998 3.998 0 0 1-3.995-4.004 3.998 3.998 0 0 1 3.995-4.003 4.004 4.004 0 0 1 4.006 4.003"/>
        <path fill="#F16623" d="M42.602 40.9a2.65 2.65 0 0 0-2.648 2.642 2.649 2.649 0 0 0 2.648 2.64 2.648 2.648 0 0 0 2.645-2.64 2.649 2.649 0 0 0-2.645-2.642m0 8.001c-2.957 0-5.365-2.405-5.365-5.359a5.372 5.372 0 0 1 5.365-5.361 5.371 5.371 0 0 1 5.362 5.361 5.369 5.369 0 0 1-5.362 5.359"/>
        <path fill="#F16623" d="M41.073 45.073L29.516 31.201a.582.582 0 0 1 .074-.828.583.583 0 0 1 .753 0l13.873 11.56a2.227 2.227 0 0 1 .282 3.14 2.229 2.229 0 0 1-3.425 0M13.345 44.517H1.142a1.142 1.142 0 0 1 0-2.283h12.203a1.142 1.142 0 1 1 0 2.283M83.873 44.517H71.67a1.142 1.142 0 0 1 0-2.283h12.203a1.142 1.142 0 0 1 0 2.283"/>
        <g transform="translate(0 -.304)">
            <mask id="b" fill="#fff">
                <use xlink:href="#a"/>
            </mask>
            <path fill="#F16623" d="M13.165 74.137h-.003a1.14 1.14 0 0 1-.806-.338C4.402 65.772.022 55.131.022 43.845c0-23.478 19.104-42.576 42.58-42.576 23.477 0 42.575 19.098 42.575 42.576 0 11.286-4.377 21.924-12.33 29.954-.217.217-.487.258-.81.338-.303 0-.593-.121-.807-.332l-8.656-8.632a1.142 1.142 0 0 1 0-1.614 1.133 1.133 0 0 1 1.61 0l7.838 7.809c7.022-7.494 10.875-17.224 10.875-27.523 0-22.218-18.078-40.296-40.296-40.296S2.306 21.627 2.306 43.845c0 10.299 3.852 20.029 10.871 27.523l7.835-7.844a1.138 1.138 0 1 1 1.61 1.61l-8.653 8.668a1.136 1.136 0 0 1-.804.335" mask="url(#b)"/>
        </g>
    </g>
</svg>
