<svg xmlns="http://www.w3.org/2000/svg" xmlns:xlink="http://www.w3.org/1999/xlink" width="84" height="84" viewBox="0 0 84 84">
    <defs>
        <path id="a" d="M1.559 2.511h34.1v39.027H1.56z"/>
        <path id="c" d="M1.333 1.109h34.099v11.383H1.333z"/>
    </defs>
    <g fill="none" fill-rule="evenodd">
        <path fill="#FFF" d="M2.164 69.539l14.888 8.59 14.888-8.59V52.352L17.052 43.74 2.164 52.352V69.54zM17.052 80.46c-.19 0-.371-.052-.54-.145L.54 71.096a1.084 1.084 0 0 1-.54-.931V51.726c0-.385.21-.743.54-.932l15.972-9.24a1.116 1.116 0 0 1 1.08 0l15.972 9.24c.334.19.537.547.537.932v18.439c0 .382-.203.736-.537.932l-15.972 9.22a1.114 1.114 0 0 1-.54.144zM51.654 69.539l14.885 8.59 14.888-8.59V52.352L66.54 43.74l-14.885 8.613V69.54zM66.539 80.46a1.1 1.1 0 0 1-.537-.145l-15.972-9.22a1.076 1.076 0 0 1-.54-.931V51.726c0-.385.207-.743.54-.932L66 41.554c.337-.189.75-.186 1.08 0l15.972 9.24c.334.19.54.547.54.932v18.439c0 .385-.206.74-.54.932l-15.972 9.22c-.165.092-.35.144-.54.144z"/>
        <path fill="#FFF" d="M29.045 73.711l13.643 7.888 12.763-7.375-5.418-3.127a1.066 1.066 0 0 1-.544-.936V51.726c0-.385.207-.736.544-.932l15.965-9.24c.337-.193.75-.186 1.083 0L72.52 44.7V29.937l-12.78-7.372v6.608c0 .386-.206.747-.54.933L43.228 39.32c-.337.2-.746.2-1.076 0L26.18 30.106a1.061 1.061 0 0 1-.54-.933v-6.608l-12.76 7.372v13.719l3.63-2.102a1.123 1.123 0 0 1 1.084 0l15.968 9.24c.334.196.54.547.54.932V70.16c0 .385-.206.746-.54.936l-4.517 2.614zm13.643 10.217c-.185 0-.375-.048-.54-.145l-15.803-9.136a1.07 1.07 0 0 1-.54-.936c0-.378.203-.743.54-.932l5.597-3.24V52.351l-14.889-8.614-4.712 2.728a1.088 1.088 0 0 1-1.084 0 1.073 1.073 0 0 1-.54-.932v-16.22c0-.388.203-.743.54-.939l14.923-8.62c.333-.19.746-.19 1.08 0 .334.192.543.557.543.939v7.853l14.885 8.59 14.889-8.59v-7.853c0-.382.206-.747.54-.94.333-.189.746-.189 1.083 0l14.94 8.621c.337.196.544.55.544.94v17.261c0 .392-.207.743-.544.936a1.082 1.082 0 0 1-1.08 0l-6.522-3.774-14.885 8.614v17.186l6.498 3.75a1.083 1.083 0 0 1 0 1.875l-14.923 8.62c-.165.097-.35.145-.54.145z"/>
        <g transform="translate(24.08 -2.072)">
            <mask id="b" fill="#fff">
                <use xlink:href="#a"/>
            </mask>
            <path fill="#FFF" d="M3.722 30.62l14.885 8.589 14.889-8.59V13.433l-14.889-8.59-14.885 8.59v17.186zm14.885 10.918c-.185 0-.371-.049-.536-.145L2.099 32.177a1.075 1.075 0 0 1-.54-.928V12.81c0-.389.206-.746.54-.935l15.972-9.22a1.075 1.075 0 0 1 1.076 0l15.972 9.22c.337.189.54.546.54.935V31.25c0 .381-.203.736-.54.928l-15.972 9.216c-.165.096-.35.145-.54.145z" mask="url(#b)"/>
        </g>
        <g transform="translate(48.16 49.528)">
            <mask id="d" fill="#fff">
                <use xlink:href="#c"/>
            </mask>
            <path fill="#FFF" d="M18.383 12.492c-.19 0-.372-.048-.54-.144L1.874 3.128c-.516-.299-.695-.96-.395-1.472.299-.523.96-.698 1.475-.402l15.429 8.91 15.428-8.91c.52-.3 1.18-.12 1.476.402.3.513.124 1.173-.392 1.472l-15.972 9.22a1.087 1.087 0 0 1-.54.144" mask="url(#d)"/>
        </g>
        <path fill="#FFF" d="M66.543 80.46c-.599 0-1.08-.485-1.08-1.073V60.94c0-.598.481-1.08 1.08-1.08.598 0 1.08.482 1.08 1.08v18.446c0 .588-.482 1.073-1.08 1.073M17.059 62.02c-.19 0-.372-.048-.54-.144L.547 52.656c-.516-.298-.691-.959-.392-1.472.296-.522.96-.698 1.476-.402l15.428 8.91 15.428-8.91c.516-.3 1.177-.12 1.476.402.3.513.12 1.174-.395 1.473l-15.969 9.219a1.087 1.087 0 0 1-.54.144"/>
        <path fill="#FFF" d="M17.059 80.46c-.599 0-1.08-.485-1.08-1.073V60.94c0-.598.481-1.08 1.08-1.08.599 0 1.08.482 1.08 1.08v18.446c0 .588-.481 1.073-1.08 1.073M42.695 21.033c-.19 0-.372-.048-.54-.145l-15.972-9.222a1.073 1.073 0 0 1-.396-1.47c.3-.522.96-.7 1.476-.402l15.432 8.91 15.428-8.91c.516-.299 1.176-.12 1.476.403.299.512.12 1.17-.396 1.469l-15.972 9.222c-.168.097-.35.145-.536.145"/>
        <path fill="#FFF" d="M42.695 39.472a1.08 1.08 0 0 1-1.08-1.076V19.954a1.078 1.078 0 1 1 2.156 0v18.442c0 .591-.481 1.076-1.076 1.076"/>
    </g>
</svg>
