<svg xmlns="http://www.w3.org/2000/svg" width="24" height="24" viewBox="0 0 24 24">
    <path fill="#333" fill-rule="nonzero" d="M12 0C5.373 0 0 5.373 0 12c0 5.303 3.438 9.8 8.207 11.386.6.11.819-.26.819-.577 0-.286-.011-1.232-.017-2.234-3.337.725-4.042-1.415-4.042-1.415-.547-1.386-1.333-1.755-1.333-1.755-1.09-.744.083-.73.083-.73 1.205.084 1.84 1.237 1.84 1.237 1.07 1.834 2.809 1.304 3.491.996.11-.773.42-1.304.762-1.602-2.664-.304-5.466-1.333-5.466-5.932 0-1.31.468-2.38 1.234-3.22-.122-.305-.535-1.526.119-3.177 0 0 1.006-.322 3.3 1.23.957-.267 1.983-.399 3.003-.403 1.02.004 2.046.137 3.004.405 2.29-1.554 3.298-1.23 3.298-1.23.656 1.652.243 2.872.12 3.175.769.84 1.233 1.91 1.233 3.22 0 4.61-2.806 5.626-5.48 5.923.432.372.815 1.101.815 2.22 0 1.605-.016 2.898-.016 3.294 0 .319.218.692.826.575C20.565 21.796 24 17.3 24 12c0-6.627-5.373-12-12-12z"/>
</svg>
