<svg xmlns="http://www.w3.org/2000/svg" xmlns:xlink="http://www.w3.org/1999/xlink" width="347" height="366" viewBox="0 0 347 366">
    <defs>
        <path id="a" d="M62.597 186.739c-2.392-.01-4.672-.5-6.38-1.486L2.575 154.282c-1.983-1.144-2.78-2.734-2.494-4.353H0V0h126.242v149.929h-.049c.057 1.722-1.129 3.549-3.593 4.972l-51.503 29.734c-2.387 1.378-5.438 2.091-8.34 2.104h-.16z"/>
        <linearGradient id="b" x1="50%" x2="50%" y1="100%" y2="18.88%">
            <stop offset="0%" stop-color="#F86B27"/>
            <stop offset="100%" stop-color="#F9F9F9"/>
        </linearGradient>
        <path id="d" d="M6.886 6.98c-9.181 9.181-9.181 24.068 0 33.249 9.182 9.182 24.068 9.182 33.249 0 9.182-9.181 9.182-24.068 0-33.249A23.433 23.433 0 0 0 23.511.094 23.437 23.437 0 0 0 6.886 6.98"/>
        <path id="f" d="M.206 10.482c0 5.377 4.36 9.736 9.736 9.736 5.378 0 9.737-4.359 9.737-9.736 0-5.378-4.359-9.736-9.737-9.736C4.566.746.206 5.104.206 10.482"/>
        <path id="h" d="M2.202 10.533c-4.299 8.655-.77 19.157 7.884 23.457 8.655 4.299 19.156.77 23.456-7.884a17.425 17.425 0 0 0 1.832-7.665v-.216c-.04-6.395-3.597-12.535-9.715-15.575A17.425 17.425 0 0 0 17.886.819c-6.434 0-12.627 3.562-15.684 9.714"/>
        <path id="j" d="M95.387 4.612L7.023 55.629c-4.13 2.385-6.5 5.581-6.5 8.769 0 2.67 1.658 5.098 4.668 6.835l92.032 53.135c3.029 1.749 7.086 2.606 11.336 2.606 5.112 0 10.499-1.241 14.693-3.663l88.365-51.018c4.131-2.385 6.5-5.581 6.5-8.769 0-2.671-1.657-5.098-4.668-6.836L121.416 3.554c-3.027-1.748-7.085-2.605-11.334-2.605-5.112 0-10.499 1.241-14.695 3.663m2.336 118.891L5.691 70.368c-2.688-1.552-4.168-3.672-4.168-5.97 0-2.821 2.187-5.702 6-7.904L95.887 5.476c4.059-2.342 9.263-3.544 14.194-3.544 4.066 0 7.945.818 10.836 2.487l92.033 53.135c2.687 1.552 4.167 3.672 4.167 5.97 0 2.82-2.187 5.701-6.001 7.904l-88.363 51.017c-4.059 2.343-9.265 3.545-14.195 3.545-4.066-.001-7.945-.818-10.835-2.487"/>
        <path id="l" d="M74.607 3.655L36.262 25.793H.546V125.89h.01c-.145 2.003.971 3.934 3.433 5.356l72.056 41.601c5.123 2.958 14.071 2.587 19.988-.828l69.183-39.943c3.073-1.774 4.71-4.021 4.867-6.186h.027V25.793h-35.735L94.596 2.826C92.275 1.486 89.168.83 85.914.829c-3.928 0-8.071.958-11.307 2.826"/>
        <linearGradient id="m" x1="50%" x2="50%" y1="0%" y2="98.762%">
            <stop offset="0%" stop-color="#DF2226"/>
            <stop offset="100%" stop-color="#713C80"/>
        </linearGradient>
        <path id="o" d="M74.607 3.665L5.424 43.608c-5.916 3.416-6.559 8.583-1.435 11.54L76.045 96.75c5.123 2.957 14.071 2.586 19.988-.828l69.183-39.944c5.916-3.415 6.558-8.582 1.434-11.54L94.596 2.837C92.274 1.497 89.168.84 85.914.84c-3.928 0-8.071.957-11.307 2.825"/>
        <linearGradient id="p" x1="-.815%" x2="99.309%" y1="50.001%" y2="49.999%">
            <stop offset="0%" stop-color="#713C80"/>
            <stop offset="100%" stop-color="#DF2226"/>
        </linearGradient>
        <path id="r" d="M.247 1.705l2.79 3.181V28.48c0 5.152 3.132 11.135 6.996 13.366L61.377 71.49c.055.032.107.052.16.082l1.658 1.889 2.608-1.521c.036-.019.071-.042.107-.063l.247-.144-.008-.007c1.366-.914 2.225-2.835 2.225-5.524V37.808L3.037.086.247 1.705z"/>
        <linearGradient id="s" x1="-84.629%" x2="93.369%" y1="17.044%" y2="61.111%">
            <stop offset="0%" stop-color="#781416"/>
            <stop offset="100%" stop-color="#8C413D"/>
        </linearGradient>
        <path id="u" d="M.615 1.995l2.79 3.181V28.77c0 5.151 3.132 11.135 6.995 13.367l51.346 29.644c.053.03.106.052.16.081l1.657 1.889 2.607-1.52c.037-.019.072-.043.108-.063l.246-.144-.007-.008c1.365-.915 2.225-2.834 2.225-5.524V38.098L3.405.376.615 1.995z"/>
        <linearGradient id="v" x1="-84.629%" x2="93.369%" y1="17.044%" y2="61.111%">
            <stop offset="0%" stop-color="#781416"/>
            <stop offset="100%" stop-color="#8C413D"/>
        </linearGradient>
        <path id="x" d="M.615 29.389c0 5.151 3.132 11.136 6.995 13.366L58.956 72.4c3.863 2.23 6.996-.138 6.996-5.289V38.717L.615.996v28.393z"/>
        <linearGradient id="y" x1="-4.361%" x2="157.759%" y1="50.276%" y2="49.409%">
            <stop offset="0%" stop-color="#DF2226"/>
            <stop offset="100%" stop-color="#F86B27"/>
        </linearGradient>
    </defs>
    <g fill="none" fill-rule="evenodd">
        <g transform="translate(112)">
            <mask id="c" fill="#fff">
                <use xlink:href="#a"/>
            </mask>
            <path fill="url(#b)" d="M126.242 0H0v149.929h.081c-.286 1.619.511 3.209 2.494 4.353l53.642 30.971c3.813 2.202 10.476 1.925 14.88-.618l51.503-29.734c2.464-1.423 3.65-3.25 3.593-4.972h.049V0z" mask="url(#c)"/>
        </g>
        <g transform="translate(0 262.5)">
            <mask id="e" fill="#fff">
                <use xlink:href="#d"/>
            </mask>
            <path d="M6.886 6.98c-9.181 9.181-9.181 24.068 0 33.249 9.182 9.182 24.068 9.182 33.249 0 9.182-9.181 9.182-24.068 0-33.249A23.433 23.433 0 0 0 23.511.094 23.437 23.437 0 0 0 6.886 6.98" mask="url(#e)"/>
        </g>
        <g transform="translate(44 109.5)">
            <mask id="g" fill="#fff">
                <use xlink:href="#f"/>
            </mask>
            <path d="M.206 10.482c0 5.377 4.36 9.736 9.736 9.736 5.378 0 9.737-4.359 9.737-9.736 0-5.378-4.359-9.736-9.737-9.736C4.566.746.206 5.104.206 10.482" mask="url(#g)"/>
        </g>
        <g transform="translate(315 196.5)">
            <mask id="i" fill="#fff">
                <use xlink:href="#h"/>
            </mask>
            <path d="M2.202 10.533c-4.299 8.655-.77 19.157 7.884 23.457 8.655 4.299 19.156.77 23.456-7.884a17.425 17.425 0 0 0 1.832-7.665v-.216c-.04-6.395-3.597-12.535-9.715-15.575A17.425 17.425 0 0 0 17.886.819c-6.434 0-12.627 3.562-15.684 9.714" mask="url(#i)"/>
        </g>
        <path fill="#757575" d="M337.354 285.698c-7.036 1.365-14.658-.82-17.023-4.884-2.366-4.062 1.421-8.464 8.458-9.829 7.037-1.365 14.659.821 17.024 4.884 2.365 4.062-1.422 8.463-8.459 9.83M29.748 364.935c-9.791 1.899-20.395-1.143-23.686-6.795-3.291-5.652 1.978-11.775 11.769-13.675 9.79-1.9 20.395 1.143 23.685 6.795 3.29 5.653-1.978 11.775-11.768 13.675M56.081 159.338c-3.515.682-7.32-.41-8.503-2.44-1.18-2.03.711-4.227 4.225-4.91 3.516-.68 7.322.412 8.504 2.44 1.18 2.03-.71 4.228-4.226 4.91"/>
        <path fill="#DF2226" d="M120.757 79.471a2.494 2.494 0 1 1-4.988 0 2.494 2.494 0 0 1 4.988 0M77.548 333.106a3.005 3.005 0 1 1-6.01 0 3.005 3.005 0 0 1 6.01 0"/>
        <path fill="#F86B27" d="M57.036 319.807a1.547 1.547 0 1 1-3.094 0 1.547 1.547 0 0 1 3.094 0M319.627 262.7a1.6 1.6 0 1 1-3.199-.001 1.6 1.6 0 0 1 3.199 0M23.789 154.769a2.25 2.25 0 1 1-4.501 0 2.25 2.25 0 1 1 4.5 0"/>
        <path fill="#713C80" d="M191.996 72.7a2.25 2.25 0 1 1-4.501-.001 2.25 2.25 0 0 1 4.5 0"/>
        <path fill="#F86B27" d="M32.951 149.781a1.247 1.247 0 1 1-2.494 0 1.247 1.247 0 0 1 2.494 0"/>
        <path fill="#DF2226" d="M247.481 80.738a1.473 1.473 0 1 1-2.946 0 1.473 1.473 0 0 1 2.946 0"/>
        <path fill="#F86B27" d="M31.24 228.566l-.538-1.926 4.28-1.197-1.197-4.28 1.926-.539 1.736 6.206z"/>
        <path fill="#F86B27" d="M27.463 235.276l-.539-1.926 4.28-1.197-1.196-4.28 1.926-.539 1.735 6.206z"/>
        <path fill="#F86B27" d="M31.474 233.116l-1.735-6.206 6.206-1.736.54 1.925-4.282 1.198 1.197 4.28z"/>
        <path fill="#713C80" d="M179.164 77.977a2.764 2.764 0 0 0-2.761 2.76 2.765 2.765 0 0 0 2.76 2.762 2.764 2.764 0 0 0 2.76-2.762 2.764 2.764 0 0 0-2.76-2.76m0 7.521a4.767 4.767 0 0 1-4.76-4.76 4.766 4.766 0 0 1 4.76-4.76 4.765 4.765 0 0 1 4.76 4.76 4.766 4.766 0 0 1-4.76 4.76"/>
        <path fill="#F86B27" d="M281.002 318.256l2.573 2.574 2.575-2.574-2.575-2.574-2.573 2.574zm2.573 5.402l-5.401-5.402 5.401-5.402 5.404 5.402-5.404 5.402z"/>
        <path fill="#DF2226" d="M300.805 133.69l-5.783-5.783 1.414-1.414 5.783 5.783z"/>
        <path fill="#DF2226" d="M296.436 133.69l-1.414-1.414 5.783-5.783 1.414 1.414z"/>
        <g transform="translate(64 231.5)">
            <mask id="k" fill="#fff">
                <use xlink:href="#j"/>
            </mask>
            <path d="M95.387 4.612L7.023 55.629c-4.13 2.385-6.5 5.581-6.5 8.769 0 2.67 1.658 5.098 4.668 6.835l92.032 53.135c3.029 1.749 7.086 2.606 11.336 2.606 5.112 0 10.499-1.241 14.693-3.663l88.365-51.018c4.131-2.385 6.5-5.581 6.5-8.769 0-2.671-1.657-5.098-4.668-6.836L121.416 3.554c-3.027-1.748-7.085-2.605-11.334-2.605-5.112 0-10.499 1.241-14.695 3.663m2.336 118.891L5.691 70.368c-2.688-1.552-4.168-3.672-4.168-5.97 0-2.821 2.187-5.702 6-7.904L95.887 5.476c4.059-2.342 9.263-3.544 14.194-3.544 4.066 0 7.945.818 10.836 2.487l92.033 53.135c2.687 1.552 4.167 3.672 4.167 5.97 0 2.82-2.187 5.701-6.001 7.904l-88.363 51.017c-4.059 2.343-9.265 3.545-14.195 3.545-4.066-.001-7.945-.818-10.835-2.487" mask="url(#k)"/>
        </g>
        <path fill="#757575" fill-opacity=".3" d="M164.566 339.775l-68.002-39.26c-4.835-2.792-4.229-7.669 1.354-10.89l65.292-37.698c5.583-3.222 14.028-3.573 18.862-.78l68.003 39.26c4.835 2.792 4.23 7.668-1.354 10.89l-65.29 37.697c-5.584 3.222-14.03 3.573-18.865.781"/>
        <g transform="translate(88 149.5)">
            <mask id="n" fill="#fff">
                <use xlink:href="#l"/>
            </mask>
            <path fill="url(#m)" d="M74.607 3.655L36.262 25.793H.546V125.89h.01c-.145 2.003.971 3.934 3.433 5.356l72.056 41.601c5.123 2.958 14.071 2.587 19.988-.828l69.183-39.943c3.073-1.774 4.71-4.021 4.867-6.186h.027V25.793h-35.735L94.596 2.826C92.275 1.486 89.168.83 85.914.829c-3.928 0-8.071.958-11.307 2.826" mask="url(#n)"/>
        </g>
        <g>
            <path fill="#D4088C" d="M97.595 175.293h-9.05v100.098h.012c-.104 1.421.442 2.801 1.64 3.995-.765-1.021-1.112-2.144-1.028-3.293h-.012V175.996h9.145a13.392 13.392 0 0 0-.707-.703"/>
            <path fill="#F86B27" d="M246.671 175.293c-.064.201-.134.401-.205.602h11.001v100.097h-.026c-.098 1.342-.766 2.715-1.99 3.988 1.627-1.436 2.518-3.033 2.632-4.589h.026V175.293h-11.438z"/>
            <path fill="#DF2226" d="M113.786 293.328v-116.1H100.81v108.608zM121.754 297.929V185.025h-3.545v110.857zM128.1 301.592V186.388h-3.545v113.157z" style="mix-blend-mode:overlay"/>
        </g>
        <g transform="translate(88 125.5)">
            <mask id="q" fill="#fff">
                <use xlink:href="#o"/>
            </mask>
            <path fill="url(#p)" d="M74.607 3.665L5.424 43.608c-5.916 3.416-6.559 8.583-1.435 11.54L76.045 96.75c5.123 2.957 14.071 2.586 19.988-.828l69.183-39.944c5.916-3.415 6.558-8.582 1.434-11.54L94.596 2.837C92.274 1.497 89.168.84 85.914.84c-3.928 0-8.071.957-11.307 2.825" mask="url(#q)"/>
        </g>
        <g>
            <path fill="#D4088C" d="M164.838 222.25l-72.056-41.602c-5.123-2.957-4.481-8.124 1.435-11.54l69.184-39.942c2.93-1.692 6.604-2.632 10.19-2.795-3.834.05-7.835.977-10.984 2.795l-69.183 39.942c-5.916 3.416-6.558 8.583-1.435 11.54l72.056 41.602c2.585 1.493 6.145 2.132 9.797 1.966-3.368.044-6.608-.582-9.004-1.966"/>
            <path fill="#F86B27" d="M254.65 169.938l-72.055-41.602c-2.59-1.494-6.156-2.133-9.814-1.964 3.327-.028 6.522.597 8.89 1.964l72.057 41.602c5.123 2.958 4.48 8.125-1.435 11.54l-69.183 39.943c-2.926 1.689-6.594 2.628-10.174 2.793 3.868-.032 7.917-.957 11.097-2.793l69.183-39.943c5.915-3.415 6.558-8.582 1.435-11.54"/>
            <path fill="#F86B27" d="M166.415 210.252l-53.646-30.972c-3.814-2.202-3.335-6.049 1.069-8.591l51.507-29.738c4.404-2.543 11.067-2.819 14.88-.617l53.646 30.972c3.815 2.203 3.336 6.049-1.068 8.592l-51.507 29.737c-4.404 2.543-11.067 2.82-14.881.617"/>
            <path fill="#4A2754" d="M113.837 176.475l51.507-29.737c4.404-2.543 11.067-2.819 14.881-.617l53.645 30.972c.5.288.921.606 1.274.944 2.05-2.315 1.691-5.019-1.274-6.73l-53.645-30.973c-3.814-2.202-10.477-1.926-14.88.617l-51.508 29.737c-3.828 2.21-4.686 5.404-2.342 7.648.588-.662 1.362-1.295 2.342-1.86"/>
            <path fill="#F86B27" d="M186.088 229.354l60.952-35.256c.558-.322 1.01-1.185 1.01-1.929v-1c0-.743-.452-1.085-1.01-.763l-60.952 35.256c-.558.322-1.01 1.185-1.01 1.929v1c0 .743.452 1.085 1.01.763"/>
            <path fill="#C7531B" d="M245.706 193.336c.558-.322 1.01-1.186 1.01-1.93v-.812l.325-.188c.558-.321 1.01.02 1.01.763v1c0 .744-.452 1.607-1.01 1.93l-60.952 35.255c-.558.322-1.01-.02-1.01-.763v-.187l60.627-35.068z"/>
            <path fill="#F86B27" d="M186.088 240.081l60.952-35.255c.558-.323 1.01-1.186 1.01-1.93v-1c0-.743-.452-1.085-1.01-.763l-60.952 35.256c-.558.322-1.01 1.185-1.01 1.928v1c0 .744.452 1.086 1.01.764"/>
            <path fill="#C7531B" d="M245.706 204.063c.558-.322 1.01-1.186 1.01-1.929v-.813l.325-.188c.558-.321 1.01.02 1.01.763v1c0 .744-.452 1.607-1.01 1.93l-60.952 35.255c-.558.322-1.01-.019-1.01-.764v-.186l60.627-35.068z"/>
            <path fill="#F86B27" d="M186.088 250.808l60.952-35.255c.558-.322 1.01-1.185 1.01-1.93v-1c0-.742-.452-1.084-1.01-.762l-60.952 35.256c-.558.32-1.01 1.185-1.01 1.928v1c0 .743.452 1.085 1.01.763"/>
            <path fill="#C7531B" d="M245.706 214.79c.558-.322 1.01-1.186 1.01-1.929v-.813l.325-.188c.558-.321 1.01.02 1.01.763v1c0 .744-.452 1.607-1.01 1.93l-60.952 35.255c-.558.322-1.01-.02-1.01-.763v-.187l60.627-35.068z"/>
            <path fill="#F86B27" d="M186.088 261.535l60.952-35.255c.558-.323 1.01-1.186 1.01-1.93v-1c0-.743-.452-1.085-1.01-.763l-60.952 35.256c-.558.322-1.01 1.185-1.01 1.928v1c0 .744.452 1.086 1.01.764"/>
            <path fill="#C7531B" d="M245.706 225.517c.558-.322 1.01-1.186 1.01-1.929v-.813l.325-.188c.558-.32 1.01.02 1.01.763v1c0 .744-.452 1.607-1.01 1.93l-60.952 35.255c-.558.322-1.01-.019-1.01-.764v-.186l60.627-35.068z"/>
            <path fill="#F86B27" d="M186.088 272.262l60.952-35.255c.558-.322 1.01-1.185 1.01-1.93v-1c0-.742-.452-1.084-1.01-.762l-60.952 35.256c-.558.32-1.01 1.185-1.01 1.928v1c0 .743.452 1.085 1.01.763"/>
            <path fill="#C7531B" d="M245.706 236.244c.558-.322 1.01-1.186 1.01-1.929v-.813l.325-.188c.558-.32 1.01.02 1.01.763v1c0 .744-.452 1.607-1.01 1.93l-60.952 35.255c-.558.322-1.01-.02-1.01-.763v-.187l60.627-35.068z"/>
            <path fill="#F86B27" d="M186.088 282.99l60.952-35.257c.558-.32 1.01-1.185 1.01-1.929v-1c0-.743-.452-1.085-1.01-.762l-60.952 35.255c-.558.322-1.01 1.185-1.01 1.928v1c0 .744.452 1.086 1.01.764"/>
            <path fill="#C7531B" d="M245.706 246.972c.558-.322 1.01-1.186 1.01-1.93v-.812l.325-.188c.558-.322 1.01.02 1.01.763v1c0 .743-.452 1.607-1.01 1.929l-60.952 35.256c-.558.322-1.01-.02-1.01-.764v-.187l60.627-35.067z"/>
            <path fill="#F86B27" d="M186.088 293.716l60.952-35.255c.558-.322 1.01-1.185 1.01-1.93v-1c0-.743-.452-1.085-1.01-.762l-60.952 35.256c-.558.32-1.01 1.185-1.01 1.928v1c0 .743.452 1.085 1.01.763"/>
            <path fill="#C7531B" d="M245.706 257.698c.558-.322 1.01-1.186 1.01-1.929v-.813l.325-.188c.558-.322 1.01.02 1.01.764v1c0 .743-.452 1.606-1.01 1.93l-60.952 35.254c-.558.322-1.01-.02-1.01-.763v-.187l60.627-35.068z"/>
            <path fill="#F86B27" d="M186.088 304.443l60.952-35.256c.558-.32 1.01-1.185 1.01-1.929v-1c0-.743-.452-1.085-1.01-.762l-60.952 35.255c-.558.322-1.01 1.185-1.01 1.928v1c0 .744.452 1.086 1.01.764"/>
            <path fill="#C7531B" d="M245.706 268.426c.558-.322 1.01-1.186 1.01-1.93v-.812l.325-.188c.558-.322 1.01.02 1.01.763v1c0 .743-.452 1.607-1.01 1.929l-60.952 35.256c-.558.322-1.01-.02-1.01-.764v-.187l60.627-35.067z"/>
            <path fill="#F86B27" d="M186.088 315.17l60.952-35.255c.558-.322 1.01-1.185 1.01-1.93v-1c0-.743-.452-1.085-1.01-.762l-60.952 35.256c-.558.32-1.01 1.185-1.01 1.928v1c0 .743.452 1.085 1.01.763"/>
            <path fill="#C7531B" d="M245.706 279.152c.558-.322 1.01-1.186 1.01-1.929v-.813l.325-.188c.558-.32 1.01.02 1.01.764v1c0 .743-.452 1.606-1.01 1.93l-60.952 35.254c-.558.322-1.01-.02-1.01-.763v-.187l60.627-35.068z"/>
            <path fill="#F86B27" d="M174.956 231.099a1.636 1.636 0 1 1-3.272 0 1.636 1.636 0 0 1 3.272 0"/>
            <path fill="#C7531B" d="M173.32 232.121a1.636 1.636 0 0 1-1.605-1.329 1.636 1.636 0 1 0 3.21 0 1.636 1.636 0 0 1-1.605 1.33"/>
            <path fill="#F86B27" d="M174.956 241.825a1.636 1.636 0 1 1-3.272.002 1.636 1.636 0 0 1 3.272-.002"/>
            <path fill="#C7531B" d="M173.32 242.848a1.635 1.635 0 0 1-1.605-1.33 1.636 1.636 0 1 0 3.21 0 1.635 1.635 0 0 1-1.605 1.33"/>
            <path fill="#F86B27" d="M174.956 252.553a1.636 1.636 0 1 1-3.272 0 1.636 1.636 0 0 1 3.272 0"/>
            <path fill="#C7531B" d="M173.32 253.575a1.635 1.635 0 0 1-1.605-1.329 1.636 1.636 0 1 0 3.21 0 1.635 1.635 0 0 1-1.605 1.33"/>
            <path fill="#F86B27" d="M174.956 263.28a1.636 1.636 0 1 1-3.272 0 1.636 1.636 0 0 1 3.272 0"/>
            <path fill="#C7531B" d="M173.32 264.303a1.636 1.636 0 0 1-1.605-1.33 1.636 1.636 0 1 0 3.21 0 1.636 1.636 0 0 1-1.605 1.33"/>
            <path fill="#F86B27" d="M174.956 274.007a1.636 1.636 0 1 1-3.272 0 1.636 1.636 0 0 1 3.272 0"/>
            <path fill="#C7531B" d="M173.32 275.03a1.635 1.635 0 0 1-1.605-1.33 1.636 1.636 0 1 0 3.21 0 1.635 1.635 0 0 1-1.605 1.33"/>
            <path fill="#F86B27" d="M174.956 284.733a1.636 1.636 0 1 1-3.272.002 1.636 1.636 0 0 1 3.272-.002"/>
            <path fill="#C7531B" d="M173.32 285.757a1.636 1.636 0 0 1-1.605-1.33 1.636 1.636 0 1 0 3.21 0 1.636 1.636 0 0 1-1.605 1.33"/>
            <path fill="#F86B27" d="M174.956 295.46a1.636 1.636 0 1 1-3.272 0 1.636 1.636 0 0 1 3.272 0"/>
            <path fill="#C7531B" d="M173.32 296.483a1.635 1.635 0 0 1-1.605-1.329 1.636 1.636 0 1 0 3.21 0 1.635 1.635 0 0 1-1.605 1.33"/>
            <path fill="#F86B27" d="M174.956 306.188a1.636 1.636 0 1 1-3.272 0 1.636 1.636 0 0 1 3.272 0"/>
            <path fill="#C7531B" d="M173.32 307.21a1.636 1.636 0 0 1-1.605-1.33 1.636 1.636 0 1 0 3.21 0 1.636 1.636 0 0 1-1.605 1.33"/>
            <path fill="#F86B27" d="M174.956 316.915a1.636 1.636 0 1 1-3.272 0 1.636 1.636 0 0 1 3.272 0"/>
            <path fill="#C7531B" d="M173.32 317.938a1.635 1.635 0 0 1-1.605-1.33 1.636 1.636 0 1 0 3.21 0 1.635 1.635 0 0 1-1.605 1.33"/>
            <path fill="#4A2754" d="M145.675 227.347a.92.92 0 0 0-.463.119c-.423.244-.665.839-.665 1.63v65.839c0 1.599.97 3.459 2.158 4.145l2.441 1.41c.468.27.91.31 1.245.12.422-.244.665-.84.665-1.631V233.14c0-1.6-.969-3.458-2.158-4.146l-2.44-1.41c-.276-.158-.543-.238-.783-.238m4.254 73.88c-.327 0-.678-.104-1.03-.308l-2.442-1.41c-1.327-.765-2.406-2.817-2.406-4.574v-65.838c0-.975.332-1.726.912-2.061.494-.286 1.113-.243 1.742.12l2.441 1.41c1.327.765 2.406 2.818 2.406 4.575v65.838c0 .974-.333 1.725-.913 2.06a1.402 1.402 0 0 1-.71.188M106.1 275.992l2.44 1.408c.47.272.912.312 1.246.121.422-.244.665-.838.665-1.63v-65.838c0-1.599-.969-3.459-2.159-4.147l-2.44-1.408c-.47-.27-.912-.312-1.245-.12-.422.244-.665.84-.665 1.631v65.837c0 1.6.97 3.46 2.158 4.146m3.225 2.146c-.328 0-.679-.103-1.033-.308l-2.44-1.408c-1.327-.766-2.406-2.819-2.406-4.576V206.01c0-.975.333-1.726.913-2.06.493-.288 1.113-.244 1.741.12l2.44 1.407c1.328.767 2.407 2.82 2.407 4.577v65.837c0 .975-.332 1.726-.913 2.061a1.397 1.397 0 0 1-.709.187M125.373 215.803a.92.92 0 0 0-.463.119c-.423.244-.665.839-.665 1.63v65.839c0 1.599.969 3.459 2.158 4.145l2.44 1.41c.468.27.912.31 1.246.12.423-.244.665-.84.665-1.631v-65.838c0-1.6-.97-3.46-2.158-4.146l-2.441-1.41c-.275-.158-.542-.238-.782-.238m4.254 73.88c-.327 0-.678-.104-1.031-.308l-2.441-1.41c-1.327-.765-2.406-2.817-2.406-4.574v-65.838c0-.975.332-1.726.912-2.061.494-.286 1.113-.244 1.742.12l2.44 1.41c1.328.765 2.407 2.818 2.407 4.575v65.838c0 .974-.332 1.725-.912 2.06a1.405 1.405 0 0 1-.711.188M237.873 160.17l-2.306 12.536 11.966-6.863z"/>
        </g>
        <g transform="translate(172 99.5)">
            <mask id="t" fill="#fff">
                <use xlink:href="#r"/>
            </mask>
            <path fill="url(#s)" d="M.247 1.705l2.79 3.181V28.48c0 5.152 3.132 11.135 6.996 13.366L61.377 71.49c.055.032.107.052.16.082l1.658 1.889 2.608-1.521c.036-.019.071-.042.107-.063l.247-.144-.008-.007c1.366-.914 2.225-2.835 2.225-5.524V37.808L3.037.086.247 1.705z" mask="url(#t)"/>
        </g>
        <g>
            <path fill="#F86B27" d="M172.247 101.205l65.336 37.722v28.394c0 5.151-3.13 7.52-6.996 5.288l-51.344-29.644c-3.864-2.23-6.996-8.215-6.996-13.366v-28.394z"/>
            <path fill="#4A2754" d="M170.707 211.602l-12.507 7.274-56.137-32.411 11.628-6.68z"/>
        </g>
        <g transform="translate(108 137.5)">
            <mask id="w" fill="#fff">
                <use xlink:href="#u"/>
            </mask>
            <path fill="url(#v)" d="M.615 1.995l2.79 3.181V28.77c0 5.151 3.132 11.135 6.995 13.367l51.346 29.644c.053.03.106.052.16.081l1.657 1.889 2.607-1.52c.037-.019.072-.043.108-.063l.246-.144-.007-.008c1.365-.915 2.225-2.834 2.225-5.524V38.098L3.405.376.615 1.995z" mask="url(#w)"/>
        </g>
        <g transform="translate(108 138.5)">
            <mask id="z" fill="#fff">
                <use xlink:href="#x"/>
            </mask>
            <path fill="url(#y)" d="M.615 29.389c0 5.151 3.132 11.136 6.995 13.366L58.956 72.4c3.863 2.23 6.996-.138 6.996-5.289V38.717L.615.996v28.393z" mask="url(#z)"/>
        </g>
        <g>
            <path fill="#38025B" d="M247.724 165.956l-9.852-5.787 9.852 5.787z"/>
            <path fill="#DF2226" d="M3.612 196.375a1.473 1.473 0 1 1-2.946 0 1.473 1.473 0 0 1 2.946 0"/>
        </g>
    </g>
</svg>
