<svg xmlns="http://www.w3.org/2000/svg" width="1440" height="553" viewBox="0 0 1440 553">
    <g fill="none" fill-rule="evenodd" stroke="#979797" opacity=".1">
        <path d="M196.463 545.723c178.34 24.391 336.571-26.078 474.691-151.409 207.18-187.996 445.091-170.717 551.95-133.483 106.857 37.235 538.213 107.956 721.867 22.686 122.437-56.847 212.412-105.465 269.926-145.853"/>
        <path d="M176.657 542.94C354.998 567.33 513.23 516.86 651.35 391.53c207.18-187.995 445.09-170.716 551.949-133.482 106.858 37.234 538.213 107.955 721.868 22.685 122.436-56.846 212.411-105.464 269.926-145.853"/>
        <path d="M156.852 540.156c178.341 24.391 336.572-26.078 474.692-151.409 207.18-187.995 445.09-170.717 551.948-133.482 106.858 37.234 538.214 107.955 721.868 22.685 122.437-56.847 212.412-105.464 269.926-145.853"/>
        <path d="M137.047 537.373c178.34 24.39 336.571-26.079 474.691-151.41 207.18-187.995 445.091-170.716 551.95-133.482 106.857 37.234 538.212 107.956 721.867 22.685 122.436-56.846 212.412-105.464 269.926-145.853"/>
        <path d="M117.241 534.59c178.341 24.39 336.572-26.08 474.692-151.41 207.18-187.995 445.09-170.717 551.949-133.482 106.858 37.234 538.213 107.955 721.868 22.685 122.436-56.847 212.411-105.464 269.925-145.853"/>
        <path d="M97.436 531.806c178.34 24.39 336.572-26.079 474.692-151.41 207.18-187.995 445.09-170.716 551.948-133.482 106.858 37.234 538.214 107.956 721.868 22.686 122.437-56.847 212.412-105.465 269.926-145.854"/>
        <path d="M77.63 529.022c178.342 24.391 336.572-26.078 474.692-151.409 207.18-187.995 445.091-170.716 551.949-133.482 106.858 37.234 538.213 107.955 721.868 22.685 122.436-56.847 212.412-105.464 269.926-145.853"/>
        <path d="M57.825 526.239c178.341 24.391 336.572-26.079 474.692-151.41 207.18-187.995 445.09-170.716 551.949-133.482 106.858 37.234 538.213 107.956 721.868 22.686 122.436-56.847 212.411-105.465 269.925-145.853"/>
        <path d="M38.02 523.456c178.34 24.39 336.571-26.08 474.692-151.41 207.18-187.995 445.09-170.716 551.948-133.482 106.858 37.234 538.214 107.955 721.868 22.685 122.437-56.847 212.412-105.464 269.926-145.853"/>
        <path d="M18.214 520.672c178.341 24.391 336.572-26.079 474.692-151.41 207.18-187.995 445.091-170.716 551.949-133.482 106.858 37.234 538.213 107.956 721.868 22.686 122.436-56.847 212.412-105.465 269.926-145.853"/>
        <path d="M-1.59 517.889c178.34 24.39 336.57-26.08 474.69-151.41 207.181-187.995 445.092-170.716 551.95-133.482 106.858 37.234 538.213 107.955 721.868 22.685 122.436-56.846 212.411-105.464 269.925-145.853"/>
        <path d="M-21.396 515.105c178.34 24.391 336.571-26.079 474.691-151.409 207.18-187.996 445.091-170.717 551.95-133.483 106.857 37.234 538.213 107.956 721.867 22.686 122.437-56.847 212.412-105.465 269.926-145.853"/>
        <path d="M-41.202 512.322c178.341 24.39 336.572-26.079 474.692-151.41C640.67 172.918 878.58 190.197 985.44 227.43c106.858 37.234 538.213 107.955 721.868 22.685 122.436-56.846 212.411-105.464 269.926-145.853"/>
        <path d="M-61.007 509.538C117.334 533.93 275.565 483.46 413.685 358.13c207.18-187.996 445.09-170.717 551.948-133.483 106.858 37.235 538.214 107.956 721.868 22.686 122.437-56.847 212.412-105.465 269.926-145.853"/>
        <path d="M-80.812 506.755c178.34 24.39 336.571-26.079 474.691-151.41C601.06 167.35 838.97 184.63 945.83 221.864c106.857 37.234 538.212 107.955 721.867 22.685 122.437-56.846 212.412-105.464 269.926-145.853"/>
        <path d="M-100.618 503.971c178.341 24.391 336.572-26.078 474.692-151.409 207.18-187.995 445.09-170.717 551.949-133.482 106.858 37.234 538.213 107.955 721.868 22.685 122.436-56.847 212.411-105.464 269.925-145.853"/>
        <path d="M-120.423 501.188c178.341 24.39 336.572-26.079 474.692-151.41 207.18-187.995 445.09-170.716 551.948-133.482 106.858 37.234 538.214 107.956 721.868 22.685 122.437-56.846 212.412-105.464 269.926-145.853"/>
        <path d="M-140.228 498.404c178.34 24.391 336.571-26.078 474.691-151.409C541.643 159 779.554 176.278 886.412 213.513c106.858 37.234 538.213 107.955 721.868 22.685 122.436-56.847 212.412-105.464 269.926-145.853"/>
        <path d="M-160.034 495.62c178.341 24.392 336.572-26.078 474.692-151.408 207.18-187.996 445.09-170.717 551.949-133.483 106.858 37.234 538.213 107.956 721.868 22.686C1710.91 176.568 1800.886 127.95 1858.4 87.56"/>
        <path d="M-179.84 492.837c178.342 24.391 336.572-26.078 474.693-151.409 207.18-187.995 445.09-170.716 551.948-133.482C953.66 245.18 1385.015 315.9 1568.67 230.63c122.437-56.847 212.412-105.464 269.926-145.853"/>
        <path d="M-199.645 490.054c178.342 24.391 336.572-26.079 474.692-151.41 207.18-187.995 445.091-170.716 551.949-133.482 106.858 37.234 538.213 107.956 721.868 22.686C1671.3 171 1761.276 122.383 1818.79 81.995"/>
        <path d="M-219.45 487.27c178.341 24.392 336.572-26.078 474.692-151.409 207.18-187.995 445.09-170.716 551.949-133.482 106.858 37.234 538.213 107.955 721.868 22.685 122.436-56.847 212.411-105.464 269.925-145.853"/>
        <path d="M-239.255 484.487c178.34 24.391 336.571-26.079 474.692-151.41 207.18-187.995 445.09-170.716 551.948-133.482 106.858 37.234 538.214 107.956 721.868 22.686 122.437-56.847 212.412-105.465 269.926-145.853"/>
        <path d="M-259.06 481.704c178.34 24.39 336.571-26.08 474.691-151.41C422.811 142.3 660.721 159.578 767.58 196.812c106.858 37.234 538.213 107.955 721.868 22.685 122.436-56.846 212.411-105.464 269.926-145.853"/>
        <path d="M-278.866 478.92c178.341 24.391 336.572-26.079 474.692-151.409 207.18-187.996 445.09-170.717 551.949-133.483 106.857 37.234 538.213 107.956 721.867 22.686 122.437-56.847 212.412-105.465 269.926-145.853"/>
        <path d="M-298.671 476.137c178.34 24.39 336.571-26.079 474.691-151.41C383.2 136.733 621.111 154.012 727.97 191.246c106.857 37.234 538.213 107.955 721.867 22.685 122.437-56.846 212.412-105.464 269.926-145.853"/>
        <path d="M-318.477 473.353c178.341 24.391 336.572-26.078 474.692-151.409 207.18-187.996 445.09-170.717 551.949-133.483 106.858 37.235 538.213 107.956 721.868 22.686 122.436-56.847 212.411-105.465 269.925-145.853"/>
        <path d="M-338.282 470.57C-159.941 494.96-1.71 444.49 136.41 319.16 343.59 131.166 581.5 148.445 688.358 185.679c106.858 37.234 538.214 107.955 721.868 22.685 122.437-56.846 212.412-105.464 269.926-145.853"/>
        <path d="M-358.087 467.786c178.34 24.391 336.571-26.078 474.691-151.409 207.18-187.996 445.091-170.717 551.95-133.482 106.857 37.234 538.212 107.955 721.867 22.685 122.436-56.847 212.412-105.464 269.926-145.853"/>
        <path d="M-377.893 465.003c178.341 24.39 336.572-26.079 474.692-151.41 207.18-187.995 445.09-170.716 551.949-133.482 106.858 37.234 538.213 107.955 721.868 22.685 122.436-56.846 212.411-105.464 269.925-145.853"/>
        <path d="M-397.698 462.22c178.34 24.39 336.571-26.08 474.692-151.41 207.18-187.995 445.09-170.717 551.948-133.482 106.858 37.234 538.214 107.955 721.868 22.685 122.437-56.847 212.412-105.464 269.926-145.853"/>
        <path d="M-417.503 459.436c178.34 24.39 336.571-26.079 474.691-151.41C264.368 120.032 502.28 137.31 609.137 174.545c106.858 37.234 538.213 107.956 721.868 22.686 122.436-56.847 212.412-105.465 269.926-145.854"/>
        <path d="M-437.309 456.652c178.341 24.391 336.572-26.078 474.692-151.409 207.18-187.995 445.09-170.716 551.949-133.482 106.858 37.234 538.213 107.955 721.868 22.685 122.436-56.847 212.411-105.464 269.925-145.853"/>
        <path d="M-457.114 453.869c178.34 24.391 336.571-26.079 474.692-151.41 207.18-187.995 445.09-170.716 551.948-133.482 106.858 37.234 538.214 107.956 721.868 22.686 122.437-56.847 212.412-105.465 269.926-145.853"/>
        <path d="M-476.92 451.086c178.341 24.39 336.572-26.08 474.692-151.41 207.18-187.995 445.09-170.716 551.949-133.482 106.858 37.234 538.213 107.955 721.868 22.685C1394.025 132.032 1484 83.415 1541.515 43.026"/>
        <path d="M-496.725 448.302c178.341 24.391 336.572-26.079 474.692-151.41 207.18-187.995 445.09-170.716 551.949-133.482 106.857 37.234 538.213 107.956 721.868 22.686 122.436-56.847 212.411-105.465 269.925-145.853"/>
        <path d="M-516.53 445.519c178.34 24.39 336.571-26.08 474.691-151.41 207.18-187.995 445.091-170.716 551.95-133.482 106.857 37.234 538.213 107.955 721.867 22.685 122.437-56.847 212.412-105.464 269.926-145.853"/>
        <path d="M-536.336 442.735c178.341 24.391 336.572-26.079 474.692-151.409 207.18-187.996 445.09-170.717 551.949-133.483 106.858 37.234 538.213 107.956 721.868 22.686 122.436-56.847 212.411-105.465 269.926-145.853"/>
        <path d="M-556.141 439.952c178.341 24.39 336.572-26.079 474.692-151.41C125.73 100.548 363.64 117.827 470.499 155.06c106.858 37.234 538.214 107.955 721.868 22.685C1314.804 120.9 1404.78 72.281 1462.293 31.892"/>
        <path d="M-575.946 437.168c178.34 24.391 336.571-26.079 474.691-151.409 207.18-187.996 445.091-170.717 551.95-133.483 106.857 37.235 538.212 107.956 721.867 22.686 122.436-56.847 212.412-105.465 269.926-145.853"/>
        <path d="M-595.752 434.385c178.341 24.39 336.572-26.079 474.692-151.41C86.12 94.98 324.03 112.26 430.889 149.494c106.858 37.234 538.213 107.955 721.868 22.685 122.436-56.846 212.411-105.464 269.925-145.853"/>
        <path d="M-615.557 431.601c178.34 24.391 336.572-26.078 474.692-151.409C66.315 92.196 304.225 109.475 411.083 146.71c106.858 37.234 538.214 107.955 721.868 22.685 122.437-56.847 212.412-105.464 269.926-145.853"/>
        <path d="M-635.362 428.818c178.34 24.39 336.571-26.079 474.691-151.41C46.51 89.414 284.42 106.693 391.278 143.927c106.858 37.234 538.213 107.955 721.868 22.685 122.436-56.846 212.412-105.464 269.926-145.853"/>
        <path d="M-655.168 426.034c178.341 24.391 336.572-26.078 474.692-151.409C26.704 86.63 264.614 103.908 371.473 141.143c106.858 37.234 538.213 107.955 721.868 22.685 122.436-56.847 212.411-105.464 269.925-145.853"/>
        <path d="M-674.973 423.25c178.34 24.392 336.571-26.078 474.692-151.408C6.899 83.846 244.809 101.125 351.667 138.359c106.858 37.234 538.214 107.956 721.868 22.686 122.437-56.847 212.412-105.465 269.926-145.854"/>
        <path d="M-694.779 420.467c178.341 24.391 336.572-26.078 474.692-151.409C-12.907 81.063 225.004 98.342 331.862 135.576 438.72 172.81 870.075 243.53 1053.73 158.26c122.436-56.847 212.412-105.464 269.926-145.853"/>
        <path d="M-714.584 417.684c178.341 24.391 336.572-26.079 474.692-151.41C-32.712 78.28 205.198 95.559 312.057 132.793c106.858 37.234 538.213 107.956 721.868 22.686C1156.36 98.63 1246.336 50.013 1303.85 9.625"/>
        <path d="M-734.39 414.9c178.342 24.392 336.572-26.078 474.692-151.409C-52.518 75.496 185.393 92.775 292.252 130.01c106.857 37.234 538.213 107.955 721.867 22.685C1136.556 95.847 1226.531 47.23 1284.045 6.841"/>
        <path d="M-754.195 412.117c178.341 24.391 336.572-26.079 474.692-151.41 207.18-187.995 445.09-170.716 551.949-133.482 106.858 37.234 538.213 107.956 721.868 22.686C1116.75 93.064 1206.725 44.446 1264.24 4.058"/>
        <path d="M-774 409.334c178.341 24.39 336.572-26.08 474.692-151.41C-92.128 69.93 145.782 87.208 252.64 124.442c106.858 37.234 538.214 107.955 721.868 22.685C1096.945 90.28 1186.92 41.663 1244.434 1.274"/>
    </g>
</svg>
