<svg xmlns="http://www.w3.org/2000/svg" width="43" height="73" viewBox="0 0 43 73">
    <defs>
        <linearGradient id="a" x1=".171%" x2="99.819%" y1="49.649%" y2="49.649%">
            <stop offset="0%" stop-color="#656565"/>
            <stop offset="100%" stop-color="#010101"/>
        </linearGradient>
        <linearGradient id="b" x1=".171%" x2="99.819%" y1="49.82%" y2="49.82%">
            <stop offset="0%" stop-color="#656565"/>
            <stop offset="100%" stop-color="#010101"/>
        </linearGradient>
        <linearGradient id="c" x1=".171%" x2="99.819%" y1="50.052%" y2="50.052%">
            <stop offset="0%" stop-color="#9F1C20"/>
            <stop offset="100%" stop-color="#ED2224"/>
        </linearGradient>
        <linearGradient id="d" x1=".171%" x2="99.819%" y1="50.259%" y2="50.259%">
            <stop offset="0%" stop-color="#9F1C20"/>
            <stop offset="100%" stop-color="#ED2224"/>
        </linearGradient>
        <linearGradient id="e" x1=".171%" x2="99.819%" y1="50.44%" y2="50.44%">
            <stop offset="0%" stop-color="#9F1C20"/>
            <stop offset="100%" stop-color="#ED2224"/>
        </linearGradient>
    </defs>
    <g fill="none" fill-rule="nonzero">
        <path fill="url(#a)" d="M.61 27.854s41.78 4.178 41.78 11.142V22.283s0-6.963-41.78-11.141v16.712z"/>
        <path fill="url(#b)" d="M.61 50.138s41.78 4.178 41.78 11.141V44.567s0-6.964-41.78-11.142v16.713z"/>
        <path fill="url(#c)" d="M42.39 0v16.713s0 6.963-41.78 11.141V11.142S42.39 6.964 42.39 0"/>
        <path fill="url(#d)" d="M.61 33.425s41.78-4.178 41.78-11.142v16.713s0 6.964-41.78 11.142V33.425z"/>
        <path fill="url(#e)" d="M.61 72.421V55.71s41.78-4.179 41.78-11.142v16.712s0 6.964-41.78 11.142"/>
    </g>
</svg>
