<svg id="gear-icon" xmlns="http://www.w3.org/2000/svg" viewBox="0 0 16 16"><g fill="currentColor"><path d="M14.1 8.8c0-.3.1-.5.1-.8 0-.3 0-.5-.1-.8l1.7-1.3c.2-.1.2-.3.1-.5l-1.6-2.8c-.1-.2-.3-.2-.5-.2l-2 .8c-.4-.3-.9-.6-1.4-.8L10.1.3C10 .1 9.8 0 9.6 0H6.4c-.3 0-.4.1-.5.3l-.3 2.2c-.5.2-1 .5-1.4.8l-2-.8c-.2-.1-.4-.1-.5.1L.1 5.4c-.1.2-.1.4.1.5l1.7 1.3c0 .3-.1.5-.1.8 0 .3 0 .5.1.8L.2 10.1c-.2.1-.2.3-.1.5l1.6 2.8c.1.2.3.2.5.2l2-.8c.4.3.9.6 1.4.8l.3 2.1c.1.2.2.3.5.3h3.3c.2 0 .4-.1.4-.3l.3-2.1c.5-.2 1-.5 1.4-.8l2 .8c.2.1.4 0 .5-.2l1.6-2.8c.1-.2.1-.4-.1-.5l-1.7-1.3zM8 11c-1.7 0-3-1.3-3-3s1.3-3 3-3 3 1.3 3 3-1.3 3-3 3z"/></g></svg>