<svg version="1.1" viewBox="0 0 16 16" xmlns="http://www.w3.org/2000/svg">
 <path fill="currentColor" d="m8 0c-4.4 0-8 3.6-8 8s3.6 8 8 8 8-3.6 8-8-3.6-8-8-8zm0 0.80078c4 0 7.1992 3.1992 7.1992 7.1992s-3.1992 7.1992-7.1992 7.1992-7.1992-3.1992-7.1992-7.1992 3.1992-7.1992 7.1992-7.1992zm0 2.7988c-1.3 0-2.4004 1.1004-2.4004 2.4004 0 0.2 0.20039 0.40039 0.40039 0.40039s0.40039-0.20039 0.40039-0.40039c0-0.9 0.69961-1.5996 1.5996-1.5996s1.5996 0.69961 1.5996 1.5996-0.69961 1.5996-1.5996 1.5996c-0.2 0-0.40039 0.20039-0.40039 0.40039v1.6992c0 0.2 0.20039 0.40039 0.40039 0.40039s0.40039-0.098828 0.40039-0.29883v-1.4004c1.1-0.2 2-1.2004 2-2.4004 0-1.3-1.1004-2.4004-2.4004-2.4004zm0 7.5c-0.2 0-0.40039 0.20039-0.40039 0.40039v1.0996c0 0.2 0.20039 0.40039 0.40039 0.40039s0.40039-0.20039 0.40039-0.40039v-1.0996c0-0.2-0.20039-0.40039-0.40039-0.40039z"/>
</svg>
