<?xml version="1.0" encoding="UTF-8"?>
<svg width="90" height="39" version="1.1" viewBox="0 0 90 39" xmlns="http://www.w3.org/2000/svg" xmlns:cc="http://creativecommons.org/ns#" xmlns:dc="http://purl.org/dc/elements/1.1/" xmlns:rdf="http://www.w3.org/1999/02/22-rdf-syntax-ns#">
 <metadata>
  <rdf:RDF>
   <cc:Work rdf:about="">
    <dc:format>image/svg+xml</dc:format>
    <dc:type rdf:resource="http://purl.org/dc/dcmitype/StillImage"/>
    <dc:title/>
   </cc:Work>
  </rdf:RDF>
 </metadata>
 <g fill-rule="evenodd">
  <path d="m34.623 23.128c0 2.87 0.83 4.46 2.494 4.771 1.663 0.312 2.889-0.072 3.679-1.153 0.374-0.457 0.644-1.174 0.81-2.152a9.075 9.075 0 0 0 0.032 -2.9 5.796 5.796 0 0 0 -1.029 -2.556c-0.54-0.748-1.33-1.123-2.369-1.123-1.414 0-2.37 0.52-2.869 1.56-0.5 1.04-0.748 2.223-0.748 3.553m7.109 7.172v-1.06c-0.749 1.165-1.757 1.892-3.025 2.183-1.268 0.29-2.525 0.187-3.772-0.312-1.248-0.499-2.319-1.424-3.212-2.775-0.895-1.35-1.341-3.128-1.341-5.332 0-2.577 0.592-4.666 1.777-6.268 1.186-1.599 3.087-2.4 5.707-2.4 1.995 0 3.844 0.54 5.55 1.622 1.704 1.08 2.556 3.077 2.556 5.986v8.793c0 2.91-0.852 4.895-2.556 5.955a10.315 10.315 0 0 1 -5.55 1.59c-3.826 0-6.196-1.787-7.11-5.363h4.553c0.332 0.582 0.842 1.03 1.528 1.342 0.685 0.311 1.371 0.394 2.057 0.249 0.686-0.146 1.31-0.552 1.871-1.217 0.562-0.665 0.883-1.662 0.967-2.993m19.456 0.998h-2.183c-0.623 0-1.133-0.197-1.528-0.592s-0.592-0.905-0.592-1.528v-8.481c0-0.998-0.302-1.725-0.904-2.183a3.275 3.275 0 0 0 -2.027 -0.686c-0.748 0-1.414 0.229-1.996 0.686-0.582 0.458-0.872 1.185-0.872 2.183v10.601h-4.366v-9.728c0-2.827 0.737-4.718 2.213-5.675a9.675 9.675 0 0 1 4.896 -1.559c1.828 0 3.512 0.478 5.05 1.434 1.538 0.957 2.308 2.89 2.308 5.8v9.728zm1.06-15.147h4.366v15.147h-4.366zm12.402 15.147a32.414 32.414 0 0 1 -4.458 -0.063c-1.6-0.124-2.4-1.142-2.4-3.055v-16.228h2.244c0.54 0 1.018 0.208 1.435 0.623 0.414 0.416 0.623 0.915 0.623 1.497v0.586h2.557v0.872c0 0.625-0.208 1.134-0.624 1.529a2.094 2.094 0 0 1 -1.496 0.592h-0.437v9.344c0 0.708 0.415 1.06 1.247 1.06h1.31v3.243z"/>
  <path d="m79.078 21.32h6.36c-0.082-1.122-0.373-1.954-0.872-2.494-0.54-0.582-1.309-0.873-2.307-0.873-0.915 0-1.663 0.291-2.245 0.873-0.583 0.582-0.894 1.414-0.936 2.494m7.484 4.865h3.118c-0.458 1.746-1.331 3.076-2.62 3.99-1.289 0.957-2.91 1.435-4.863 1.435-2.37 0-4.22-0.769-5.55-2.307-1.332-1.497-1.996-3.638-1.996-6.424 0-2.66 0.644-4.74 1.933-6.235 1.33-1.538 3.18-2.308 5.55-2.308 2.495 0 4.428 0.748 5.8 2.245 1.33 1.539 1.996 3.68 1.996 6.423v0.686c0 0.209-0.022 0.354-0.063 0.436h-10.789c0.042 1.29 0.353 2.245 0.936 2.869 0.54 0.666 1.35 0.998 2.432 0.998 0.707 0 1.31-0.145 1.808-0.436a0.875 0.875 0 0 0 0.344 -0.22l0.342-0.342c0.041-0.124 0.198-0.29 0.468-0.499 0.27-0.207 0.655-0.311 1.154-0.311m-61.482-17.658h2.245c0.581 0 1.08 0.208 1.496 0.623 0.415 0.417 0.624 0.915 0.624 1.497v20.651h-4.366v-22.771zm37.168 3.425h2.245c0.582 0 1.08 0.208 1.497 0.623 0.415 0.416 0.624 0.915 0.624 1.497v1.31h-4.366zm-26.818-1.739c0-0.384-0.13-0.712-0.387-0.983a1.263 1.263 0 0 0 -0.955 -0.407 1.36 1.36 0 0 0 -1.006 0.425c-0.263 0.266-0.394 0.55-0.394 0.852 0 0.398 0.122 0.737 0.366 1.019 0.254 0.295 0.578 0.443 0.972 0.443 0.377 0 0.706-0.131 0.985-0.393 0.279-0.263 0.419-0.58 0.419-0.956zm0.693 1.966h-0.693v-0.49c-0.35 0.384-0.821 0.576-1.414 0.576a2.01 2.01 0 0 1 -1.425 -0.556c-0.418-0.391-0.627-0.89-0.627-1.496 0-0.627 0.22-1.143 0.662-1.548 0.407-0.373 0.887-0.56 1.442-0.56 0.578 0 1.032 0.2 1.362 0.598v-0.501h0.693zm4.213-1.987c0-0.384-0.136-0.708-0.407-0.973a1.359 1.359 0 0 0 -0.983 -0.396c-0.4 0-0.73 0.145-0.988 0.436a1.386 1.386 0 0 0 -0.358 0.954c0 0.338 0.105 0.634 0.313 0.885 0.256 0.309 0.615 0.464 1.077 0.464 0.385 0 0.705-0.132 0.961-0.395 0.257-0.263 0.385-0.588 0.385-0.975m0.741-0.092c0 0.62-0.194 1.133-0.58 1.54-0.393 0.417-0.898 0.625-1.514 0.625-0.569 0-1.017-0.185-1.341-0.556v1.788h-0.725v-5.309h0.694v0.477c0.178-0.185 0.377-0.325 0.597-0.418 0.22-0.094 0.46-0.141 0.724-0.141a2.18 2.18 0 0 1 1.469 0.545c0.45 0.39 0.676 0.872 0.676 1.449m4.077 0.113c0-0.384-0.129-0.712-0.386-0.983a1.265 1.265 0 0 0 -0.956 -0.407c-0.39 0-0.727 0.142-1.005 0.425-0.264 0.266-0.395 0.55-0.395 0.852 0 0.398 0.122 0.737 0.367 1.019 0.254 0.295 0.578 0.443 0.971 0.443 0.378 0 0.706-0.131 0.985-0.393 0.28-0.263 0.42-0.58 0.42-0.956zm0.693 1.966h-0.693v-0.49c-0.35 0.384-0.822 0.576-1.414 0.576a2.012 2.012 0 0 1 -1.425 -0.556c-0.418-0.391-0.627-0.89-0.627-1.496 0-0.627 0.221-1.143 0.662-1.548 0.407-0.373 0.888-0.56 1.441-0.56 0.579 0 1.033 0.2 1.363 0.598v-0.501h0.693zm4.773-1.314c-0.237 0.462-0.504 0.804-0.804 1.026-0.336 0.25-0.746 0.374-1.229 0.374a2.066 2.066 0 0 1 -1.455 -0.583 2.01 2.01 0 0 1 -0.662 -1.53h0.031a0.4 0.4 0 0 1 -0.014 0.033c0-0.624 0.213-1.136 0.639-1.534a1.94 1.94 0 0 1 1.369 -0.545c0.49 0 0.918 0.125 1.285 0.376 0.367 0.25 0.643 0.604 0.826 1.062h-0.796c-0.272-0.48-0.705-0.72-1.3-0.72-0.374 0-0.687 0.132-0.936 0.397a1.353 1.353 0 0 0 -0.376 0.964c0 0.39 0.13 0.716 0.392 0.98 0.262 0.265 0.586 0.397 0.972 0.397 0.254 0 0.495-0.063 0.724-0.187 0.228-0.125 0.408-0.295 0.538-0.51h0.795zm4.13 1.318h-0.716v-2.286c0-0.31-0.1-0.565-0.295-0.763-0.197-0.198-0.452-0.297-0.763-0.297-0.304 0-0.55 0.091-0.74 0.274s-0.286 0.426-0.286 0.728v2.344h-0.724v-5.31h0.724v1.662c0.277-0.277 0.625-0.416 1.044-0.416 0.46 0 0.86 0.157 1.2 0.47 0.371 0.34 0.557 0.775 0.557 1.308v2.286zm3.97-2.375a1.372 1.372 0 0 0 -0.488 -0.722 1.297 1.297 0 0 0 -0.816 -0.28c-0.38 0-0.695 0.124-0.944 0.374a1.438 1.438 0 0 0 -0.367 0.628zm0.73 0.666h-3.359c0.057 0.343 0.224 0.616 0.501 0.82 0.245 0.178 0.51 0.268 0.793 0.268 0.27 0 0.522-0.076 0.758-0.227 0.245-0.156 0.414-0.356 0.508-0.6h0.738c-0.192 0.524-0.492 0.92-0.9 1.187-0.347 0.229-0.727 0.343-1.139 0.343-0.535 0-0.994-0.192-1.376-0.576-0.405-0.41-0.607-0.916-0.607-1.517 0-0.625 0.216-1.134 0.648-1.528a1.988 1.988 0 0 1 1.383 -0.538c0.538 0 1 0.177 1.387 0.532 0.444 0.405 0.665 0.948 0.665 1.63z"/>
  <path d="m14.941 0.14844s-16.913 6.5058-0.21875 18.049c5.98 4.135 4.9794 8.3509 4.9824 8.5059 0.945-0.975 5.7088-6.274 0.048828-12.209-5.66-5.934-7.2325-9.5967-4.8125-14.346zm-8.8359 6.4648s-13.215 8.0563-0.76172 16.07c2.403 1.553 11.088 5.9054 10.832 9.8984 0 0 5.2612-7.8044-2.4258-12.693-7.91-5.029-9.8905-10.378-7.6445-13.275zm-4.5996 15.406s-4.7235 7.1573 4.5605 8.6133c0.907 0.117 7.6331 0.81362 9.3691 3.0156 0 0-0.16105-3.801-5.623-6.043s-7.6996-2.7989-8.3066-5.5859z" fill="#f90314"/>
 </g>
</svg>
