<svg xmlns="http://www.w3.org/2000/svg" width="92" height="12" viewBox="0 0 92 12">
    <path fill="#F80000" fill-rule="nonzero" d="M38.297 7.504h5.853l-3.095-4.98-5.68 9.003H32.79L39.699.713c.3-.437.8-.7 1.356-.7.537 0 1.038.254 1.329.682l6.936 10.832h-2.585l-1.22-2.012H39.59l-1.293-2.011zm26.852 2.011V.121h-2.194v10.313c0 .283.11.556.32.765.208.21.49.328.8.328h10.004l1.292-2.012H65.15zM28.858 7.831a3.854 3.854 0 1 0 0-7.71H19.26v11.406h2.193V2.133h7.258c1.02 0 1.839.828 1.839 1.848s-.82 1.848-1.839 1.848l-6.184-.01 6.548 5.708h3.186L27.856 7.83h1.002zM5.762 11.527A5.7 5.7 0 0 1 .058 5.829 5.708 5.708 0 0 1 5.762.12h6.63a5.707 5.707 0 0 1 5.702 5.708 5.699 5.699 0 0 1-5.703 5.698h-6.63zm6.482-2.012a3.687 3.687 0 0 0 3.692-3.686 3.694 3.694 0 0 0-3.692-3.696H5.909a3.695 3.695 0 0 0-3.692 3.696 3.687 3.687 0 0 0 3.692 3.686h6.335zm41.654 2.012a5.703 5.703 0 0 1-5.707-5.698A5.71 5.71 0 0 1 53.898.12h7.874l-1.284 2.012h-6.444a3.69 3.69 0 1 0 0 7.382h7.91l-1.292 2.012h-6.764zm26.825-2.012a3.686 3.686 0 0 1-3.55-2.685h9.376l1.292-2.012H77.173a3.697 3.697 0 0 1 3.55-2.685h6.436L88.46.121h-7.883a5.71 5.71 0 0 0-5.707 5.707 5.703 5.703 0 0 0 5.707 5.699h6.763l1.292-2.012h-7.91zm8.912-8.183A.998.998 0 0 1 90.636.331a1 1 0 0 1 1.01 1.001c0 .564-.446 1.01-1.01 1.01a1 1 0 0 1-1.001-1.01zm1.001 1.293c.71 0 1.284-.574 1.284-1.284a1.28 1.28 0 0 0-2.558 0c0 .71.573 1.284 1.274 1.284zM90.518.576c.2 0 .282.01.373.046.255.082.282.31.282.4 0 .019 0 .064-.018.119a.369.369 0 0 1-.173.246c-.018.009-.027.018-.064.036l.328.592h-.319l-.291-.546h-.2v.546h-.282V.576h.364zm.1.656c.09-.01.182-.01.236-.091a.192.192 0 0 0 .037-.128.204.204 0 0 0-.11-.172c-.063-.028-.127-.028-.263-.028h-.082v.419h.182z"/>
</svg>
