<svg xmlns="http://www.w3.org/2000/svg" width="42" height="39" viewBox="0 0 42 39">
    <g fill="none" fill-rule="nonzero">
        <path fill="#FF7300" d="M9.376 12.332S15.346.008 21.069.008c5.722 0 11.483 12.324 11.483 12.324l-.936 1.815S27.87 9.256 21.069 9.256c-6.802 0-10.7 4.89-10.7 4.89l-.993-1.814z"/>
        <path fill="#FFB780" d="M13.537 12.488a13.108 13.108 0 0 0-2.595 2.374c1.753 2.27 5.022 5.247 10.128 5.247 5.077 0 8.24-2.942 9.927-5.206a13.129 13.129 0 0 0-2.557-2.368c-1.64 1.413-4.071 2.779-7.37 2.779-3.35 0-5.852-1.4-7.533-2.826z"/>
        <path fill="#F30" d="M31.034 9.46c-.033.06-.642 1.174-1.886 2.42 1.62 1.16 2.468 2.267 2.468 2.267l.936-1.816s-.565-1.21-1.518-2.872zm-20.108.03c-.97 1.645-1.552 2.841-1.552 2.841l.997 1.816s.872-1.096 2.514-2.25c-1.301-1.26-1.948-2.388-1.96-2.408z"/>
        <g>
            <path fill="#FF7300" d="M36.238 18.719s7.688 11.333 4.826 16.288c-2.86 4.956-16.414 3.783-16.414 3.783l-1.103-1.718s6.108-.798 9.509-6.688c3.4-5.891 1.114-11.712 1.114-11.712l2.068.047z"/>
            <path fill="#FFB780" d="M34.022 22.245a13.108 13.108 0 0 0-.759-3.435c-2.841.383-7.054 1.726-9.607 6.148-2.538 4.397-1.573 8.607-.455 11.2 1.148-.194 2.271-.54 3.33-1.03-.405-2.127-.372-4.915 1.278-7.772 1.675-2.901 4.137-4.369 6.213-5.111z"/>
            <path fill="#F30" d="M27.897 38.912c-.036-.059-.696-1.143-1.154-2.843-1.814.822-3.197 1.003-3.197 1.003l1.105 1.719s1.331.115 3.246.121zm10.028-17.43a44.635 44.635 0 0 0-1.685-2.764l-2.071-.045s.513 1.304.692 3.303c1.742-.497 3.042-.494 3.064-.493z"/>
        </g>
        <g>
            <path fill="#FF7300" d="M17.276 38.79s-13.658.99-16.52-3.966c-2.86-4.955 4.932-16.106 4.932-16.106l2.04-.097s-2.364 5.69 1.037 11.58 9.586 6.82 9.586 6.82l-1.075 1.768z"/>
            <path fill="#FFB780" d="M15.33 35.107c1.066.503 2.195.86 3.354 1.06 1.09-2.652 2.032-6.972-.52-11.394-2.54-4.396-6.668-5.665-9.473-5.994a13.129 13.129 0 0 0-.771 3.399c2.043.713 4.441 2.136 6.09 4.992 1.676 2.902 1.715 5.768 1.32 7.937z"/>
            <path fill="#F30" d="M3.958 21.469c.07-.002 1.339-.031 3.04.422.195-1.982.73-3.27.73-3.27l-2.041.097s-.766 1.095-1.729 2.75zm10.08 17.4c1.911.016 3.238-.078 3.238-.078l1.074-1.771s-1.385-.208-3.206-1.052c-.44 1.757-1.094 2.88-1.105 2.9z"/>
        </g>
    </g>
</svg>
