<svg xmlns="http://www.w3.org/2000/svg" width="128" height="128" viewBox="0 0 256 256"><defs><linearGradient id="IconifyId191d642780c1650ec277" x1="0%" x2="100%" y1="100%" y2="0%"><stop offset="0%" stop-color="#B0084D"/><stop offset="100%" stop-color="#FF4F8B"/></linearGradient></defs><path fill="url(#IconifyId191d642780c1650ec277)" d="M0 0h256v256H0z"/><path fill="#FFF" d="m187.33 150.563l6.019 2.081l-3.797 10.971a3.18 3.18 0 0 1-3.005 2.14q-.196 0-.397-.023l-12.26-1.528l.789-6.318l6.929.866c-2.725-4.293-7.865-6.973-14.008-6.973c-8.046 0-14.144 4.401-15.535 11.213l-6.235-1.274c2.024-9.904 10.57-16.305 21.77-16.305c7.852 0 14.501 3.326 18.502 8.705zm-4.195 21.563l6.236 1.28c-2.015 9.834-10.765 16.442-21.77 16.442c-7.165 0-13.48-3.087-17.56-8.04l-.634 2.989l-6.228-1.321l2.524-11.91a3.17 3.17 0 0 1 3.727-2.463l11.576 2.266l-1.223 6.248l-5.834-1.143c2.795 4.284 7.846 7.008 13.651 7.008c8.02 0 14.12-4.459 15.535-11.356m24.9.993l-3.83-.216c-1.543-.073-2.94.958-3.284 2.48a33.5 33.5 0 0 1-4.373 10.556a3.185 3.185 0 0 0 .57 4.074l2.86 2.55l-7.412 7.416l-2.54-2.846a3.18 3.18 0 0 0-4.077-.573a33.6 33.6 0 0 1-10.573 4.383a3.18 3.18 0 0 0-2.473 3.285l.216 3.806h-10.49l.22-3.81a3.185 3.185 0 0 0-2.477-3.287a33.5 33.5 0 0 1-10.567-4.383a3.174 3.174 0 0 0-4.074.573l-2.546 2.852l-7.416-7.416l2.852-2.543a3.18 3.18 0 0 0 .573-4.071a33.6 33.6 0 0 1-4.37-10.57c-.34-1.521-1.786-2.581-3.285-2.476l-3.822.216v-10.487l3.835.216c1.41.064 2.938-.954 3.285-2.473a33.5 33.5 0 0 1 4.38-10.547a3.185 3.185 0 0 0-.574-4.074l-2.874-2.566l7.416-7.419l2.565 2.871a3.18 3.18 0 0 0 4.071.576a33.6 33.6 0 0 1 10.551-4.367a3.185 3.185 0 0 0 2.476-3.287l-.22-3.845h10.491l-.216 3.85a3.18 3.18 0 0 0 2.473 3.286a33.6 33.6 0 0 1 10.541 4.37a3.19 3.19 0 0 0 4.074-.573l2.572-2.88l7.416 7.418l-2.868 2.556a3.185 3.185 0 0 0-.57 4.074a33.6 33.6 0 0 1 4.377 10.557c.343 1.519 1.817 2.537 3.284 2.473l3.832-.216zm5.366-16.172a3.2 3.2 0 0 0-2.365-.865l-4.596.264a40 40 0 0 0-3.145-7.585l3.438-3.068a3.2 3.2 0 0 0 1.063-2.285a3.2 3.2 0 0 0-.933-2.34l-12.18-12.183c-.621-.618-1.43-.977-2.343-.93c-.875.026-1.7.408-2.285 1.06l-3.078 3.454a40 40 0 0 0-7.572-3.139l.261-4.618a3.18 3.18 0 0 0-.865-2.365a3.17 3.17 0 0 0-2.311-.996h-17.23a3.18 3.18 0 0 0-3.176 3.361l.26 4.612a39.8 39.8 0 0 0-7.577 3.138l-3.075-3.444a3.17 3.17 0 0 0-2.285-1.063c-.888-.038-1.719.312-2.34.93l-12.183 12.184a3.17 3.17 0 0 0-.933 2.339a3.2 3.2 0 0 0 1.063 2.285l3.447 3.078a40 40 0 0 0-3.148 7.575l-4.602-.264a3.15 3.15 0 0 0-2.365.865a3.18 3.18 0 0 0-.996 2.314v17.229c0 .872.36 1.712.996 2.314c.634.601 1.5.907 2.365.862l4.587-.26a40 40 0 0 0 3.144 7.597l-3.428 3.052a3.18 3.18 0 0 0-.13 4.628l12.184 12.18c.62.62 1.527.961 2.339.933a3.18 3.18 0 0 0 2.285-1.063l3.056-3.425a40 40 0 0 0 7.597 3.15l-.261 4.578a3.18 3.18 0 0 0 3.176 3.364h17.229a3.17 3.17 0 0 0 2.31-.996a3.18 3.18 0 0 0 .866-2.368l-.26-4.57a39.8 39.8 0 0 0 7.6-3.152l3.049 3.419a3.18 3.18 0 0 0 2.285 1.063c.923.038 1.722-.312 2.343-.933l12.18-12.18a3.2 3.2 0 0 0 .933-2.343a3.18 3.18 0 0 0-1.063-2.282l-3.431-3.062a39.8 39.8 0 0 0 3.144-7.59l4.59.26a3.26 3.26 0 0 0 2.365-.862c.64-.602.999-1.442.999-2.314v-17.23c0-.875-.36-1.712-1-2.314m-165.435 18.33h63.655v6.366H44.783a3.18 3.18 0 0 1-3.183-3.183V44.783a3.18 3.18 0 0 1 3.183-3.183H191.19a3.18 3.18 0 0 1 3.183 3.183v70.021h-6.366V47.966H47.966zM152.998 86.16h-3.183v-6.366h19.097v6.366zm3.182-12.731h6.366V60.697h-6.366zm12.732 41.376v-22.28h3.182a3.18 3.18 0 0 0 3.183-3.182V76.61a3.18 3.18 0 0 0-3.183-3.183h-3.182V57.514a3.18 3.18 0 0 0-3.183-3.183h-12.731a3.18 3.18 0 0 0-3.183 3.183v15.914h-3.183a3.18 3.18 0 0 0-3.183 3.183v12.73a3.18 3.18 0 0 0 3.183 3.184h3.183v22.28h6.365v-22.28h6.366v22.28zm-60.473 6.366h-3.183v-6.366h19.097v6.366zm3.182-12.731h6.366V60.697h-6.366zm12.732 25.462v-6.366h3.182a3.18 3.18 0 0 0 3.183-3.182V111.62a3.18 3.18 0 0 0-3.183-3.182h-3.182V57.514a3.18 3.18 0 0 0-3.183-3.183h-12.731a3.18 3.18 0 0 0-3.183 3.183v50.925h-3.183a3.18 3.18 0 0 0-3.183 3.182v12.732a3.18 3.18 0 0 0 3.183 3.182h3.183v35.011h6.365v-35.01h6.366v6.365zM60.697 89.34h19.096v6.366H60.697zm6.365-6.365h6.366v-22.28h-6.366zm0 73.204h6.366v-54.107h-6.366zm-3.182 6.366h12.73a3.18 3.18 0 0 0 3.183-3.183v-57.29h3.183a3.18 3.18 0 0 0 3.183-3.183V86.16a3.18 3.18 0 0 0-3.183-3.184h-3.183V57.514a3.18 3.18 0 0 0-3.182-3.183H63.88a3.18 3.18 0 0 0-3.183 3.183v25.462h-3.183a3.18 3.18 0 0 0-3.183 3.183V98.89a3.18 3.18 0 0 0 3.183 3.183h3.183v57.29a3.18 3.18 0 0 0 3.183 3.183"/></svg>