<?xml version="1.0" standalone="no"?><!DOCTYPE svg PUBLIC "-//W3C//DTD SVG 1.1//EN" "http://www.w3.org/Graphics/SVG/1.1/DTD/svg11.dtd"><svg t="1741946725587" class="icon" viewBox="0 0 1024 1024" version="1.1" xmlns="http://www.w3.org/2000/svg" p-id="18817" xmlns:xlink="http://www.w3.org/1999/xlink" width="200" height="200"><path d="M504.8 624.8v60c-96.8 0-176-77.6-176-172.8s78.4-172.8 176-172.8c96.8 0 176 77.6 176 172.8 0 20-3.2 40-10.4 59.2h-67.2c11.2-17.6 17.6-38.4 17.6-59.2 0-62.4-51.2-112.8-115.2-112.8-63.2 0-115.2 50.4-115.2 112.8-0.8 62.4 51.2 112.8 114.4 112.8z m-14.4 240c4 0 7.2 1.6 10.4 4 2.4 2.4 4 6.4 4 10.4v31.2c0 8-6.4 14.4-14.4 14.4h-57.6c-27.2 0-50.4-20.8-51.2-48l-8-60.8c-24.8-10.4-48.8-24-70.4-40l-57.6 23.2c-24 12.8-54.4 4-68-20l-72-122.4c-13.6-23.2-6.4-53.6 16.8-68l48.8-37.6c-4-26.4-4-53.6 0-80l-48.8-37.6c-23.2-14.4-30.4-44-16.8-68l72-122.4c14.4-23.2 44-32 68-20l57.6 23.2c21.6-16 45.6-29.6 70.4-40l8-60.8c1.6-27.2 24-48.8 51.2-48h144c27.2 0 50.4 20.8 51.2 48l8.8 60.8c24.8 10.4 48.8 24 70.4 40l57.6-23.2c24.8-12 54.4-4 68 20l72 122.4c13.6 23.2 6.4 53.6-16.8 68l-49.6 37.6c3.2 26.4 3.2 53.6 0 80l24.8 19.2H773.6L776 560c6.4-31.2 6.4-64 0-96l-3.2-17.6 75.2-56.8L784 280l-86.4 36.8-14.4-12c-24.8-20.8-53.6-36.8-84-48l-17.6-6.4L568 158.4H441.6l-12.8 92-17.6 6.4c-30.4 10.4-59.2 27.2-84 48l-14.4 12-87.2-35.2-63.2 108 75.2 56.8-4 17.6c-3.2 16-4.8 32-4.8 48s1.6 32 4.8 48l3.2 17.6-75.2 56.8 64 109.6L312 707.2l14.4 12c24.8 20.8 53.6 36.8 84 47.2l17.6 6.4 12.8 92.8c0.8 0 49.6 0 49.6-0.8z" fill="#1A9BEC" p-id="18818"></path><path d="M904.8 688.8H584c-7.2 0-13.6-6.4-13.6-13.6v-32c0-7.2 6.4-13.6 13.6-13.6h321.6c7.2 0 13.6 6.4 13.6 13.6v32c-0.8 8-6.4 13.6-14.4 13.6z m0 118.4H584c-7.2 0-13.6-6.4-13.6-13.6v-32c0-7.2 6.4-13.6 13.6-13.6h321.6c7.2 0 13.6 6.4 13.6 13.6v32c-0.8 7.2-6.4 13.6-14.4 13.6z m0 118.4H584c-7.2 0-13.6-6.4-13.6-13.6v-32c0-7.2 6.4-13.6 13.6-13.6h321.6c7.2 0 13.6 6.4 13.6 13.6v32c-0.8 7.2-6.4 13.6-14.4 13.6z" fill="#FE5F5E" p-id="18819"></path></svg>