<svg id="csv-icon" xmlns="http://www.w3.org/2000/svg" viewBox="0 0 512 512"><path fill="currentColor" d="M10.4 61.6v380.8l280.1 49.8V11.8L10.4 61.6zm161 270.5l-23.5-61.7-23.1 58.5H92.7l37.5-81.6-34.8-80h33l21.3 55.2 25.3-59.9 31.7-1.6-39.6 85.5 41.2 88.3-36.9-2.7zM489.3 61.1H300v27.8h71.2V139H300v15.1h71.2v50.1H300v15.1h71.2v50.1H300v15.1h71.2v50.2H300v15.4h71.2v50.1H300v32.2h189.3c5.4 0 9.7-4.5 9.7-10V71.2c0-5.6-4.4-10.1-9.7-10.1zm-23.1 339.2h-80.3v-50.1h80.3v50.1zm0-65.5h-80.3v-50.2h80.3v50.2zm0-65.2h-80.3v-50.1h80.3v50.1zm0-65.3h-80.3v-50.2h80.3v50.2zm0-65.2h-80.3V88.9h80.3v50.2z"/></svg>