<svg xmlns="http://www.w3.org/2000/svg" width="16" height="18" viewBox="0 0 16 18">
    <path fill="currentColor" fill-rule="nonzero" d="M15.723 8.354l-4.17-4.17a.633.633 0 0 0-.893.894l3.134 3.133H5.632a.632.632 0 0 0 0 1.264h8.162l-3.091 3.091a.632.632 0 0 0 .893.893l4.17-4.17a.605.605 0 0 0 .041-.045c.007-.007.011-.015.017-.023l.02-.027c.006-.01.01-.019.017-.028l.015-.025.013-.029c.005-.009.01-.018.013-.027l.01-.028.011-.03.007-.029.008-.031.005-.034.004-.027a.64.64 0 0 0-.004-.152l-.005-.033-.008-.032-.007-.029-.01-.03a.249.249 0 0 0-.01-.028l-.014-.027-.013-.029-.015-.025-.017-.028c-.006-.01-.013-.018-.02-.027l-.017-.023a.61.61 0 0 0-.065-.067.304.304 0 0 0-.019-.022zM1 0h8.614v1.374h-8.24V16.48h8.24v1.373H1a1 1 0 0 1-1-1V1a1 1 0 0 1 1-1z"/>
</svg>
