<svg xmlns="http://www.w3.org/2000/svg" width="12" height="17" viewBox="0 0 12 17">
    <path fill="currentColor" fill-rule="nonzero" d="M10.286 4.285v-.428.5c0 .587-.384 1.072-.857 1.072-.477 0-.858-.48-.858-1.072v-.5.428A2.573 2.573 0 0 0 6 1.715a2.57 2.57 0 0 0-2.571 2.57v3.001c0 .096.005.192.015.285H10.286A1.719 1.719 0 0 1 12 9.291v5.704c0 .955-.77 1.72-1.72 1.72H1.72c-.951 0-1.72-.77-1.72-1.72V9.29c0-.954.767-1.717 1.714-1.72V4.285a4.285 4.285 0 1 1 8.572 0zm-4.572 9.292a.286.286 0 0 0 .572 0v-1.483a.857.857 0 1 0-.572 0v1.483z"/>
</svg>
