<?xml version="1.0" standalone="no"?><!DOCTYPE svg PUBLIC "-//W3C//DTD SVG 1.1//EN" "http://www.w3.org/Graphics/SVG/1.1/DTD/svg11.dtd"><svg t="1741945567880" class="icon" viewBox="0 0 1024 1024" version="1.1" xmlns="http://www.w3.org/2000/svg" p-id="8468" xmlns:xlink="http://www.w3.org/1999/xlink" width="200" height="200"><path d="M5.298087 0H1024v1022.901797H5.298087z" fill="#FFFFFF" p-id="8469"></path><path d="M0 0.912696h1018.88742V1024H0z" fill="#FFFFFF" opacity=".5" p-id="8470"></path><path d="M488.002783 491.022841l-375.615073-158.912928a16.361739 16.361739 0 0 0-12.614493 6.359188c0 3.168464-3.153623 9.535072-3.153623 12.703537v381.402898c0 3.183304-3.153623 9.535072 18.92916 19.062725l375.622492 177.983072a20.435478 20.435478 0 0 0 18.93658-19.070145V519.620638c-3.138783-9.535072-3.138783-19.070145-22.105043-28.597797z m-110.480696 66.782608v22.26087c0 3.190725-3.161043 9.549913-9.46829 6.366609-47.34887-22.26087-94.705159-41.308754-145.192811-63.554783-6.314667-3.183304-12.614493-6.351768-12.614493-12.718377v-41.375536c0-6.359188 3.161043-12.718377 9.46829-9.542493l148.361275 66.782609c12.636754 6.322087 9.47571 6.322087 9.47571 31.729159z m580.778667-219.306666a23.744928 23.744928 0 0 0-12.614493-6.359189L570.086029 491.052522c-18.95142 6.351768-18.95142 15.87942-18.95142 25.429333v394.091594a20.450319 20.450319 0 0 0 18.95142 19.070145l139.174957-73.015652A181.797101 181.797101 0 1 1 962.196406 611.431884c0.853333 1.484058 1.632464 2.968116 2.441275 4.452174V351.172638a16.532406 16.532406 0 0 0-6.307246-12.703537z m-25.228986-44.52174a15.434203 15.434203 0 0 0 0-22.260869L541.666319 109.619942a43.27513 43.27513 0 0 0-34.719536 0l-385.113044 165.272116a19.174029 19.174029 0 0 0-3.161043 12.710956c0 3.183304 3.146203 9.542493 6.322087 9.542493l394.559072 165.264696c12.614493 6.351768 9.46829 6.351768 22.082783 0z m-400.265275 29.68116v-33.53971c0-1.80313-1.587942-1.80313-3.020058-1.803131a188.297275 188.297275 0 0 0-18.973681 0 159.254261 159.254261 0 0 0-17.192812 1.803131 141.030029 141.030029 0 0 0-15.382261 3.264927 116.416928 116.416928 0 0 0-13.57171 4.526377 86.53542 86.53542 0 0 0-12.050551 5.735884c-3.628522 2.099942-6.945391 4.222145-10.559072 6.678261a91.410551 91.410551 0 0 0-9.060174 7.249623c-2.730667 2.404174-5.12 5.11258-7.546435 7.524174a53.619014 53.619014 0 0 0-6.322087 7.850667c-1.79571 2.708406-3.621101 5.12-5.409391 8.162319a65.461797 65.461797 0 0 0-4.222145 7.850666 57.514667 57.514667 0 0 0-3.32429 7.553855c-0.905275 2.419014-1.80313 4.526377-2.715826 6.930551-0.601043 2.114783-1.216928 3.932754-1.817971 6.040116a30.423188 30.423188 0 0 0-1.187246 5.12742c-0.311652 1.209507-0.615884 2.708406-0.912696 3.932754 0 0.912696-0.289391 1.817971-0.289391 2.426435a0.934957 0.934957 0 0 0 0 0.905275 208.747594 208.747594 0 0 1 4.808347-98.689855C427.27513 202.588754 511.109565 207.419362 511.109565 207.419362h18.966261c1.587942 0 2.404174 0 2.404174-1.81055V168.811594a8.637217 8.637217 0 0 1 6.322087-10.321623 8.19942 8.19942 0 0 1 8.162319 2.767768l107.965217 74.855884a11.419826 11.419826 0 0 1 4.979015 15.063189 11.056232 11.056232 0 0 1-4.979015 5.149681v0.051942L547.276058 331.241739c-8.125217 5.342609-14.454725 2.025739-14.454725-7.628058z" fill="#FCA61D" p-id="8471"></path><path d="M960.549101 834.404174l-38.585507-42.466319a151.833971 151.833971 0 0 0 10.084174-164.730435 146.372638 146.372638 0 0 0-88.954435-70.181101 143.953623 143.953623 0 0 0-38.362898-5.231305 147.730551 147.730551 0 0 0-141.794319 110.822029 151.81171 151.81171 0 0 0 14.425043 113.871769 146.357797 146.357797 0 0 0 88.954435 70.173681 143.293217 143.293217 0 0 0 120.609392-20.695189l38.852637 42.75571a23.744928 23.744928 0 0 0 34.200116 0.608464 25.073159 25.073159 0 0 0 0.593623-34.919884z m-181.626434-35.402203a98.214957 98.214957 0 0 1-59.65171-47.089159 101.873159 101.873159 0 0 1-9.70574-76.377044 99.112812 99.112812 0 0 1 95.128116-74.358725 96.871884 96.871884 0 0 1 25.733566 3.502377 98.207536 98.207536 0 0 1 59.65171 47.081739 101.888 101.888 0 0 1 9.705739 76.384464 99.105391 99.105391 0 0 1-95.142957 74.358725 97.257739 97.257739 0 0 1-25.718724-3.502377z m0 0" fill="#FCA61D" p-id="8472"></path></svg>