<svg version="1.1" viewBox="0 0 20 16" xmlns="http://www.w3.org/2000/svg">
	<path d="M6.454 9.208c0-.2-.07-.353-.211-.46-.141-.107-.395-.22-.762-.338a5.4 5.4 0 0 1-.871-.351c-.583-.315-.875-.74-.875-1.273 0-.278.079-.525.235-.743a1.53 1.53 0 0 1 .673-.51c.293-.121.622-.183.986-.183.367 0 .694.067.98.2.287.133.51.32.669.562.158.242.238.517.238.825H6.458c0-.235-.074-.417-.222-.548-.148-.13-.357-.196-.625-.196-.258 0-.46.055-.603.164a.517.517 0 0 0-.215.432c0 .167.084.307.252.42.169.113.416.219.743.317.602.181 1.04.406 1.315.674.275.268.413.602.413 1.001 0 .445-.168.793-.505 1.046-.336.253-.788.38-1.357.38-.395 0-.755-.073-1.08-.218a1.708 1.708 0 0 1-.742-.594 1.522 1.522 0 0 1-.255-.875h1.061c0 .567.339.85 1.016.85.251 0 .448-.05.589-.153a.5.5 0 0 0 .211-.429zm5.988-1.103c0 .48-.077.896-.233 1.25-.155.354-.37.637-.645.851l.854.67-.674.596-1.093-.878a2.314 2.314 0 0 1-.388.032c-.426 0-.805-.102-1.14-.307a2.038 2.038 0 0 1-.775-.876c-.183-.38-.276-.816-.279-1.31v-.254c0-.506.091-.95.274-1.335.182-.384.44-.68.772-.885a2.124 2.124 0 0 1 1.14-.309c.429 0 .809.103 1.142.309.332.206.59.5.772.885.182.385.273.828.273 1.331v.23zm-1.072-.233c0-.538-.096-.948-.289-1.227-.193-.28-.468-.42-.825-.42-.355 0-.63.138-.822.414-.193.277-.29.682-.293 1.215v.25c0 .525.097.932.29 1.22.192.29.47.435.832.435.355 0 .628-.14.818-.418.19-.279.287-.685.29-1.219v-.25zm2.906 1.834h2.246v.85h-3.304V5.42h1.058v4.285zM18.182 0H1.818C.818 0 0 .8 0 1.778v12.444C0 15.2.818 16 1.818 16h16.364c1 0 1.818-.8 1.818-1.778V1.778C20 .8 19.182 0 18.182 0zM1.818 1.769h16.364V14.23H1.818V1.77z" fill="currentColor" fill-rule="evenodd"/>
</svg>
