<?xml version="1.0" standalone="no"?><!DOCTYPE svg PUBLIC "-//W3C//DTD SVG 1.1//EN" "http://www.w3.org/Graphics/SVG/1.1/DTD/svg11.dtd"><svg t="1741945183001" class="icon" viewBox="0 0 1024 1024" version="1.1" xmlns="http://www.w3.org/2000/svg" p-id="1619" xmlns:xlink="http://www.w3.org/1999/xlink" width="200" height="200"><path d="M263.253333 527.786667l10.517334 17.536 87.68 52.117333v132.309333l-109.226667-62.144v-60.138666l-74.666667 43.605333v55.125333l346.794667 201.472 338.282667-200.96V654.08a62.08 62.08 0 0 1-30.08-53.12 61.589333 61.589333 0 0 1 61.653333-61.653333 61.589333 61.589333 0 0 1 61.653333 61.653333 62.762667 62.762667 0 0 1-29.589333 53.12v88.704L524.842667 981.333333 113.92 742.272v-127.786667l138.325333-80.682666v-1.002667l1.002667 0.490667 10.026667-5.504z m129.792 86.698666l126.784 72.661334 120.277334-68.16v131.306666l-120.277334 71.168-126.784-74.666666v-132.309334z m391.893334-81.194666v134.314666l-109.226667 62.144v-132.309333l109.226667-64.149333z m-265.109334-167.381334l120.277334 72.170667v149.333333l-120.277334 68.16-126.784-73.173333V440.106667l126.784-74.176z m85.696 111.765334l-72.149333 42.602666v88.192l72.149333-41.088V477.653333z m-178.410666 2.986666v82.197334l72.170666 41.6v-83.690667l-72.170666-40.106667zM376 283.733333l110.762667 64.128-125.290667 72.170667v144.853333l-108.757333-62.656v-146.346666l123.306666-72.149334zM516.330667 42.666667l409.941333 238.058666v138.816l-148.842667 87.189334v-0.490667l-101.226666 58.624V420.053333l-124.8-72.661333 110.762666-64.149333 123.285334 72.661333v73.685333l78.186666-45.610666v-66.154667L516.821333 116.330667 178.56 317.290667v52.138666a62.08 62.08 0 0 1 30.08 53.12c0 34.069333-27.562667 62.144-61.653333 62.144A61.589333 61.589333 0 0 1 85.333333 423.04a62.08 62.08 0 0 1 30.08-53.12v-88.704L516.330667 42.666667z m3.498666 362.837333l-76.672 45.098667 73.173334 40.597333 73.664-43.605333-70.165334-42.090667z m0-202.965333l109.76 62.634666-109.76 63.658667-109.738666-63.658667 109.738666-62.634666z" fill="#2B85FB" p-id="1620"></path></svg>