<svg xmlns="http://www.w3.org/2000/svg" width="33" height="52" viewBox="0 0 33 52">
    <path fill="#000" fill-rule="nonzero" d="M25.248 28.802c-2.024 0-3.84.897-5.083 2.31l-3.186-2.256c.338-.931.533-1.93.533-2.977a8.697 8.697 0 0 0-.515-2.929l3.179-2.231a6.758 6.758 0 0 0 5.072 2.298 6.786 6.786 0 0 0 6.78-6.78 6.786 6.786 0 0 0-6.78-6.778 6.786 6.786 0 0 0-6.778 6.779c0 .669.1 1.314.282 1.925l-3.18 2.232a8.75 8.75 0 0 0-5.422-3.15v-3.833c3.071-.645 5.385-3.373 5.385-6.633A6.786 6.786 0 0 0 8.755 0a6.786 6.786 0 0 0-6.778 6.779c0 3.216 2.254 5.91 5.263 6.602v3.883C3.133 17.984 0 21.568 0 25.879c0 4.331 3.164 7.928 7.3 8.625v4.1c-3.04.668-5.323 3.38-5.323 6.617A6.786 6.786 0 0 0 8.756 52a6.786 6.786 0 0 0 6.779-6.779c0-3.238-2.284-5.949-5.324-6.617v-4.1a8.753 8.753 0 0 0 5.33-3.1l3.206 2.27a6.746 6.746 0 0 0-.277 1.906 6.786 6.786 0 0 0 6.778 6.779 6.786 6.786 0 0 0 6.78-6.779 6.786 6.786 0 0 0-6.78-6.778zm0-15.85a3.29 3.29 0 0 1 3.287 3.286 3.29 3.29 0 0 1-3.287 3.286 3.29 3.29 0 0 1-3.286-3.286 3.29 3.29 0 0 1 3.286-3.287zM5.47 6.778a3.29 3.29 0 0 1 3.287-3.287 3.29 3.29 0 0 1 3.286 3.287 3.29 3.29 0 0 1-3.286 3.286A3.29 3.29 0 0 1 5.469 6.78zm6.573 38.442a3.29 3.29 0 0 1-3.286 3.287 3.29 3.29 0 0 1-3.287-3.287 3.29 3.29 0 0 1 3.287-3.286 3.29 3.29 0 0 1 3.286 3.286zM8.756 30.462A4.589 4.589 0 0 1 4.17 25.88a4.59 4.59 0 0 1 4.585-4.584 4.59 4.59 0 0 1 4.584 4.584 4.589 4.589 0 0 1-4.584 4.583zm16.492 8.405a3.29 3.29 0 0 1-3.286-3.287 3.29 3.29 0 0 1 3.286-3.286 3.29 3.29 0 0 1 3.287 3.286 3.29 3.29 0 0 1-3.287 3.287z"/>
</svg>
