<svg xmlns="http://www.w3.org/2000/svg" width="72" height="38" viewBox="0 0 72 38">
    <g fill="none" fill-rule="evenodd">
        <path fill="#E25A1C" d="M65.712 19.035c-.062-.133-.09-.2-.124-.264-.9-1.71-1.798-3.423-2.706-5.13-.091-.171-.08-.273.045-.42 1.432-1.672 2.856-3.351 4.281-5.028a.451.451 0 0 0 .115-.227c-.417.11-.834.217-1.25.327-1.73.459-3.46.915-5.188 1.38-.162.043-.235-.004-.315-.137-.982-1.641-1.97-3.278-2.956-4.916a.67.67 0 0 0-.215-.24c-.079.438-.16.875-.237 1.312-.275 1.544-.55 3.088-.823 4.632-.03.166-.071.332-.085.5-.014.16-.096.218-.24.264-2.039.64-4.075 1.286-6.111 1.931a.676.676 0 0 0-.273.152l5.024 1.997c-.062.049-.102.086-.147.116-1.042.674-2.085 1.345-3.124 2.022-.124.081-.223.093-.363.03-1.244-.56-2.493-1.11-3.739-1.667-.559-.25-1.062-.581-1.454-1.06-.886-1.084-.711-2.317.47-3.07a5.57 5.57 0 0 1 1.262-.574c1.996-.65 4-1.278 6.003-1.907.168-.053.246-.128.277-.31.267-1.545.544-3.089.822-4.632.15-.825.228-1.671.63-2.427.154-.29.339-.575.559-.82.795-.881 1.905-.916 2.745-.075.284.284.528.618.739.962.926 1.51 1.837 3.03 2.744 4.552.107.18.203.216.402.163 2.233-.599 4.47-1.188 6.705-1.779.461-.121.928-.166 1.4-.078 1.031.193 1.482.978 1.133 1.973-.159.454-.432.837-.74 1.199-1.56 1.834-3.118 3.671-4.683 5.501-.128.15-.13.258-.042.425.934 1.76 1.86 3.524 2.788 5.287.223.422.392.86.397 1.344.011 1.102-.794 2.004-1.89 2.165-.613.09-1.183-.041-1.757-.219-1.4-.433-2.804-.858-4.207-1.28-.13-.04-.18-.09-.203-.23-.162-.988-.338-1.974-.508-2.96-.005-.028.003-.057.007-.117 1.599.44 3.183.878 4.832 1.333"/>
        <path fill="#3C3A3E" d="M62.981 33.422c-1.263-.002-2.526-.008-3.789-.003-.166 0-.261-.048-.354-.19-1.495-2.278-2.997-4.55-4.498-6.825-.048-.072-.099-.142-.184-.264l-.955 7.265h-3.308c.039-.322.073-.634.113-.944l.972-7.398c.31-2.356.618-4.712.932-7.068.01-.07.056-.16.113-.196 1.139-.743 2.28-1.478 3.423-2.214.016-.011.04-.013.098-.03l-1.03 7.863.04.028 5.414-6c.053.305.099.566.143.828.129.749.252 1.499.39 2.246.027.15-.013.244-.113.349-1.159 1.212-2.313 2.43-3.468 3.645l-.157.17c.037.06.069.116.106.169 1.993 2.797 3.985 5.593 5.98 8.39.036.05.088.09.132.135v.044M23.776 26.151c-.05-.258-.087-.636-.201-.99-.554-1.709-2.308-2.646-4.123-2.223-1.991.463-3.414 2.028-3.62 4.06-.152 1.503.657 2.95 2.162 3.494 1.212.438 2.38.255 3.463-.395 1.436-.862 2.216-2.141 2.319-3.946zm-8.744 6.353a510.144 510.144 0 0 0-.641 4.888c-.014.107-.047.154-.162.154-.909-.004-1.817-.003-2.726-.005-.02 0-.041-.011-.09-.025.055-.435.108-.871.165-1.308.2-1.528.4-3.057.604-4.586.233-1.748.417-3.504.715-5.24.527-3.076 3.136-5.726 6.197-6.386 1.775-.383 3.474-.206 5.023.793 1.545.996 2.432 2.441 2.634 4.26.286 2.57-.66 4.704-2.486 6.469-1.199 1.159-2.633 1.895-4.288 2.144-1.705.257-3.308-.027-4.746-1.032-.052-.037-.109-.07-.2-.126zM13.551 17.891l-2.988 2.224c-.159-.25-.301-.5-.467-.733-.428-.598-.96-1.045-1.733-1.1-.643-.045-1.193.167-1.63.641-.392.424-.443 1.027-.078 1.506a21.55 21.55 0 0 0 1.294 1.515c.746.809 1.526 1.587 2.267 2.4.675.74 1.212 1.57 1.378 2.581.198 1.203-.042 2.348-.61 3.405-1.053 1.955-2.711 3.09-4.9 3.445-.966.157-1.93.126-2.872-.152-1.252-.368-2.123-1.189-2.683-2.347-.198-.41-.35-.841-.529-1.28l3.24-1.734c.037.09.064.165.099.235.184.369.335.76.563 1.1.676 1.005 1.769 1.311 2.877.814.285-.128.56-.308.793-.515.714-.634.848-1.517.32-2.314-.305-.459-.685-.87-1.054-1.28-.884-.982-1.804-1.932-2.668-2.931-.595-.69-1-1.492-1.127-2.415a4.14 4.14 0 0 1 .586-2.806c1.303-2.108 3.196-3.204 5.701-3.113 1.428.052 2.565.72 3.448 1.829.26.328.506.67.773 1.025M37.745 29.207c-.166 1.27-.322 2.477-.485 3.683-.009.06-.056.144-.109.168-2.465 1.142-5.711.982-7.736-1.317-1.088-1.235-1.544-2.701-1.476-4.332.158-3.776 3.288-7.072 7.032-7.533 2.187-.27 4.105.322 5.587 2.02 1.01 1.158 1.476 2.54 1.407 4.066-.045 1.007-.203 2.01-.328 3.014-.178 1.42-.372 2.839-.56 4.258-.006.05-.017.1-.028.165h-2.95c.04-.326.076-.646.117-.964.214-1.64.449-3.277.636-4.92.116-1.022.043-2.037-.425-2.985-.497-1.006-1.332-1.539-2.43-1.655-2.27-.24-4.43 1.337-4.915 3.572-.32 1.476.184 2.89 1.359 3.671 1.145.762 2.372.765 3.62.27.632-.25 1.171-.646 1.684-1.18M50.165 20.163l-.403 3.058c-.624 0-1.235-.004-1.846.001a1.163 1.163 0 0 0-1.097.786c-.058.181-.08.375-.104.565l-.927 7.044-.23 1.786h-3.07c.057-.452.11-.889.168-1.325.2-1.522.4-3.043.602-4.565.174-1.316.33-2.635.536-3.947.275-1.758 2.025-3.32 3.8-3.397.846-.037 1.695-.006 2.57-.006"/>
        <path fill="#3C3A3E" fill-rule="nonzero" d="M66.6 33.403v-1.296h-.007l-.508 1.296h-.162l-.509-1.296h-.008v1.296h-.256V31.85h.396l.463 1.179.456-1.18h.392v1.553h-.256zm-2.252-1.345v1.345h-.256v-1.345h-.487v-.207h1.229v.207h-.486zM17.664 15.711h.76l-.179-1.152-.581 1.152zm.88.745h-1.266l-.402.788h-.897l1.978-3.696h.864l.674 3.696h-.831l-.12-.788zM23.075 14.293h-.451l-.152.853h.45c.273 0 .49-.18.49-.516 0-.223-.136-.337-.337-.337zm-1.092-.745h1.185c.62 0 1.054.37 1.054 1.005 0 .8-.565 1.337-1.37 1.337h-.51l-.24 1.354h-.771l.652-3.696zM26.843 15.711h.761l-.18-1.152-.58 1.152zm.88.745h-1.266l-.402.788h-.897l1.979-3.696H28l.674 3.696h-.832l-.12-.788zM32.73 17.113c-.26.12-.548.19-.837.19-.978 0-1.592-.733-1.592-1.652 0-1.174.989-2.163 2.163-2.163.293 0 .56.07.777.19l-.109.887c-.162-.18-.424-.305-.75-.305-.673 0-1.271.609-1.271 1.315 0 .538.337.957.87.957.326 0 .64-.125.853-.299l-.104.88M37.446 15.755h-1.608l-.261 1.489h-.772l.652-3.696h.772l-.26 1.462h1.608l.26-1.462h.772l-.651 3.696h-.772l.26-1.49M40.277 17.244l.651-3.696h2.05l-.13.745H41.57l-.13.717h1.173l-.13.745H41.31l-.13.744h1.277l-.13.745h-2.05"/>
    </g>
</svg>
