<svg xmlns="http://www.w3.org/2000/svg" width="37" height="37" viewBox="0 0 37 37">
    <path fill="#77BC1F" fill-rule="nonzero" d="M33.598 1.925a17.06 17.06 0 0 1-1.972 3.502A18.534 18.534 0 0 0 18.524 0C8.362 0 0 8.372 0 18.548c0 5.076 2.079 9.936 5.754 13.438l.684.607a18.525 18.525 0 0 0 11.932 4.364c9.661 0 17.783-7.574 18.471-17.225.505-4.725-.88-10.7-3.243-17.807zM8.386 32.092c-.298.37-.755.587-1.231.587-.871 0-1.583-.717-1.583-1.587 0-.871.717-1.588 1.583-1.588a1.593 1.593 0 0 1 1.232 2.589zm25.135-5.552c-4.57 6.096-14.333 4.042-20.593 4.335 0 0-1.111.067-2.227.25 0 0 .418-.178.962-.385 4.393-1.53 6.471-1.828 9.142-3.2 5.028-2.559 9.998-8.16 11.032-13.986-1.915 5.605-7.717 10.421-13.005 12.38C15.209 27.27 8.665 28.57 8.665 28.57l-.264-.14c-4.456-2.17-4.59-11.826 3.507-14.944 3.546-1.366 6.938-.615 10.768-1.53 4.09-.971 8.82-4.041 10.744-8.044 2.156 6.404 4.75 16.43.101 22.628z"/>
</svg>
