<svg width="115" height="48" fill="none" xmlns="http://www.w3.org/2000/svg"><path d="M52.546 37.95v-1.34c-.934 1.46-2.202 2.393-3.806 2.752a7.862 7.862 0 0 1-4.74-.383c-1.58-.622-2.92-1.795-4.045-3.493-1.125-1.7-1.7-3.925-1.7-6.7 0-3.255.742-5.863 2.226-7.897 1.484-2.01 3.878-3.015 7.182-3.015 2.513 0 4.835.67 6.99 2.034 2.154 1.364 3.207 3.877 3.207 7.538V38.5c0 3.66-1.077 6.149-3.207 7.489-2.155 1.34-4.477 2.01-6.99 2.01-4.812 0-7.804-2.25-8.953-6.748h5.721c.407.742 1.053 1.292 1.915 1.7.862.382 1.724.502 2.585.31.862-.191 1.652-.694 2.346-1.531.742-.862 1.15-2.106 1.269-3.78Zm-8.953-9.02c0 3.612 1.053 5.622 3.136 6.005s3.639-.096 4.62-1.46c.479-.574.814-1.483 1.03-2.703a11.74 11.74 0 0 0 .047-3.661c-.191-1.197-.622-2.274-1.292-3.207-.67-.933-1.676-1.412-2.993-1.412-1.771 0-2.992.647-3.614 1.963-.623 1.292-.934 2.8-.934 4.474Zm33.441 10.264h-2.752c-.79 0-1.437-.239-1.915-.741-.503-.503-.743-1.149-.743-1.915V25.866c0-1.244-.383-2.177-1.149-2.751a4.134 4.134 0 0 0-2.56-.862 4 4 0 0 0-2.514.862c-.742.574-1.102 1.483-1.102 2.751v13.352h-5.505v-12.25c0-3.566.933-5.935 2.777-7.131 1.867-1.197 3.901-1.867 6.152-1.963 2.298 0 4.428.599 6.367 1.795s2.897 3.637 2.897 7.298v12.227h.047Zm1.342-19.046h5.505v19.07h-5.505v-19.07Zm15.607 19.046c-1.724.096-3.591.072-5.602-.071-2.01-.168-3.016-1.436-3.016-3.853V14.86h2.825c.67 0 1.292.263 1.795.789.527.527.79 1.149.79 1.89v.718h3.208v1.1c0 .79-.264 1.437-.79 1.915-.527.503-1.15.742-1.891.742h-.551v11.749c0 .885.527 1.34 1.58 1.34h1.652v4.091Z" fill="#000"/><path d="M108.968 32.758h3.926c-.575 2.201-1.676 3.876-3.304 5.025-1.627 1.196-3.662 1.794-6.128 1.794-2.992 0-5.314-.957-6.99-2.895-1.675-1.89-2.513-4.57-2.513-8.088 0-3.35.814-5.958 2.442-7.848 1.675-1.938 3.997-2.896 6.989-2.896 3.136 0 5.578.934 7.302 2.824 1.675 1.938 2.513 4.618 2.513 8.088v.861c0 .263-.024.455-.072.55H99.56c.048 1.628.455 2.824 1.173 3.614.671.837 1.7 1.244 3.064 1.244.886 0 1.652-.192 2.275-.55a.858.858 0 0 0 .43-.288l.431-.43c.048-.168.24-.36.599-.622.335-.24.814-.383 1.436-.383Zm-9.408-6.102h8.02c-.096-1.412-.479-2.465-1.102-3.135-.67-.741-1.651-1.1-2.896-1.1-1.149 0-2.083.359-2.825 1.1-.766.718-1.149 1.771-1.197 3.135ZM31.576 10.552h2.825c.742 0 1.365.264 1.891.79.527.526.79 1.149.79 1.89v25.986h-5.506V10.552Zm46.8 4.308H81.2c.742 0 1.365.263 1.891.789.527.527.79 1.149.79 1.89v1.651h-5.505v-4.33Zm-32.892.286h-.861v-.622c-.431.479-1.03.718-1.772.718a2.595 2.595 0 0 1-1.795-.694c-.527-.502-.79-1.124-.79-1.89 0-.79.287-1.436.838-1.938.502-.479 1.125-.694 1.819-.694.718 0 1.293.24 1.724.742v-.622h.861v5h-.024Zm-.885-2.488a1.84 1.84 0 0 0-.48-1.244 1.61 1.61 0 0 0-1.196-.503 1.7 1.7 0 0 0-1.269.527c-.335.335-.502.694-.502 1.076 0 .503.143.934.454 1.293.312.382.718.55 1.221.55.479 0 .886-.168 1.245-.503.36-.31.527-.717.527-1.196Zm7.109-.144c0 .79-.24 1.436-.718 1.939-.503.526-1.125.79-1.915.79-.718 0-1.269-.24-1.7-.695v2.25h-.91v-6.676h.862v.598c.216-.24.48-.407.742-.527.288-.12.575-.167.91-.167.694 0 1.317.24 1.843.694.599.478.886 1.077.886 1.794Zm-.933.12a1.66 1.66 0 0 0-.503-1.22 1.717 1.717 0 0 0-1.245-.503c-.503 0-.91.192-1.245.55a1.7 1.7 0 0 0-.454 1.197c0 .43.12.79.383 1.125.31.383.766.574 1.364.574.479 0 .886-.168 1.22-.503.336-.31.48-.717.48-1.22Zm6.942 2.512h-.862v-.622c-.43.479-1.03.718-1.771.718a2.596 2.596 0 0 1-1.796-.694c-.526-.502-.79-1.124-.79-1.89 0-.79.288-1.436.838-1.938.503-.479 1.125-.694 1.82-.694.718 0 1.292.24 1.723.742v-.622h.862v5h-.024Zm-.862-2.488a1.84 1.84 0 0 0-.479-1.244 1.61 1.61 0 0 0-1.197-.503 1.7 1.7 0 0 0-1.268.527c-.335.335-.503.694-.503 1.076 0 .503.144.934.455 1.293.311.382.718.55 1.22.55.48 0 .886-.168 1.245-.503.336-.31.527-.717.527-1.196Zm6.87.837c-.287.575-.622 1.006-1.005 1.293-.431.31-.934.478-1.556.478-.695 0-1.317-.24-1.844-.742-.55-.526-.837-1.148-.837-1.914h.047s0 .024-.023.048c0-.79.263-1.436.813-1.938a2.425 2.425 0 0 1 1.724-.694c.622 0 1.149.167 1.628.479a2.78 2.78 0 0 1 1.029 1.34h-1.005c-.335-.599-.886-.91-1.628-.91-.479 0-.862.168-1.173.503a1.738 1.738 0 0 0-.479 1.22c0 .479.168.91.503 1.244.335.335.742.503 1.22.503.312 0 .623-.072.91-.24a1.93 1.93 0 0 0 .67-.646h1.006v-.024Zm5.195 1.651h-.91v-2.87c0-.384-.12-.719-.384-.958a1.337 1.337 0 0 0-.957-.383c-.383 0-.694.12-.934.335-.239.24-.359.527-.359.91v2.966h-.91V8.471h.91v2.081c.36-.359.79-.526 1.317-.526.574 0 1.077.191 1.508.598.455.43.694.981.694 1.651v2.871h.024Zm5.936-2.153H70.62c.072.43.287.766.623 1.029.31.215.646.335 1.005.335.335 0 .646-.096.957-.287a1.54 1.54 0 0 0 .647-.766h.933c-.239.67-.622 1.149-1.125 1.484-.43.287-.91.43-1.436.43-.67 0-1.245-.239-1.724-.717a2.654 2.654 0 0 1-.765-1.915c0-.79.263-1.436.813-1.914a2.5 2.5 0 0 1 1.748-.67c.67 0 1.269.215 1.747.67.55.502.838 1.196.838 2.058v.263h-.024Zm-.933-.838c-.096-.382-.312-.67-.623-.909a1.634 1.634 0 0 0-1.03-.359c-.478 0-.885.168-1.196.479a1.638 1.638 0 0 0-.455.79h3.304Z" fill="#000"/><path d="M7.686 8.136S-8.95 18.28 6.73 28.355c3.016 1.962 13.956 7.418 13.644 12.466 0 0 6.631-9.81-3.064-15.984C7.351 18.52 4.862 11.773 7.686 8.136Z" fill="#ED1C24"/><path d="M1.893 27.517s-5.936 8.997 5.745 10.84c1.15.144 9.6 1.029 11.802 3.804 0 0-.192-4.785-7.086-7.609-6.87-2.823-9.695-3.517-10.46-7.035Zm22.981-9.451C17.74 10.6 15.754 5.982 18.818 0c0 0-21.281 8.183-.264 22.708 7.517 5.192 6.272 10.504 6.272 10.696 1.173-1.22 7.181-7.873.048-15.338Z" fill="#ED1C24"/><path d="M115 17.85c0 .981-.766 1.747-1.771 1.747-1.006 0-1.796-.766-1.796-1.747 0-.957.79-1.722 1.796-1.722A1.712 1.712 0 0 1 115 17.85Zm-3.112 0c0 .766.575 1.388 1.365 1.388.766 0 1.316-.622 1.316-1.364 0-.765-.55-1.387-1.34-1.387-.79-.024-1.341.598-1.341 1.363Zm1.053.91h-.407v-1.723a4.57 4.57 0 0 1 .671-.048c.335 0 .478.048.598.12a.481.481 0 0 1 .168.382c0 .192-.144.335-.359.407v.024c.167.072.263.192.311.43.048.264.096.36.119.432h-.43c-.048-.072-.096-.216-.144-.431-.024-.192-.144-.263-.359-.263h-.192v.67h.024Zm.024-.981h.192c.215 0 .407-.072.407-.264 0-.167-.12-.263-.359-.263-.096 0-.192 0-.216.024v.503h-.024Z" fill="#000"/></svg>
