<?xml version="1.0" standalone="no"?><!DOCTYPE svg PUBLIC "-//W3C//DTD SVG 1.1//EN" "http://www.w3.org/Graphics/SVG/1.1/DTD/svg11.dtd"><svg t="1741946554788" class="icon" viewBox="0 0 1024 1024" version="1.1" xmlns="http://www.w3.org/2000/svg" p-id="12720" xmlns:xlink="http://www.w3.org/1999/xlink" width="200" height="200"><path d="M0 512a512 512 0 1 0 1024 0A512 512 0 0 0 0 512z" fill="#D6F3FA" p-id="12721"></path><path d="M511.341714 0c37.814857 0 74.24 19.017143 106.276572 55.442286l0.365714 0.438857 36.717714-33.426286a27.355429 27.355429 0 0 1 45.714286 20.187429v113.590857c0 16.091429-13.897143 28.672-29.842286 27.136L557.348571 172.909714a27.282286 27.282286 0 0 1-15.798857-47.323428l37.522286-34.230857c-0.585143-0.585143-1.243429-0.804571-1.755429-1.462858C559.981714 70.509714 537.161143 53.174857 511.268571 53.174857c-83.309714 0-175.908571 188.489143-175.908571 459.044572 0 53.613714 3.876571 104.009143 10.313143 150.381714 50.761143 7.972571 106.349714 12.653714 166.253714 12.653714 270.555429 0 459.117714-92.745143 459.117714-175.835428 0-59.684571-91.136-119.076571-229.229714-151.113143a26.550857 26.550857 0 0 1-19.748571-31.158857 26.112 26.112 0 0 1 31.451428-20.48C921.088 335.36 1024 411.940571 1024 499.346286c0 128.292571-224.841143 228.790857-511.853714 228.790857-54.857143 0-107.52-3.730286-156.745143-10.532572 31.597714 155.501714 96.182857 253.44 156.086857 253.44 59.538286 0 98.742857-50.614857 130.779429-188.708571a26.550857 26.550857 0 0 1 31.158857-19.675429 26.112 26.112 0 0 1 20.48 31.378286C655.140571 961.536 598.747429 1024 511.341714 1024c-97.060571 0-178.249143-128.877714-211.894857-315.977143C121.270857 672.694857 0 593.554286 0 499.419429c0-37.814857 19.017143-74.24 55.442286-106.276572l0.438857-0.365714-33.572572-36.864a27.355429 27.355429 0 0 1 20.187429-45.641143h113.664c16.091429 0 28.672 13.897143 27.062857 29.769143l-10.386286 113.225143a27.282286 27.282286 0 0 1-47.323428 15.872l-34.304-37.595429c-0.585143 0.585143-0.731429 1.316571-1.389714 1.755429-19.456 17.408-36.864 40.155429-36.864 66.121143 0 57.856 91.355429 120.173714 238.006857 152.868571A1138.468571 1138.468571 0 0 1 282.477714 512c0-287.158857 100.571429-512 228.937143-512z m19.236572 365.714286c5.12 0 9.216 4.169143 9.216 9.216v24.868571c0 0.950857-0.292571 1.682286-0.512 2.56 11.556571 2.852571 22.308571 7.314286 32.182857 13.385143 0.292571-0.658286 0.585143-1.243429 1.097143-1.755429l17.773714-17.700571a9.216 9.216 0 0 1 12.946286 0l25.380571 25.307429a9.216 9.216 0 0 1 0 13.019428l-17.700571 17.700572c-0.512 0.512-1.170286 0.731429-1.828572 1.097142 5.997714 9.947429 10.605714 20.772571 13.312 32.402286 0.512-0.146286 1.097143-0.365714 1.682286-0.365714h24.941714c5.12 0 9.216 4.169143 9.216 9.216v35.84c0 5.12-4.169143 9.216-9.216 9.216h-24.868571c-0.731429 0-1.316571-0.365714-1.974857-0.438857-2.925714 11.483429-7.533714 22.308571-13.677715 32.182857 0.512 0.219429 1.097143 0.585143 1.536 0.950857l17.700572 17.700571a9.216 9.216 0 0 1 0 13.019429l-25.307429 25.307429a9.216 9.216 0 0 1-13.019428 0l-17.700572-17.700572c-0.658286-0.512-0.950857-1.243429-1.389714-1.974857a113.371429 113.371429 0 0 1-32.329143 13.019429c0.219429 0.731429 0.438857 1.462857 0.438857 2.194285v25.088c0 5.12-4.242286 9.216-9.216 9.216h-35.84a9.216 9.216 0 0 1-9.216-9.216v-24.868571c0-0.950857 0.292571-1.901714 0.585143-2.925714a113.371429 113.371429 0 0 1-31.817143-13.531429 8.192 8.192 0 0 1-1.536 2.267429l-17.773714 17.700571a9.216 9.216 0 0 1-12.946286 0l-25.380571-25.307429a9.216 9.216 0 0 1 0-13.019428l17.700571-17.700572a8.338286 8.338286 0 0 1 2.852572-1.828571c-5.851429-9.728-10.24-20.48-13.019429-31.963429-1.024 0.292571-1.974857 0.658286-2.998857 0.658286h-24.941714A9.216 9.216 0 0 1 365.714286 529.334857v-35.84c0-5.12 4.169143-9.216 9.216-9.216h24.868571c1.316571 0 2.340571 0.219429 3.437714 0.731429 2.706286-11.483429 7.314286-22.162286 13.312-31.890286a8.118857 8.118857 0 0 1-2.56-1.682286l-17.700571-17.700571a9.216 9.216 0 0 1 0-12.946286l25.380571-25.380571a9.216 9.216 0 0 1 12.946286 0l17.700572 17.700571c0.731429 0.731429 1.316571 1.682286 1.682285 2.633143 9.874286-5.924571 20.626286-10.459429 32.109715-13.312-0.219429-0.804571-0.585143-1.682286-0.585143-2.486857v-25.014857c0-5.12 4.242286-9.216 9.216-9.216z m-17.773715 75.702857a70.582857 70.582857 0 1 0 0 141.165714 70.582857 70.582857 0 0 0 0-141.165714z" fill="#18BAE5" p-id="12722"></path></svg>