<svg xmlns="http://www.w3.org/2000/svg" width="126.52" height="128" viewBox="0 0 256 259"><path fill="#E03875" d="m216.745 34.167l-30.553 32.058c-33.98-30.638-86.127-28.84-117.917 4.065s-31.79 85.082 0 117.987s83.937 34.703 117.917 4.065l30.553 31.936a128.8 128.8 0 0 1-87.468 34.133c-57.829.027-108.633-38.375-124.382-94.018S12.289 49.42 61.554 19.135S174.208-5.01 216.745 34.167m16.517 138.444c5.842 0 10.578 4.736 10.578 10.577s-4.736 10.578-10.578 10.578s-10.577-4.736-10.577-10.578s4.736-10.577 10.577-10.577m12.16-36.167c5.842 0 10.578 4.736 10.578 10.577c-.022 5.833-4.745 10.556-10.578 10.578c-5.841 0-10.577-4.736-10.577-10.578s4.736-10.577 10.577-10.577M128.46 101.212c15.459 0 27.99 12.532 27.99 27.99c0 15.459-12.531 27.99-27.99 27.99s-27.99-12.531-27.99-27.99s12.532-27.99 27.99-27.99m85.479 34.011c5.842 0 10.578 4.736 10.578 10.578s-4.736 10.577-10.578 10.577s-10.578-4.735-10.578-10.577s4.736-10.578 10.578-10.578m0-33.156c5.842 0 10.578 4.735 10.578 10.577s-4.736 10.578-10.578 10.578s-10.578-4.736-10.578-10.578s4.736-10.577 10.578-10.577m31.484-1.22c5.842 0 10.578 4.735 10.578 10.577c-.022 5.832-4.745 10.555-10.578 10.577c-5.841 0-10.577-4.735-10.577-10.577s4.736-10.578 10.577-10.578M233.87 65.248c5.841 0 10.577 4.736 10.577 10.577s-4.736 10.578-10.577 10.578s-10.578-4.736-10.578-10.578s4.736-10.577 10.578-10.577"/></svg>