<svg xmlns="http://www.w3.org/2000/svg" width="128" height="128" viewBox="0 0 256 256"><defs><linearGradient id="IconifyId191d642780c1650ec273" x1="0%" x2="100%" y1="100%" y2="0%"><stop offset="0%" stop-color="#4D27A8"/><stop offset="100%" stop-color="#A166FF"/></linearGradient></defs><path fill="url(#IconifyId191d642780c1650ec273)" d="M0 0h256v256H0z"/><path fill="#FFF" d="M172.6 144.675a13.28 13.28 0 0 0 10.101 4.656c7.335 0 13.3-5.968 13.3-13.302h-6.4a6.907 6.907 0 0 1-6.9 6.902a6.91 6.91 0 0 1-6.902-6.902h-6.4a6.906 6.906 0 0 1-6.899 6.902a6.91 6.91 0 0 1-6.902-6.902h-6.4a6.91 6.91 0 0 1-6.902 6.902a6.91 6.91 0 0 1-6.903-6.902h-6.4c0 3.808-3.097 6.902-6.898 6.902v6.4c4.038 0 7.657-1.808 10.099-4.656a13.28 13.28 0 0 0 10.102 4.656a13.28 13.28 0 0 0 10.102-4.656a13.27 13.27 0 0 0 10.102 4.656a13.28 13.28 0 0 0 10.1-4.656m-2.81-43.539h-6.4c0 3.805-3.098 6.9-6.903 6.9a6.906 6.906 0 0 1-6.899-6.9h-6.4c0 3.805-3.097 6.9-6.905 6.9c-3.801 0-6.899-3.095-6.899-6.9h-6.4c0 3.805-3.097 6.9-6.899 6.9v6.4c4.038 0 7.657-1.809 10.099-4.657a13.28 13.28 0 0 0 10.099 4.656c4.038 0 7.664-1.808 10.105-4.656a13.27 13.27 0 0 0 10.1 4.656a13.28 13.28 0 0 0 10.102-4.656a13.28 13.28 0 0 0 10.099 4.656v-6.4c-3.802 0-6.9-3.094-6.9-6.899m-50.732 87.418c4.035 0 7.657-1.808 10.099-4.656a13.28 13.28 0 0 0 10.102 4.656c4.038 0 7.66-1.808 10.099-4.656a13.28 13.28 0 0 0 10.102 4.656v-6.4c-3.805 0-6.902-3.095-6.902-6.9h-6.4c0 3.805-3.094 6.9-6.899 6.9s-6.902-3.095-6.902-6.9h-6.4c0 3.805-3.098 6.9-6.9 6.9c-3.807 0-6.905-3.095-6.905-6.9h-6.4c0 3.805-3.094 6.9-6.899 6.9v6.4c4.039 0 7.661-1.808 10.1-4.656a13.29 13.29 0 0 0 10.105 4.656M73.603 64h3.2v-3.2h-3.2zM67.2 67.2v-9.6a3.2 3.2 0 0 1 3.203-3.2h9.6a3.2 3.2 0 0 1 3.2 3.2v9.6c0 1.766-1.434 3.2-3.2 3.2h-9.6a3.2 3.2 0 0 1-3.203-3.2m25.602-16h3.2V48h-3.2zm-6.4 3.2v-9.6c0-1.77 1.43-3.2 3.2-3.2h9.6a3.2 3.2 0 0 1 3.2 3.2v9.6c0 1.766-1.433 3.2-3.2 3.2h-9.6a3.2 3.2 0 0 1-3.2-3.2m9.6 19.2h3.2v-3.2h-3.2zm6.4-9.6a3.2 3.2 0 0 1 3.2 3.2v9.6c0 1.766-1.434 3.2-3.2 3.2h-9.6a3.2 3.2 0 0 1-3.2-3.2v-9.6c0-1.77 1.43-3.2 3.2-3.2zM90.201 89.84c-3.248 0-15.331-.125-24.454-1.798l20.156 31.846c.327.512.5 1.104.5 1.712v4.035c2.217.531 4.313.547 6.4.042V121.6c0-.605.169-1.197.492-1.712l20.998-31.792c-7.043 1.248-16.323 1.744-24.092 1.744m-35.59-8.026a5 5 0 0 1-.051-.585c0-1.968 0-7.955 31.778-8.576l.125 6.4c-10.233.198-17.798 1.174-22.108 2.176c4.707 1.097 13.44 2.211 25.846 2.211c11.952 0 20.88-1.075 25.788-2.214c-1.638-.388-3.91-.81-7.04-1.19l.778-6.353c11.443 1.395 16.111 3.584 16.111 7.546c0 .845-.304 2.003-1.388 3.11l-25.248 38.186V128a3.2 3.2 0 0 1-2.006 2.966c-2.46.99-4.931 1.482-7.453 1.482c-2.49 0-5.027-.483-7.648-1.446A3.2 3.2 0 0 1 80.003 128v-5.472L55.44 83.718l-.02-.028l-.025-.045l-.477-.755l.048-.032a3.3 3.3 0 0 1-.355-1.044M86.402 144v-9.6h-6.4v6.4h-6.4a3.2 3.2 0 0 0-2.46 5.248l16 19.2a3.203 3.203 0 0 0 4.918 0l16-19.2a3.198 3.198 0 0 0-2.458-5.248h-6.4v-6.4h-6.4v9.6a3.2 3.2 0 0 0 3.2 3.2h2.768l-9.168 11.002l-9.17-11.002h2.77c1.767 0 3.2-1.434 3.2-3.2m118.398-6.4c0 42.346-34.454 76.8-76.802 76.8c-42.344 0-76.798-34.454-76.798-76.8c0-11.706 2.566-22.94 7.622-33.395l5.763 2.787C59.952 116.57 57.6 126.867 57.6 137.6c0 38.816 31.583 70.4 70.398 70.4c38.819 0 70.402-31.584 70.402-70.4c0-38.82-31.583-70.4-70.402-70.4a71 71 0 0 0-12.246 1.06l-1.104-6.305a77.4 77.4 0 0 1 13.35-1.155c42.348 0 76.802 34.451 76.802 76.8"/></svg>