<?xml version="1.0" standalone="no"?><!DOCTYPE svg PUBLIC "-//W3C//DTD SVG 1.1//EN" "http://www.w3.org/Graphics/SVG/1.1/DTD/svg11.dtd"><svg t="1741946459688" class="icon" viewBox="0 0 1024 1024" version="1.1" xmlns="http://www.w3.org/2000/svg" p-id="8774" xmlns:xlink="http://www.w3.org/1999/xlink" width="200" height="200"><path d="M627.617185 580.892444a170.135704 170.135704 0 0 1 41.168593-21.238518V530.962963a37.925926 37.925926 0 0 1 37.925926-37.925926h37.925926a37.925926 37.925926 0 0 1 37.925926 37.925926v28.672a170.571852 170.571852 0 0 1 57.590518 34.360889l10.638222-6.144a37.925926 37.925926 0 0 1 51.806815 13.880889l18.962963 32.843852a37.925926 37.925926 0 0 1-13.880889 51.806814l-13.368889 7.736889a171.956148 171.956148 0 0 1 0.739556 47.616l12.629333 7.300741a37.925926 37.925926 0 0 1 13.880889 51.806815l-18.962963 32.843852a37.925926 37.925926 0 0 1-51.806815 13.880889l-6.826666-3.944297a170.666667 170.666667 0 0 1-61.402074 37.925926V910.222222a37.925926 37.925926 0 0 1-37.925926 37.925926h-37.925926a37.925926 37.925926 0 0 1-37.925926-37.925926v-28.672a170.799407 170.799407 0 0 1-66.048-42.571852l-14.885926 8.590223a37.925926 37.925926 0 0 1-51.806815-13.880889l-18.962963-32.843852A37.925926 37.925926 0 0 1 530.962963 749.037037l24.651852-14.222222a172.942222 172.942222 0 0 1 5.821629-60.757334l-11.510518-6.637037a37.925926 37.925926 0 0 1-13.880889-51.806814l18.962963-32.843852A37.925926 37.925926 0 0 1 606.814815 568.888889l20.80237 12.003555z" fill="#E0F7E6" p-id="8775"></path><path d="M853.333333 265.481481v180.148149a18.962963 18.962963 0 0 1-37.925926 0v-95.93363C753.739852 413.392593 623.464296 455.111111 474.074074 455.111111s-279.665778-41.718519-341.333333-105.415111V455.111111c0 61.989926 125.383111 121.874963 294.001778 131.413333a18.962963 18.962963 0 0 1-2.142815 37.869037C295.461926 617.092741 187.221333 582.162963 132.740741 531.437037V625.777778c0 61.989926 125.383111 121.874963 294.001778 131.413333a18.962963 18.962963 0 0 1-2.142815 37.869037C295.461926 787.759407 187.221333 752.82963 132.740741 702.103704V796.444444c0 68.835556 151.798519 132.740741 341.333333 132.740741a18.962963 18.962963 0 0 1 0 37.925926c-201.709037 0-368.184889-67.356444-378.728296-161.185185H94.814815V246.518519h1.763555C115.162074 147.588741 278.20563 75.851852 474.074074 75.851852c208.175407 0 379.259259 81.028741 379.259259 189.629629z m-379.259259 151.703704c189.781333 0 341.333333-71.774815 341.333333-151.703704s-151.552-151.703704-341.333333-151.703703S132.740741 185.552593 132.740741 265.481481s151.552 151.703704 341.333333 151.703704z m170.666667 129.554963V530.962963a56.888889 56.888889 0 0 1 56.888889-56.888889h37.925926a56.888889 56.888889 0 0 1 56.888888 56.888889v15.777185a189.534815 189.534815 0 0 1 40.63763 24.215704 56.888889 56.888889 0 0 1 76.856889 21.295407l18.962963 32.843852a56.888889 56.888889 0 0 1-20.821333 77.710222l-2.56 1.479111a191.886222 191.886222 0 0 1 0.398222 27.079112l2.161778 1.251555a56.888889 56.888889 0 0 1 20.821333 77.710222l-18.962963 32.843852a56.888889 56.888889 0 0 1-72.438519 23.514074A189.62963 189.62963 0 0 1 796.444444 894.445037V910.222222a56.888889 56.888889 0 0 1-56.888888 56.888889h-37.925926a56.888889 56.888889 0 0 1-56.888889-56.888889v-15.777185c-18.223407-7.964444-35.081481-18.773333-49.929482-31.93363l-2.56 1.479112a56.888889 56.888889 0 0 1-77.710222-20.821334l-18.962963-32.843852a56.888889 56.888889 0 0 1 20.821333-77.710222l14.601482-8.419555a193.024 193.024 0 0 1 3.602963-40.789334 56.888889 56.888889 0 0 1-20.062815-77.274074l18.962963-32.843852a56.888889 56.888889 0 0 1 77.710222-20.821333l10.695111 6.162963A189.11763 189.11763 0 0 1 644.740741 546.740148z m-52.489482 38.570667a18.962963 18.962963 0 0 0-25.903407 6.940444l-18.962963 32.843852a18.962963 18.962963 0 0 0 6.940444 25.903408l24.272593 14.032592-4.001185 14.184296a151.836444 151.836444 0 0 0-5.195852 54.044445l1.005037 11.965629-35.043556 20.233482a18.962963 18.962963 0 0 0-6.940444 25.903407l18.962963 32.843852a18.962963 18.962963 0 0 0 25.903407 6.940445l27.742815-16.004741 10.277926 10.676148a151.817481 151.817481 0 0 0 58.709333 37.850074l12.648297 4.475259V910.222222a18.962963 18.962963 0 0 0 18.962963 18.962963h37.925926a18.962963 18.962963 0 0 0 18.962963-18.962963v-42.097778l12.648296-4.456296a151.703704 151.703704 0 0 0 54.556444-33.716148l10.277926-9.879704 19.190519 11.074371a18.962963 18.962963 0 0 0 25.903407-6.940445l18.962963-32.843852a18.962963 18.962963 0 0 0-6.940444-25.903407l-23.514074-13.577482 1.536-12.458666a153.41037 153.41037 0 0 0-0.663704-42.382222l-1.991111-12.856889 24.651852-14.222223a18.962963 18.962963 0 0 0 6.921481-25.903407l-18.962963-32.843852a18.962963 18.962963 0 0 0-25.903407-6.940444l-22.622815 13.065481-10.24-9.291852a151.608889 151.608889 0 0 0-51.162074-30.53037L758.518519 573.041778V530.962963a18.962963 18.962963 0 0 0-18.962963-18.962963h-37.925926a18.962963 18.962963 0 0 0-18.962963 18.962963v42.097778l-12.648297 4.456296a151.172741 151.172741 0 0 0-36.598518 18.887111l-9.879704 6.959408-31.288889-18.052741zM720.592593 796.444444a75.851852 75.851852 0 1 1 0-151.703703 75.851852 75.851852 0 0 1 0 151.703703z m0-37.925925a37.925926 37.925926 0 1 0 0-75.851852 37.925926 37.925926 0 0 0 0 75.851852z" fill="#00C236" p-id="8776"></path></svg>