<svg xmlns="http://www.w3.org/2000/svg" width="128" height="128" viewBox="0 0 256 256"><defs><linearGradient id="IconifyId191d642780c1650ec275" x1="0%" x2="100%" y1="100%" y2="0%"><stop offset="0%" stop-color="#2E27AD"/><stop offset="100%" stop-color="#527FFF"/></linearGradient></defs><path fill="url(#IconifyId191d642780c1650ec275)" d="M0 0h256v256H0z"/><path fill="#FFF" d="m194.942 167.338l4.105-4.138H180l-5.035-5.075l-9.524 9.6l-27.643-27.863l4.49-4.524l23.153 23.337l9.524-9.6l7.663 7.725h16.42l-4.105-4.138l4.49-4.524L211.2 160l-11.769 11.862zm-29.502-50.263l5.035-5.075h10.041l9.509 10.662l-4.724 4.276l-7.613-8.538h-4.585l-7.663 7.725l-7.664-7.725h-17.734V112h20.362zm33.607-1.875h-5.035v-6.4h15.874v16h-6.35v-5.075l-8.21 8.275l8.21 8.275V131.2h6.35v16h-15.874v-6.4h5.035l-8.21-8.275l-8.21 8.275H163.58l-5.42 5.462l-4.488-4.524l7.28-7.338H180zm-61.25 42.538l6.35-6.4l4.489 4.524l-6.35 6.4zM105.12 44.8c31.807 0 53.97 10.118 53.97 19.2s-22.163 19.2-53.97 19.2c-31.808 0-53.97-10.118-53.97-19.2s22.162-19.2 53.97-19.2m31.747 60.8h-6.35V176c0 1.766 1.42 3.2 3.175 3.2h25.398V192c0 9.082-22.163 19.2-53.97 19.2c-30.795 0-53.97-11.133-53.97-18.352v-24.291c9.705 8.352 29.705 13.843 53.97 13.843c7.886 0 15.546-.605 22.76-1.802l-1.03-6.316c-6.876 1.139-14.187 1.718-21.73 1.718c-31.808 0-53.97-10.118-53.97-19.2v-33.043c9.705 8.352 29.705 13.843 53.97 13.843c7.886 0 15.546-.605 22.76-1.802l-1.03-6.316c-6.876 1.139-14.187 1.718-21.73 1.718c-31.808 0-53.97-10.118-53.97-19.2V75.757C60.854 84.109 80.854 89.6 105.12 89.6c24.264 0 44.265-5.491 53.97-13.843V108.8h6.35V64c0-14.595-25.932-25.6-60.32-25.6S44.8 49.405 44.8 64v128.848c0 13.184 28.188 24.752 60.32 24.752c34.388 0 60.32-11.005 60.32-25.6v-12.8h44.446v-6.4h-73.019z"/></svg>