<?xml version="1.0" standalone="no"?><!DOCTYPE svg PUBLIC "-//W3C//DTD SVG 1.1//EN" "http://www.w3.org/Graphics/SVG/1.1/DTD/svg11.dtd"><svg t="1741946380001" class="icon" viewBox="0 0 1024 1024" version="1.1" xmlns="http://www.w3.org/2000/svg" p-id="8624" xmlns:xlink="http://www.w3.org/1999/xlink" width="200" height="200"><path d="M0 0h1024v1024H0V0z m40.96 40.96v942.08h942.08V40.96H40.96z" fill="#3DA2FF" fill-opacity=".3" p-id="8625"></path><path d="M245.76 348.16v327.68h-40.96V348.16h40.96z m512 0v143.36h-40.96v-143.36h40.96z" fill="#3DA2FF" p-id="8626"></path><path d="M215.04 348.16a266.24 122.88 0 1 0 532.48 0 266.24 122.88 0 1 0-532.48 0Z" fill="#3DA2FF" fill-opacity=".1" p-id="8627"></path><path d="M481.28 471.04c152.69888 0 276.48-55.00928 276.48-122.88s-123.78112-122.88-276.48-122.88S204.8 280.28928 204.8 348.16s123.78112 122.88 276.48 122.88z m0-40.96C348.71296 430.08 245.76 384.32768 245.76 348.16s102.95296-81.92 235.52-81.92S716.8 311.99232 716.8 348.16s-102.95296 81.92-235.52 81.92zM481.28 757.76c10.4448 0 20.6848-0.28672 30.72-0.8192v41.02144c-10.07616 0.512-20.33664 0.75776-30.72 0.75776-152.69888 0-276.48-55.00928-276.48-122.88 0-16.44544 7.2704-32.1536 20.48-46.4896V675.84h20.48c0 36.16768 102.95296 81.92 235.52 81.92zM225.28 447.13984c0 60.04736 113.95072 112.64 256 112.64 10.40384 0 20.66432-0.26624 30.72-0.8192v20.52096c-10.07616 0.512-20.33664 0.77824-30.72 0.77824-152.02304 0-276.48-57.42592-276.48-133.12h20.48z" fill="#3DA2FF" p-id="8628"></path><path d="M225.28 556.38016c0 60.04736 113.95072 112.64 256 112.64 3.44064 0 6.8608-0.04096 10.24-0.1024l0.02048 20.48a600.6784 600.6784 0 0 1-10.26048 0.1024c-152.02304 0-276.48-57.4464-276.48-133.12h20.48z" fill="#3DA2FF" p-id="8629"></path><path d="M706.56 532.48v45.64992a102.2976 102.2976 0 0 1 38.5024 22.26176l39.56736-22.8352 30.72 53.20704-39.5264 22.8352a102.76864 102.76864 0 0 1 0 44.48256l39.5264 22.8352-30.72 53.20704-39.54688-22.8352a102.2976 102.2976 0 0 1-38.5024 22.26176L706.56 819.2h-61.44v-45.64992a102.2976 102.2976 0 0 1-38.5024-22.24128l-39.56736 22.81472-30.72-53.20704 39.5264-22.8352a102.76864 102.76864 0 0 1 0-44.48256l-39.5264-22.8352 30.72-53.20704 39.56736 22.81472a102.2976 102.2976 0 0 1 38.5024-22.24128V532.48h61.44z" fill="#3DA2FF" fill-opacity=".1" p-id="8630"></path><path d="M706.56 532.48v45.64992a102.2976 102.2976 0 0 1 38.5024 22.26176l39.56736-22.8352 30.72 53.20704-39.5264 22.8352a102.76864 102.76864 0 0 1 0 44.48256l39.5264 22.8352-30.72 53.20704-39.54688-22.8352a102.2976 102.2976 0 0 1-38.5024 22.26176L706.56 819.2h-61.44v-45.64992a102.2976 102.2976 0 0 1-38.5024-22.24128l-39.56736 22.81472-30.72-53.20704 39.5264-22.8352a102.76864 102.76864 0 0 1 0-44.48256l-39.5264-22.8352 30.72-53.20704 39.56736 22.81472a102.2976 102.2976 0 0 1 38.5024-22.24128V532.48h61.44z m-20.48 20.48h-20.48v40.20224l-14.336 4.5056a81.79712 81.79712 0 0 0-30.80192 17.79712l-11.0592 10.15808-34.85696-20.09088-10.24 17.73568 34.79552 20.11136-3.23584 14.6432a82.28864 82.28864 0 0 0 0 35.6352l3.23584 14.6432-34.816 20.11136 10.26048 17.73568 34.85696-20.0704 11.0592 10.1376c8.84736 8.11008 19.3536 14.19264 30.78144 17.79712l14.336 4.5056V798.72H686.08v-40.20224l14.336-4.5056a81.8176 81.8176 0 0 0 30.80192-17.8176l11.07968-10.15808 34.83648 20.11136 10.24-17.73568-34.79552-20.11136 3.23584-14.6432a82.28864 82.28864 0 0 0 0-35.6352l-3.23584-14.6432 34.816-20.11136-10.24-17.73568-34.85696 20.11136-11.0592-10.15808a81.8176 81.8176 0 0 0-30.80192-17.8176l-14.336-4.5056V552.96z" fill="#3DA2FF" p-id="8631"></path><path d="M675.84 716.8a40.96 40.96 0 1 0 0-81.92 40.96 40.96 0 0 0 0 81.92z m0-20.48a20.48 20.48 0 1 1 0-40.96 20.48 20.48 0 0 1 0 40.96z" fill="#3DA2FF" p-id="8632"></path></svg>