<?xml version="1.0" standalone="no"?><!DOCTYPE svg PUBLIC "-//W3C//DTD SVG 1.1//EN" "http://www.w3.org/Graphics/SVG/1.1/DTD/svg11.dtd"><svg t="1741945329187" class="icon" viewBox="0 0 1024 1024" version="1.1" xmlns="http://www.w3.org/2000/svg" p-id="6458" xmlns:xlink="http://www.w3.org/1999/xlink" width="200" height="200"><path d="M879.232 597.333333h85.333333v298.666667h-85.333333v21.333333a42.666667 42.666667 0 0 1-42.666667 42.666667H186.453333a42.666667 42.666667 0 0 1-42.666666-42.666667V896h-85.333334v-298.666667h85.333334V103.765333a42.666667 42.666667 0 0 1 42.666666-42.666666h514.56a42.666667 42.666667 0 0 1 30.250667 12.586666l135.509333 136.405334a42.666667 42.666667 0 0 1 12.373334 30.08V597.333333z" fill="#FFFFFF" p-id="6459"></path><path d="M170.666667 597.333333H128V85.333333a42.666667 42.666667 0 0 1 42.666667-42.666666h547.157333a42.666667 42.666667 0 0 1 30.250667 12.586666l135.509333 136.405334a42.666667 42.666667 0 0 1 12.416 30.08V597.333333h-42.666667V255.829333h-103.552a64 64 0 0 1-64-64V85.333333H170.666667v512z m0 256v85.333334h682.666666v-85.333334h42.666667v85.333334a42.666667 42.666667 0 0 1-42.666667 42.666666H170.666667a42.666667 42.666667 0 0 1-42.666667-42.666666v-85.333334h42.666667zM728.448 96v95.829333a21.333333 21.333333 0 0 0 21.333333 21.333334H844.8L728.448 96z" fill="#5D6D7E" p-id="6460"></path><path d="M682.666667 426.666667h-42.666667V384H384v170.666667h42.666667v42.666666H384a42.666667 42.666667 0 0 1-42.666667-42.666666V384a42.666667 42.666667 0 0 1 42.666667-42.666667h256a42.666667 42.666667 0 0 1 42.666667 42.666667v42.666667z" fill="#2FAF9A" p-id="6461"></path><path d="M469.333333 426.666667h256a42.666667 42.666667 0 0 1 42.666667 42.666666v128h-341.333333v-128a42.666667 42.666667 0 0 1 42.666666-42.666666z" fill="#EF633F" p-id="6462"></path><path d="M128 469.333333v85.333334H42.666667l85.333333-85.333334z m768 0l85.333333 85.333334h-85.333333v-85.333334z" fill="#1582B8" p-id="6463"></path><path d="M597.333333 341.333333h-42.666666V298.666667H298.666667v170.666666h42.666666v42.666667H298.666667a42.666667 42.666667 0 0 1-42.666667-42.666667V298.666667a42.666667 42.666667 0 0 1 42.666667-42.666667h256a42.666667 42.666667 0 0 1 42.666666 42.666667v42.666666zM42.666667 554.666667h938.666666v341.333333H42.666667v-341.333333z m25.344 265.130666h37.248V663.466667l33.536 156.288h38.613333l31.829333-156.288v156.288h37.248V621.226667h-60.16l-28.032 135.424L128 621.226667H68.010667v198.528z m199.253333-73.941333c0 16.512 3.114667 30.506667 9.344 42.026667 6.229333 11.52 15.36 20.266667 27.306667 26.197333 11.946667 5.973333 24.490667 8.96 37.674666 8.96 21.333333 0 38.997333-7.168 53.034667-21.461333 14.037333-14.336 21.034667-32.341333 21.034667-54.101334 0-21.589333-6.912-39.424-20.821334-53.546666-13.909333-14.165333-31.744-21.205333-53.504-21.205334-14.08 0-26.837333 3.114667-38.272 9.344a64.128 64.128 0 0 0-26.453333 27.093334 77.781333 77.781333 0 0 0-9.386667 36.693333z m38.997333 2.005333c0-14.250667 3.413333-25.173333 10.154667-32.768a32.256 32.256 0 0 1 25.045333-11.349333c9.941333 0 18.261333 3.797333 25.002667 11.349333 6.698667 7.594667 10.069333 18.432 10.069333 32.512 0 14.464-3.370667 25.472-10.069333 33.024a32.085333 32.085333 0 0 1-25.002667 11.392 32.256 32.256 0 0 1-25.045333-11.392c-6.784-7.552-10.154667-18.474667-10.154667-32.768z m132.053334-71.893333v143.786667h38.058666v-69.845334c0-13.824 1.024-23.68 3.029334-29.653333a26.026667 26.026667 0 0 1 10.112-13.653333 27.733333 27.733333 0 0 1 15.829333-4.778667c4.864 0-0.341333 0.981333 2.517333 2.986667a17.28 17.28 0 0 1 6.272 9.088c1.365333 4.053333 2.048 13.056 2.048 27.050666v78.848h38.058667v-69.077333c0-13.525333 1.024-23.466667 3.114667-29.738667a27.050667 27.050667 0 0 1 10.154666-14.293333c4.693333-3.242667 0.170667-4.864 5.504-4.864 7.296 0 12.714667 2.730667 16.213334 8.106667 2.645333 4.181333 3.968 13.397333 3.968 27.648v82.218666h38.058666v-91.946666c0-13.738667-1.322667-23.68-3.925333-29.824a39.424 39.424 0 0 0-16.384-18.858667c-7.338667-4.266667-16.256-6.442667-26.837333-6.442667-8.277333 0-6.570667 1.877333-13.909334 5.674667a66.432 66.432 0 0 0-20.437333 17.194667 43.690667 43.690667 0 0 0-16.64-17.194667 48.256 48.256 0 0 0-23.978667-5.674667c-17.322667 0-23.210667 7.637333-35.754666 22.869334v-19.626667h-35.072z m220.8 153.301333a94.421333 94.421333 0 0 0-0.128 4.608c0 12.8 5.12 23.381333 15.274666 31.744 10.24 8.362667 27.52 12.544 51.882667 12.544 12.928 0 23.594667-1.365333 32-4.096 8.448-2.688 15.232-6.442667 20.266667-11.221333 5.077333-4.778667 8.96-11.392 11.776-19.754667 2.816-8.405333 4.224-21.12 4.224-38.058666v-129.066667h-35.626667v20.181333c-11.52-15.616-26.24-23.466667-44.032-23.466666-17.237333 0-31.658667 6.4-43.264 19.114666-11.562667 12.757333-17.365333 31.146667-17.365333 55.253334 0 19.242667 4.394667 35.328 13.226666 48.213333 11.306667 16.341333 26.624 24.533333 45.952 24.533333 17.322667 0 31.658667-7.765333 43.050667-23.296v20.992c0 8.490667-0.597333 14.293333-1.749333 17.493334a18.432 18.432 0 0 1-7.594667 9.557333c-4.992 2.986667-12.416 4.48-22.357333 4.48-7.765333 0-13.44-1.365333-17.066667-4.053333-2.602667-1.877333-4.266667-5.376-4.992-10.410667l-43.477333-5.290667z m34.005333-84.394666c0-14.506667 2.944-25.344 8.874667-32.426667a28.074667 28.074667 0 0 1 22.528-10.624c9.386667 0 17.152 3.626667 23.296 10.837333 6.144 7.253333 9.216 18.304 9.216 33.194667 0 14.250667-3.2 25.002667-9.642667 32.298667a30.250667 30.250667 0 0 1-23.552 10.88 27.434667 27.434667 0 0 1-21.845333-10.624c-5.973333-7.082667-8.874667-18.261333-8.874667-33.536z m123.008 0.981333c0 16.512 3.114667 30.506667 9.344 42.026667 6.229333 11.52 15.36 20.266667 27.306667 26.197333 11.946667 5.973333 24.533333 8.96 37.674666 8.96 21.333333 0 38.997333-7.168 53.034667-21.461333 14.08-14.336 21.077333-32.341333 21.077333-54.101334 0-21.589333-6.954667-39.424-20.906666-53.546666-13.866667-14.165333-31.701333-21.205333-53.461334-21.205334-14.08 0-26.837333 3.114667-38.229333 9.344a64.128 64.128 0 0 0-26.496 27.093334 77.781333 77.781333 0 0 0-9.344 36.693333z m38.997333 2.005333c0-14.250667 3.413333-25.173333 10.154667-32.768a32.256 32.256 0 0 1 25.045333-11.349333c9.941333 0 18.261333 3.797333 25.002667 11.349333 6.741333 7.594667 10.069333 18.432 10.069333 32.512 0 14.464-3.328 25.472-10.069333 33.024a32.085333 32.085333 0 0 1-25.002667 11.392 32.256 32.256 0 0 1-25.045333-11.392c-6.784-7.552-10.154667-18.474667-10.154667-32.768z" fill="#3B97D3" p-id="6464"></path></svg>